<svg width="188" height="43" viewBox="0 0 188 43" fill="none" xmlns="http://www.w3.org/2000/svg">
<path d="M29.6854 22.9427C29.7063 21.3153 30.1386 19.7196 30.942 18.3041C31.7453 16.8887 32.8937 15.6994 34.2802 14.847C33.3994 13.5891 32.2374 12.5538 30.8865 11.8235C29.5357 11.0932 28.0331 10.688 26.4982 10.6399C23.224 10.2963 20.0498 12.5992 18.3813 12.5992C16.6806 12.5992 14.1117 10.6741 11.3455 10.731C9.55617 10.7888 7.81237 11.3091 6.28396 12.2412C4.75555 13.1733 3.49466 14.4855 2.62414 16.0498C-1.1467 22.5785 1.66601 32.1737 5.27822 37.451C7.08549 40.0352 9.19766 42.9218 11.9614 42.8195C14.6659 42.7073 15.676 41.0949 18.9406 41.0949C22.1748 41.0949 23.1225 42.8195 25.9423 42.7544C28.8444 42.7073 30.6728 40.1587 32.4167 37.5501C33.7152 35.7087 34.7144 33.6737 35.3773 31.5203C33.6913 30.8072 32.2525 29.6135 31.2403 28.0882C30.2281 26.5629 29.6873 24.7733 29.6854 22.9427Z" fill="black"/>
<path d="M24.3594 7.16933C25.9418 5.26981 26.7213 2.8283 26.5325 0.363281C24.1151 0.617184 21.8821 1.77256 20.2784 3.59919C19.4943 4.49155 18.8938 5.5297 18.5111 6.65429C18.1285 7.77888 17.9712 8.96786 18.0484 10.1533C19.2575 10.1657 20.4537 9.90362 21.5469 9.38676C22.6401 8.86989 23.6017 8.11171 24.3594 7.16933Z" fill="black"/>
<path d="M61.3931 24.3273H52.5179L50.3866 30.6207H46.6274L55.0338 7.33691H58.9394L67.3458 30.6207H63.5226L61.3931 24.3273ZM53.4371 21.4233H60.4721L57.0041 11.2096H56.907L53.4371 21.4233Z" fill="black"/>
<path d="M85.5004 22.1336C85.5004 27.4089 82.6769 30.7982 78.4161 30.7982C77.3367 30.8546 76.2633 30.606 75.3187 30.0808C74.3741 29.5555 73.5964 28.7748 73.0749 27.8282H72.9943V36.2364H69.5098V13.6449H72.8826V16.4683H72.9467C73.4922 15.5262 74.2829 14.7496 75.2347 14.2212C76.1866 13.6927 77.2638 13.4322 78.3519 13.4672C82.6604 13.4673 85.5004 16.873 85.5004 22.1336ZM81.9189 22.1336C81.9189 18.6968 80.1427 16.4372 77.4328 16.4372C74.7704 16.4372 72.9797 18.7444 72.9797 22.1336C72.9797 25.5541 74.7704 27.8447 77.4328 27.8447C80.1428 27.8447 81.9188 25.6017 81.9188 22.1336H81.9189Z" fill="black"/>
<path d="M104.185 22.1336C104.185 27.4089 101.361 30.7982 97.1001 30.7982C96.0208 30.8546 94.9474 30.606 94.0027 30.0808C93.0581 29.5555 92.2805 28.7748 91.759 27.8282H91.6783V36.2364H88.1938V13.6449H91.5667V16.4683H91.6307C92.1763 15.5262 92.967 14.7496 93.9188 14.2212C94.8706 13.6927 95.9479 13.4322 97.036 13.4672C101.345 13.4673 104.185 16.873 104.185 22.1336ZM100.603 22.1336C100.603 18.6968 98.8268 16.4372 96.1169 16.4372C93.4545 16.4372 91.6638 18.7444 91.6638 22.1336C91.6638 25.5541 93.4545 27.8447 96.1169 27.8447C98.8268 27.8447 100.603 25.6017 100.603 22.1336Z" fill="black"/>
<path d="M116.533 24.1333C116.791 26.4422 119.034 27.9583 122.099 27.9583C125.036 27.9583 127.149 26.4422 127.149 24.3602C127.149 22.553 125.875 21.4709 122.857 20.7293L119.84 20.0023C115.564 18.9696 113.579 16.9701 113.579 13.7255C113.579 9.70813 117.08 6.94873 122.05 6.94873C126.972 6.94873 130.344 9.70813 130.458 13.7255H126.941C126.73 11.4019 124.809 9.99928 122.002 9.99928C119.195 9.99928 117.274 11.4184 117.274 13.4838C117.274 15.1299 118.501 16.0985 121.502 16.84L124.068 17.4699C128.845 18.5997 130.828 20.5187 130.828 23.9244C130.828 28.2805 127.36 31.0087 121.841 31.0087C116.677 31.0087 113.191 28.3445 112.966 24.1331L116.533 24.1333Z" fill="black"/>
<path d="M138.352 9.62695V13.6443H141.58V16.4037H138.352V25.7622C138.352 27.2161 138.998 27.8936 140.417 27.8936C140.801 27.8869 141.183 27.86 141.564 27.8129V30.5559C140.926 30.6751 140.277 30.7291 139.628 30.717C136.191 30.717 134.851 29.4261 134.851 26.1339V16.4037H132.383V13.6443H134.851V9.62695H138.352Z" fill="black"/>
<path d="M143.447 22.1333C143.447 16.7921 146.593 13.4358 151.498 13.4358C156.42 13.4358 159.551 16.792 159.551 22.1333C159.551 27.4891 156.437 30.8308 151.498 30.8308C146.562 30.8308 143.447 27.4891 143.447 22.1333ZM156.001 22.1333C156.001 18.4694 154.322 16.3069 151.498 16.3069C148.675 16.3069 146.996 18.4858 146.996 22.1333C146.996 25.8119 148.675 27.9579 151.498 27.9579C154.322 27.9579 156.001 25.8119 156.001 22.1333H156.001Z" fill="black"/>
<path d="M162.424 13.6447H165.747V16.5341H165.828C166.053 15.6317 166.581 14.8342 167.325 14.2756C168.069 13.7171 168.982 13.4316 169.911 13.4671C170.313 13.4657 170.713 13.5093 171.105 13.5971V16.8564C170.598 16.7014 170.069 16.6303 169.539 16.6458C169.033 16.6253 168.528 16.7145 168.06 16.9074C167.592 17.1003 167.17 17.3923 166.825 17.7634C166.48 18.1344 166.22 18.5757 166.062 19.057C165.903 19.5382 165.851 20.048 165.908 20.5514V30.6204H162.424L162.424 13.6447Z" fill="black"/>
<path d="M187.171 25.6343C186.702 28.7159 183.701 30.8308 179.861 30.8308C174.923 30.8308 171.858 27.5221 171.858 22.2139C171.858 16.8892 174.94 13.4358 179.715 13.4358C184.412 13.4358 187.365 16.6621 187.365 21.8092V23.0031H175.375V23.2136C175.32 23.8384 175.398 24.4677 175.605 25.0599C175.811 25.6521 176.142 26.1936 176.574 26.6484C177.005 27.1032 177.529 27.4608 178.11 27.6977C178.691 27.9345 179.315 28.045 179.942 28.022C180.765 28.0991 181.592 27.9084 182.298 27.4782C183.004 27.048 183.553 26.4013 183.862 25.6343L187.171 25.6343ZM175.392 20.5677H183.879C183.91 20.006 183.825 19.4439 183.629 18.9166C183.432 18.3893 183.129 17.9083 182.738 17.5038C182.347 17.0992 181.877 16.7798 181.357 16.5657C180.836 16.3515 180.277 16.2472 179.715 16.2593C179.148 16.2559 178.585 16.3649 178.06 16.5801C177.535 16.7952 177.058 17.1122 176.656 17.5128C176.254 17.9133 175.935 18.3895 175.718 18.9139C175.501 19.4382 175.39 20.0003 175.392 20.5678V20.5677Z" fill="black"/>
</svg>
