<svg width="270" height="77" viewBox="0 0 270 77" fill="none" xmlns="http://www.w3.org/2000/svg">
<path d="M42.0467 40.7815C42.0769 38.438 42.6994 36.1402 43.8562 34.1019C45.0131 32.0636 46.6667 30.3511 48.6632 29.1236C47.3949 27.3122 45.7216 25.8215 43.7764 24.7699C41.8311 23.7182 39.6674 23.1346 37.4572 23.0655C32.7423 22.5706 28.1715 25.8868 25.7689 25.8868C23.3198 25.8868 19.6206 23.1146 15.6372 23.1966C13.0607 23.2798 10.5496 24.0291 8.34867 25.3713C6.14776 26.7136 4.33208 28.6031 3.07852 30.8557C-2.35148 40.2571 1.69882 54.074 6.9004 61.6735C9.50288 65.3947 12.5444 69.5514 16.5242 69.404C20.4187 69.2424 21.8732 66.9206 26.5742 66.9206C31.2315 66.9206 32.5961 69.404 36.6567 69.3103C40.8357 69.2424 43.4686 65.5725 45.9798 61.8161C47.8497 59.1646 49.2885 56.2341 50.2431 53.1332C47.8152 52.1063 45.7434 50.3875 44.2858 48.191C42.8282 45.9945 42.0495 43.4176 42.0467 40.7815Z" fill="black"/>
<path d="M34.3771 18.0673C36.6557 15.332 37.7782 11.8162 37.5064 8.2666C34.0253 8.63222 30.8097 10.296 28.5004 12.9263C27.3713 14.2113 26.5065 15.7062 25.9555 17.3257C25.4045 18.9451 25.1781 20.6572 25.2892 22.3642C27.0304 22.3821 28.7529 22.0047 30.3271 21.2604C31.9013 20.5161 33.286 19.4243 34.3771 18.0673Z" fill="black"/>
<path d="M70.4038 14.8086V16.7773C70.4038 19.9883 71.7866 21.7812 74.2358 21.7812C76.3218 21.7812 77.7046 20.4688 77.7397 18.5938H80.3296V18.7695C80.3296 21.8633 77.7515 24.0664 74.2241 24.0664C70.0991 24.0664 67.7202 21.3242 67.7202 16.7656V14.8086C67.7202 10.2148 70.0991 7.4375 74.2241 7.4375C77.7632 7.4375 80.3296 9.71094 80.3296 12.957V13.1328H77.7397C77.7046 11.1289 76.3218 9.73438 74.2358 9.73438C71.7866 9.73438 70.4038 11.5508 70.4038 14.8086ZM85.8374 18.3477H85.7319V23.75H83.1421V11.3633H85.7319V16.3789H85.8257L90.3491 11.3633H93.4897L88.146 17.2344L93.8062 23.75H90.5718L85.8374 18.3477ZM98.8569 23.9375C96.4546 23.9375 94.8022 22.4961 94.8022 20.1875C94.8022 17.9844 96.3257 16.5898 99.1733 16.5898H102.314V15.4062C102.314 13.9883 101.47 13.2031 100.017 13.2031C98.5991 13.2031 97.7905 13.9414 97.6968 15.043H95.2593C95.3647 12.9336 96.771 11.1758 100.076 11.1758C102.83 11.1758 104.88 12.5469 104.88 15.3125V23.75H102.408V22.2266H102.314C101.775 23.1758 100.685 23.9375 98.8569 23.9375ZM99.6421 21.957C101.154 21.957 102.314 21.0195 102.314 19.6719V18.3008H99.6187C98.1069 18.3008 97.4155 19.0156 97.4155 20.0469C97.4155 21.3359 98.4937 21.957 99.6421 21.957ZM118.228 23.75H115.626V18.7578H115.486C115.31 18.8984 114.15 19.543 112.498 19.543C109.451 19.543 108.091 17.8438 108.091 15.2773V11.3633H110.693V15.0898C110.693 16.4844 111.501 17.375 113.072 17.375C114.642 17.375 115.568 16.7305 115.626 16.6602V11.3633H118.228V23.75ZM125.154 23.9375C122.751 23.9375 121.099 22.4961 121.099 20.1875C121.099 17.9844 122.623 16.5898 125.47 16.5898H128.611V15.4062C128.611 13.9883 127.767 13.2031 126.314 13.2031C124.896 13.2031 124.087 13.9414 123.994 15.043H121.556C121.662 12.9336 123.068 11.1758 126.373 11.1758C129.126 11.1758 131.177 12.5469 131.177 15.3125V23.75H128.705V22.2266H128.611C128.072 23.1758 126.982 23.9375 125.154 23.9375ZM125.939 21.957C127.451 21.957 128.611 21.0195 128.611 19.6719V18.3008H125.916C124.404 18.3008 123.712 19.0156 123.712 20.0469C123.712 21.3359 124.791 21.957 125.939 21.957ZM143.669 13.3906H139.802V23.75H137.212V13.3906H133.345V11.3633H143.669V13.3906ZM146.001 23.75V11.3633H148.591V15.418H150.677C153.583 15.418 155.435 17.0234 155.435 19.5898C155.435 22.1328 153.583 23.75 150.677 23.75H146.001ZM150.408 17.4219H148.58V21.7461H150.419C151.884 21.7461 152.845 20.8789 152.845 19.5664C152.845 18.2539 151.884 17.4219 150.408 17.4219ZM162.876 23.75V11.3633H168.431C170.716 11.3633 172.275 12.5703 172.275 14.5039C172.275 15.9688 171.419 16.8711 170.201 17.1641V17.2461C171.83 17.4453 172.931 18.5352 172.931 20.2578C172.931 22.543 170.974 23.75 168.349 23.75H162.876ZM165.419 13.2031V16.4961H167.458C168.982 16.4961 169.755 15.957 169.755 14.7617C169.755 13.707 168.923 13.2031 167.822 13.2031H165.419ZM165.419 18.2539V21.9102H167.763C169.298 21.9102 170.365 21.4766 170.365 20.1055C170.365 18.8984 169.427 18.2539 167.974 18.2539H165.419Z" fill="#25252F"/>
<path d="M87.7054 59.7753H74.9252L71.856 68.8377H66.4429L78.548 35.3091H84.1721L96.2773 68.8377H90.7719L87.7054 59.7753ZM76.2488 55.5934H86.3792L81.3853 40.8858H81.2454L76.2488 55.5934Z" fill="black"/>
<path d="M122.421 56.616C122.421 64.2124 118.355 69.0929 112.219 69.0929C110.665 69.1742 109.119 68.8162 107.759 68.0598C106.399 67.3034 105.279 66.1793 104.528 64.8161H104.412V76.9239H99.394V44.3921H104.251V48.4579H104.343C105.129 47.1013 106.267 45.983 107.638 45.222C109.009 44.461 110.56 44.0858 112.127 44.1363C118.331 44.1364 122.421 49.0406 122.421 56.616ZM117.263 56.616C117.263 51.6669 114.706 48.4131 110.803 48.4131C106.969 48.4131 104.391 51.7354 104.391 56.616C104.391 61.5414 106.969 64.8399 110.803 64.8399C114.706 64.8399 117.263 61.6099 117.263 56.616H117.263Z" fill="black"/>
<path d="M149.327 56.616C149.327 64.2124 145.26 69.0929 139.124 69.0929C137.57 69.1742 136.024 68.8162 134.664 68.0598C133.304 67.3034 132.184 66.1793 131.433 64.8161H131.317V76.9239H126.299V44.3921H131.156V48.4579H131.248C132.034 47.1013 133.173 45.983 134.543 45.222C135.914 44.461 137.465 44.0858 139.032 44.1363C145.236 44.1364 149.327 49.0406 149.327 56.616ZM144.168 56.616C144.168 51.6669 141.611 48.4131 137.708 48.4131C133.875 48.4131 131.296 51.7354 131.296 56.616C131.296 61.5414 133.875 64.8399 137.708 64.8399C141.611 64.8399 144.168 61.6099 144.168 56.616Z" fill="black"/>
<path d="M167.107 59.4957C167.478 62.8207 170.708 65.0037 175.122 65.0037C179.352 65.0037 182.394 62.8206 182.394 59.8226C182.394 57.2201 180.559 55.6619 176.214 54.594L171.869 53.5472C165.712 52.0601 162.854 49.1808 162.854 44.5085C162.854 38.7235 167.895 34.75 175.051 34.75C182.139 34.75 186.995 38.7235 187.159 44.5085H182.094C181.791 41.1625 179.025 39.1428 174.983 39.1428C170.94 39.1428 168.175 41.1863 168.175 44.1605C168.175 46.5309 169.941 47.9257 174.263 48.9935L177.957 49.9005C184.836 51.5274 187.692 54.2907 187.692 59.1949C187.692 65.4677 182.698 69.3964 174.75 69.3964C167.315 69.3964 162.295 65.56 161.97 59.4955L167.107 59.4957Z" fill="black"/>
<path d="M198.525 38.6079V44.3929H203.174V48.3664H198.525V61.8427C198.525 63.9362 199.456 64.9118 201.5 64.9118C202.051 64.9022 202.602 64.8634 203.15 64.7957V68.7455C202.231 68.9172 201.298 68.9949 200.363 68.9776C195.414 68.9776 193.484 67.1187 193.484 62.3778V48.3664H189.93V44.3929H193.484V38.6079H198.525Z" fill="black"/>
<path d="M205.863 56.6167C205.863 48.9254 210.393 44.0923 217.457 44.0923C224.544 44.0923 229.053 48.9253 229.053 56.6167C229.053 64.3291 224.568 69.1411 217.457 69.1411C210.348 69.1411 205.863 64.3291 205.863 56.6167ZM223.941 56.6167C223.941 51.3406 221.523 48.2267 217.457 48.2267C213.391 48.2267 210.973 51.3644 210.973 56.6167C210.973 61.9139 213.391 65.0041 217.457 65.0041C221.523 65.0041 223.941 61.9139 223.941 56.6167H223.941Z" fill="black"/>
<path d="M233.19 44.3924H237.976V48.5531H238.092C238.416 47.2536 239.177 46.1052 240.248 45.3009C241.319 44.4966 242.634 44.0855 243.972 44.1366C244.55 44.1346 245.127 44.1974 245.691 44.3238V49.0171C244.961 48.7941 244.2 48.6917 243.437 48.7139C242.708 48.6844 241.981 48.8129 241.306 49.0907C240.632 49.3685 240.025 49.789 239.529 50.3233C239.032 50.8576 238.657 51.493 238.429 52.186C238.201 52.8791 238.126 53.6132 238.208 54.338V68.8374H233.19L233.19 44.3924Z" fill="black"/>
<path d="M268.825 61.6581C268.15 66.0957 263.829 69.1411 258.299 69.1411C251.188 69.1411 246.774 64.3765 246.774 56.7327C246.774 49.0651 251.212 44.0923 258.089 44.0923C264.852 44.0923 269.105 48.7382 269.105 56.15V57.8691H251.84V58.1724C251.76 59.072 251.873 59.9783 252.17 60.8311C252.467 61.6838 252.943 62.4635 253.565 63.1184C254.187 63.7733 254.941 64.2884 255.777 64.6294C256.614 64.9704 257.513 65.1296 258.416 65.0964C259.601 65.2075 260.791 64.9328 261.808 64.3134C262.825 63.6939 263.615 62.7626 264.061 61.6581L268.825 61.6581ZM251.863 54.3623H264.084C264.129 53.5534 264.007 52.7439 263.724 51.9846C263.442 51.2254 263.005 50.5327 262.442 49.9502C261.879 49.3676 261.202 48.9077 260.453 48.5993C259.703 48.2909 258.899 48.1407 258.089 48.1581C257.271 48.1532 256.461 48.3102 255.705 48.62C254.949 48.9298 254.262 49.3863 253.683 49.9631C253.104 50.5399 252.646 51.2257 252.333 51.9807C252.021 52.7358 251.861 53.5452 251.863 54.3623V54.3623Z" fill="black"/>
</svg>
