<svg width="307" height="80" viewBox="0 0 307 80" fill="none" xmlns="http://www.w3.org/2000/svg">
<path fill-rule="evenodd" clip-rule="evenodd" d="M1.22711 6.33121C0.449271 7.17286 0 8.45889 0 10.1422V69.8452C0 71.5285 0.44927 72.8145 1.25394 73.6225L1.46181 73.8043L34.775 40.3539V39.6065L1.43499 6.14941L1.22711 6.33121Z" fill="url(#paint0_linear_43_42688)"/>
<path fill-rule="evenodd" clip-rule="evenodd" d="M45.8597 51.5376L34.7485 40.3808V39.5997L45.8597 28.4429L46.1011 28.591L59.244 36.0917C63.0059 38.2194 63.0059 41.7341 59.244 43.8888L46.1011 51.3895L45.8597 51.5376Z" fill="url(#paint1_linear_43_42688)"/>
<path fill-rule="evenodd" clip-rule="evenodd" d="M46.1006 51.3895L34.7481 39.9902L1.22705 73.6493C2.45417 74.969 4.51277 75.1172 6.81277 73.8311L46.1006 51.3895Z" fill="url(#paint2_linear_43_42688)"/>
<path fill-rule="evenodd" clip-rule="evenodd" d="M46.1006 28.5908L6.81277 6.18286C4.51277 4.86315 2.44746 5.04495 1.22705 6.36465L34.7481 39.9901L46.1006 28.5908Z" fill="url(#paint3_linear_43_42688)"/>
<path d="M82.2261 14.0615V16.0303C82.2261 19.2412 83.6089 21.0342 86.0581 21.0342C88.144 21.0342 89.5269 19.7217 89.562 17.8467H92.1519V18.0225C92.1519 21.1162 89.5737 23.3193 86.0464 23.3193C81.9214 23.3193 79.5425 20.5771 79.5425 16.0186V14.0615C79.5425 9.46777 81.9214 6.69043 86.0464 6.69043C89.5854 6.69043 92.1519 8.96387 92.1519 12.21V12.3857H89.562C89.5269 10.3818 88.144 8.9873 86.0581 8.9873C83.6089 8.9873 82.2261 10.8037 82.2261 14.0615ZM97.6597 17.6006H97.5542V23.0029H94.9644V10.6162H97.5542V15.6318H97.6479L102.171 10.6162H105.312L99.9683 16.4873L105.628 23.0029H102.394L97.6597 17.6006ZM110.679 23.1904C108.277 23.1904 106.625 21.749 106.625 19.4404C106.625 17.2373 108.148 15.8428 110.996 15.8428H114.136V14.6592C114.136 13.2412 113.292 12.4561 111.839 12.4561C110.421 12.4561 109.613 13.1943 109.519 14.2959H107.082C107.187 12.1865 108.593 10.4287 111.898 10.4287C114.652 10.4287 116.703 11.7998 116.703 14.5654V23.0029H114.23V21.4795H114.136C113.597 22.4287 112.507 23.1904 110.679 23.1904ZM111.464 21.21C112.976 21.21 114.136 20.2725 114.136 18.9248V17.5537H111.441C109.929 17.5537 109.238 18.2686 109.238 19.2998C109.238 20.5889 110.316 21.21 111.464 21.21ZM130.05 23.0029H127.449V18.0107H127.308C127.132 18.1514 125.972 18.7959 124.32 18.7959C121.273 18.7959 119.914 17.0967 119.914 14.5303V10.6162H122.515V14.3428C122.515 15.7373 123.324 16.6279 124.894 16.6279C126.464 16.6279 127.39 15.9834 127.449 15.9131V10.6162H130.05V23.0029ZM136.976 23.1904C134.574 23.1904 132.921 21.749 132.921 19.4404C132.921 17.2373 134.445 15.8428 137.292 15.8428H140.433V14.6592C140.433 13.2412 139.589 12.4561 138.136 12.4561C136.718 12.4561 135.91 13.1943 135.816 14.2959H133.378C133.484 12.1865 134.89 10.4287 138.195 10.4287C140.949 10.4287 143 11.7998 143 14.5654V23.0029H140.527V21.4795H140.433C139.894 22.4287 138.804 23.1904 136.976 23.1904ZM137.761 21.21C139.273 21.21 140.433 20.2725 140.433 18.9248V17.5537H137.738C136.226 17.5537 135.535 18.2686 135.535 19.2998C135.535 20.5889 136.613 21.21 137.761 21.21ZM155.492 12.6436H151.625V23.0029H149.035V12.6436H145.167V10.6162H155.492V12.6436ZM157.824 23.0029V10.6162H160.414V14.6709H162.5C165.406 14.6709 167.257 16.2764 167.257 18.8428C167.257 21.3857 165.406 23.0029 162.5 23.0029H157.824ZM162.23 16.6748H160.402V20.999H162.242C163.707 20.999 164.667 20.1318 164.667 18.8193C164.667 17.5068 163.707 16.6748 162.23 16.6748ZM174.699 23.0029V10.6162H180.253C182.539 10.6162 184.097 11.8232 184.097 13.7568C184.097 15.2217 183.242 16.124 182.023 16.417V16.499C183.652 16.6982 184.753 17.7881 184.753 19.5107C184.753 21.7959 182.796 23.0029 180.171 23.0029H174.699ZM177.242 12.4561V15.749H179.281C180.804 15.749 181.578 15.21 181.578 14.0146C181.578 12.96 180.746 12.4561 179.644 12.4561H177.242ZM177.242 17.5068V21.1631H179.585C181.121 21.1631 182.187 20.7295 182.187 19.3584C182.187 18.1514 181.25 17.5068 179.796 17.5068H177.242Z" fill="#25252F"/>
<path fill-rule="evenodd" clip-rule="evenodd" d="M151.047 46.7555C144.71 46.7555 139.574 51.5832 139.574 58.2423C139.574 64.8408 144.744 69.7291 151.047 69.7291C157.384 69.7291 162.52 64.8678 162.52 58.2423C162.52 51.5832 157.384 46.7555 151.047 46.7555ZM151.047 65.1775C147.58 65.1775 144.596 62.2957 144.596 58.2154C144.596 54.0745 147.587 51.2533 151.047 51.2533C154.514 51.2533 157.498 54.0745 157.498 58.2154C157.505 62.3226 154.514 65.1775 151.047 65.1775ZM126.015 46.7555C119.679 46.7555 114.542 51.5832 114.542 58.2423C114.542 64.8408 119.712 69.7291 126.015 69.7291C132.352 69.7291 137.489 64.8678 137.489 58.2423C137.489 51.5832 132.345 46.7555 126.015 46.7555ZM126.015 65.1775C122.549 65.1775 119.565 62.2957 119.565 58.2154C119.565 54.0745 122.555 51.2533 126.015 51.2533C129.482 51.2533 132.466 54.0745 132.466 58.2154C132.466 62.3226 129.482 65.1775 126.015 65.1775ZM96.2293 50.2635V55.1249H107.85C107.495 57.8518 106.596 59.865 105.221 61.2453C103.518 62.9555 100.89 64.8139 96.2561 64.8139C89.1147 64.8139 83.529 59.0234 83.529 51.8526C83.529 44.6817 89.1147 38.8912 96.2561 38.8912C100.112 38.8912 102.921 40.4196 105.007 42.3723L108.44 38.9249C105.543 36.1373 101.688 34.0029 96.283 34.0029C86.4861 34.0029 78.2651 42.0154 78.2651 51.8256C78.2651 61.6628 86.4794 69.6483 96.283 69.6483C101.574 69.6483 105.543 67.9112 108.682 64.6388C111.88 61.4271 112.893 56.8957 112.893 53.2396C112.893 52.1017 112.805 51.0782 112.624 50.2097H96.2226C96.2293 50.2029 96.2293 50.2635 96.2293 50.2635ZM218.063 54.0476C217.104 51.4688 214.207 46.7286 208.266 46.7286C202.378 46.7286 197.483 51.3812 197.483 58.2154C197.483 64.6658 202.325 69.7022 208.836 69.7022C214.066 69.7022 217.11 66.4905 218.364 64.6052L214.482 61.9927C213.194 63.9117 211.404 65.1708 208.862 65.1708C206.294 65.1708 204.497 63.9992 203.304 61.6897L218.599 55.3269C218.599 55.3336 218.063 54.0476 218.063 54.0476ZM202.465 57.8855C202.345 53.4483 205.899 51.1927 208.44 51.1927C210.445 51.1927 212.115 52.1825 212.685 53.6234L202.465 57.8855ZM190.04 69.0154H195.062V35.2688H190.04V69.0154ZM181.792 49.3074H181.611C180.478 47.9541 178.325 46.7286 175.576 46.7286C169.87 46.7286 164.613 51.7718 164.613 58.2491C164.613 64.6994 169.843 69.682 175.576 69.682C178.292 69.682 180.478 68.4498 181.611 67.0695H181.792V68.7191C181.792 73.1024 179.459 75.4658 175.697 75.4658C172.619 75.4658 170.708 73.2438 169.93 71.3855L165.565 73.2169C166.819 76.2468 170.165 79.9972 175.69 79.9972C181.578 79.9972 186.567 76.5161 186.567 68.0256V47.4154H181.819V49.3074C181.826 49.3074 181.792 49.3074 181.792 49.3074ZM176.025 65.1775C172.559 65.1775 169.662 62.2688 169.662 58.2491C169.662 54.1957 172.559 51.26 176.025 51.26C179.459 51.26 182.121 54.2294 182.121 58.2491C182.154 62.2688 179.465 65.1775 176.025 65.1775ZM241.579 35.2688H229.569V69.0154H234.592V56.2358H241.586C247.145 56.2358 252.61 52.1892 252.61 45.7658C252.61 39.3423 247.165 35.2688 241.579 35.2688ZM241.726 51.5226H234.585V39.9416H241.726C245.488 39.9416 247.614 43.059 247.614 45.7321C247.614 48.3782 245.461 51.5226 241.726 51.5226ZM272.74 46.6949C269.092 46.6949 265.33 48.3176 263.774 51.8526L268.227 53.7109C269.186 51.8526 270.942 51.2196 272.8 51.2196C275.402 51.2196 278.03 52.7817 278.091 55.5693V55.9261C277.192 55.4144 275.221 54.6334 272.86 54.6334C268.052 54.6334 263.177 57.2728 263.177 62.2216C263.177 66.753 267.12 69.6618 271.512 69.6618C274.885 69.6618 276.743 68.1334 277.903 66.3625H278.084V68.975H282.925V56.0473C282.925 50.0279 278.473 46.6949 272.74 46.6949ZM272.109 65.1775C270.466 65.1775 268.166 64.3695 268.166 62.2957C268.166 59.6832 271.036 58.6934 273.484 58.6934C275.697 58.6934 276.743 59.1715 278.057 59.8314C277.695 62.8613 275.147 65.1506 272.109 65.1775ZM300.588 47.4154L294.821 62.0533H294.64L288.665 47.4154H283.261L292.226 67.8775L287.116 79.2498H292.347L306.14 47.4154H300.588ZM255.379 69.0154H260.401V35.2688H255.379V69.0154Z" fill="black"/>
<defs>
<linearGradient id="paint0_linear_43_42688" x1="31.7868" y1="9.49805" x2="-21.6041" y2="23.6658" gradientUnits="userSpaceOnUse">
<stop stop-color="#00A0FF"/>
<stop offset="0.00657" stop-color="#00A1FF"/>
<stop offset="0.2601" stop-color="#00BEFF"/>
<stop offset="0.5122" stop-color="#00D2FF"/>
<stop offset="0.7604" stop-color="#00DFFF"/>
<stop offset="1" stop-color="#00E3FF"/>
</linearGradient>
<linearGradient id="paint1_linear_43_42688" x1="64.1498" y1="39.9904" x2="-0.914096" y2="39.9904" gradientUnits="userSpaceOnUse">
<stop stop-color="#FFE000"/>
<stop offset="0.4087" stop-color="#FFBD00"/>
<stop offset="0.7754" stop-color="#FFA500"/>
<stop offset="1" stop-color="#FF9C00"/>
</linearGradient>
<linearGradient id="paint2_linear_43_42688" x1="39.9275" y1="46.1931" x2="-3.17197" y2="118.436" gradientUnits="userSpaceOnUse">
<stop stop-color="#FF3A44"/>
<stop offset="1" stop-color="#C31162"/>
</linearGradient>
<linearGradient id="paint3_linear_43_42688" x1="-7.21391" y1="-13.5272" x2="12.0146" y2="18.7375" gradientUnits="userSpaceOnUse">
<stop stop-color="#32A071"/>
<stop offset="0.0685" stop-color="#2DA771"/>
<stop offset="0.4762" stop-color="#15CF74"/>
<stop offset="0.8009" stop-color="#06E775"/>
<stop offset="1" stop-color="#00F076"/>
</linearGradient>
</defs>
</svg>
