<svg width="213" height="49" viewBox="0 0 213 49" fill="none" xmlns="http://www.w3.org/2000/svg">
<path fill-rule="evenodd" clip-rule="evenodd" d="M0.852163 1.11843C0.311994 1.70291 0 2.59599 0 3.76494V45.2254C0 46.3943 0.311993 47.2874 0.870789 47.8485L1.01514 47.9747L24.1493 24.7453V24.2263L0.996518 0.992188L0.852163 1.11843Z" fill="url(#paint0_linear_43_42642)"/>
<path fill-rule="evenodd" clip-rule="evenodd" d="M31.8464 32.5126L24.1304 24.7648V24.2224L31.8464 16.4746L32.0141 16.5775L41.1411 21.7863C43.7535 23.2639 43.7535 25.7047 41.1411 27.2009L32.0141 32.4098L31.8464 32.5126Z" fill="url(#paint1_linear_43_42642)"/>
<path fill-rule="evenodd" clip-rule="evenodd" d="M32.0147 32.4091L24.131 24.4929L0.852539 47.8673C1.7047 48.7838 3.13429 48.8866 4.73151 47.9935L32.0147 32.4091Z" fill="url(#paint2_linear_43_42642)"/>
<path fill-rule="evenodd" clip-rule="evenodd" d="M32.0147 16.5768L4.73151 1.01565C3.13429 0.0991957 1.70005 0.225443 0.852539 1.1419L24.131 24.4929L32.0147 16.5768Z" fill="url(#paint3_linear_43_42642)"/>
<path fill-rule="evenodd" clip-rule="evenodd" d="M104.893 17.3858C100.493 17.3858 96.9257 20.7383 96.9257 25.3627C96.9257 29.945 100.516 33.3396 104.893 33.3396C109.294 33.3396 112.861 29.9637 112.861 25.3627C112.861 20.7383 109.294 17.3858 104.893 17.3858ZM104.893 30.1788C102.486 30.1788 100.414 28.1775 100.414 25.344C100.414 22.4684 102.49 20.5092 104.893 20.5092C107.301 20.5092 109.373 22.4684 109.373 25.344C109.378 28.1962 107.301 30.1788 104.893 30.1788ZM87.51 17.3858C83.1095 17.3858 79.5425 20.7383 79.5425 25.3627C79.5425 29.945 83.1328 33.3396 87.51 33.3396C91.9105 33.3396 95.4775 29.9637 95.4775 25.3627C95.4775 20.7383 91.9059 17.3858 87.51 17.3858ZM87.51 30.1788C85.1025 30.1788 83.0303 28.1775 83.0303 25.344C83.0303 22.4684 85.1072 20.5092 87.51 20.5092C89.9175 20.5092 91.9897 22.4684 91.9897 25.344C91.9897 28.1962 89.9175 30.1788 87.51 30.1788ZM66.8252 19.8219V23.1978H74.8952C74.6484 25.0915 74.0244 26.4896 73.0698 27.4481C71.887 28.6358 70.0616 29.9263 66.8439 29.9263C61.8845 29.9263 58.0056 25.9051 58.0056 20.9254C58.0056 15.9456 61.8845 11.9244 66.8439 11.9244C69.5214 11.9244 71.4725 12.9858 72.9208 14.3418L75.305 11.9478C73.2933 10.012 70.6157 8.52979 66.8625 8.52979C60.0591 8.52979 54.3501 14.094 54.3501 20.9067C54.3501 27.738 60.0545 33.2835 66.8625 33.2835C70.5366 33.2835 73.2933 32.0772 75.4726 29.8047C77.6938 27.5744 78.397 24.4275 78.397 21.8886C78.397 21.0984 78.3364 20.3876 78.2107 19.7845H66.8206C66.8252 19.7798 66.8252 19.8219 66.8252 19.8219ZM151.432 22.4497C150.766 20.6588 148.754 17.3671 144.628 17.3671C140.54 17.3671 137.14 20.5981 137.14 25.344C137.14 29.8234 140.502 33.3209 145.024 33.3209C148.656 33.3209 150.77 31.0906 151.641 29.7813L148.945 27.9671C148.051 29.2997 146.808 30.1741 145.043 30.1741C143.259 30.1741 142.011 29.3605 141.182 27.7567L151.804 23.3381C151.804 23.3428 151.432 22.4497 151.432 22.4497ZM140.6 25.1149C140.516 22.0335 142.984 20.4671 144.749 20.4671C146.142 20.4671 147.301 21.1545 147.697 22.1551L140.6 25.1149ZM131.972 32.844H135.459V9.40884H131.972V32.844ZM126.244 19.1579H126.118C125.331 18.2181 123.836 17.3671 121.927 17.3671C117.964 17.3671 114.314 20.8692 114.314 25.3674C114.314 29.8468 117.946 33.3069 121.927 33.3069C123.813 33.3069 125.331 32.4512 126.118 31.4927H126.244V32.6383C126.244 35.6822 124.623 37.3234 122.011 37.3234C119.874 37.3234 118.546 35.7804 118.006 34.4899L114.975 35.7617C115.846 37.8658 118.169 40.4702 122.006 40.4702C126.095 40.4702 129.559 38.0529 129.559 32.1567V17.844H126.263V19.1579C126.267 19.1579 126.244 19.1579 126.244 19.1579ZM122.239 30.1788C119.832 30.1788 117.82 28.1588 117.82 25.3674C117.82 22.5525 119.832 20.5139 122.239 20.5139C124.623 20.5139 126.472 22.5759 126.472 25.3674C126.495 28.1588 124.628 30.1788 122.239 30.1788ZM167.762 9.40884H159.422V32.844H162.91V23.9693H167.767C171.627 23.9693 175.423 21.1592 175.423 16.6984C175.423 12.2377 171.641 9.40884 167.762 9.40884ZM167.865 20.6962H162.906V12.6539H167.865C170.477 12.6539 171.953 14.8188 171.953 16.675C171.953 18.5126 170.459 20.6962 167.865 20.6962ZM189.402 17.3437C186.869 17.3437 184.256 18.4706 183.176 20.9254L186.268 22.2159C186.934 20.9254 188.154 20.4858 189.444 20.4858C191.251 20.4858 193.076 21.5706 193.118 23.5064V23.7542C192.494 23.3989 191.125 22.8565 189.486 22.8565C186.147 22.8565 182.761 24.6894 182.761 28.1261C182.761 31.2729 185.5 33.2929 188.55 33.2929C190.892 33.2929 192.182 32.2315 192.987 31.0017H193.113V32.8159H196.475V23.8384C196.475 19.6582 193.383 17.3437 189.402 17.3437ZM188.964 30.1788C187.823 30.1788 186.226 29.6177 186.226 28.1775C186.226 26.3633 188.219 25.676 189.919 25.676C191.455 25.676 192.182 26.008 193.095 26.4662C192.843 28.5703 191.074 30.1601 188.964 30.1788ZM208.741 17.844L204.736 28.0092H204.61L200.461 17.844H196.708L202.934 32.0538L199.386 39.9512H203.018L212.597 17.844H208.741ZM177.346 32.844H180.834V9.40884H177.346V32.844Z" fill="black"/>
<defs>
<linearGradient id="paint0_linear_43_42642" x1="22.0742" y1="3.31763" x2="-15.0028" y2="13.1563" gradientUnits="userSpaceOnUse">
<stop stop-color="#00A0FF"/>
<stop offset="0.00657" stop-color="#00A1FF"/>
<stop offset="0.2601" stop-color="#00BEFF"/>
<stop offset="0.5122" stop-color="#00D2FF"/>
<stop offset="0.7604" stop-color="#00DFFF"/>
<stop offset="1" stop-color="#00E3FF"/>
</linearGradient>
<linearGradient id="paint1_linear_43_42642" x1="44.5479" y1="24.4937" x2="-0.635343" y2="24.4937" gradientUnits="userSpaceOnUse">
<stop stop-color="#FFE000"/>
<stop offset="0.4087" stop-color="#FFBD00"/>
<stop offset="0.7754" stop-color="#FFA500"/>
<stop offset="1" stop-color="#FF9C00"/>
</linearGradient>
<linearGradient id="paint2_linear_43_42642" x1="27.7279" y1="28.8004" x2="-2.20233" y2="78.9688" gradientUnits="userSpaceOnUse">
<stop stop-color="#FF3A44"/>
<stop offset="1" stop-color="#C31162"/>
</linearGradient>
<linearGradient id="paint3_linear_43_42642" x1="-5.00924" y1="-12.6719" x2="8.34387" y2="9.73418" gradientUnits="userSpaceOnUse">
<stop stop-color="#32A071"/>
<stop offset="0.0685" stop-color="#2DA771"/>
<stop offset="0.4762" stop-color="#15CF74"/>
<stop offset="0.8009" stop-color="#06E775"/>
<stop offset="1" stop-color="#00F076"/>
</linearGradient>
</defs>
</svg>
