<svg width="174" height="53" viewBox="0 0 174 53" fill="none" xmlns="http://www.w3.org/2000/svg">
<g clip-path="url(#clip0_172_166303)">
<mask id="mask0_172_166303" style="mask-type:luminance" maskUnits="userSpaceOnUse" x="0" y="6" width="40" height="41">
<path d="M40 6.16113H0V46.1611H40V6.16113Z" fill="white"/>
</mask>
<g mask="url(#mask0_172_166303)">
<path d="M22.9163 17.4116C22.9163 18.1854 22.6089 18.9275 22.0619 19.4746C21.5147 20.0218 20.7725 20.3291 19.9988 20.3291C19.225 20.3291 18.483 20.0218 17.9358 19.4746C17.3887 18.9275 17.0813 18.1854 17.0813 17.4116C17.0813 16.6379 17.3887 15.8958 17.9358 15.3487C18.483 14.8015 19.225 14.4941 19.9988 14.4941C20.7725 14.4941 21.5147 14.8015 22.0619 15.3487C22.6089 15.8958 22.9163 16.6379 22.9163 17.4116Z" fill="#4887FF"/>
<path d="M20 6.16113C14.6957 6.16113 9.6086 8.26827 5.85786 12.019C2.10714 15.7697 0 20.8568 0 26.1611C0 31.4655 2.10714 36.5525 5.85786 40.3033C9.6086 44.0539 14.6957 46.1611 20 46.1611C25.3044 46.1611 30.3914 44.0539 34.1422 40.3033C37.8928 36.5525 40 31.4655 40 26.1611C40 20.8568 37.8928 15.7697 34.1422 12.019C30.3914 8.26827 25.3044 6.16113 20 6.16113ZM2.5 26.1611C2.5 21.5199 4.34374 17.0687 7.62564 13.7868C10.9075 10.5049 15.3587 8.66113 20 8.66113C22.3206 8.66113 24.5462 9.58301 26.1872 11.224C27.8282 12.8649 28.75 15.0905 28.75 17.4111C28.75 19.7318 27.8282 21.9574 26.1872 23.5983C24.5462 25.2393 22.3206 26.1611 20 26.1611C17.6794 26.1611 15.4538 27.0829 13.8128 28.7239C12.1719 30.3649 11.25 32.5905 11.25 34.9111C11.25 37.2317 12.1719 39.4573 13.8128 41.0983C15.4538 42.7393 17.6794 43.6611 20 43.6611C15.3587 43.6611 10.9075 41.8173 7.62564 38.5355C4.34374 35.2535 2.5 30.8023 2.5 26.1611Z" fill="#4887FF"/>
<path d="M20 6.16113C14.6957 6.16113 9.6086 8.26827 5.85786 12.019C2.10714 15.7697 0 20.8568 0 26.1611C0 31.4655 2.10714 36.5525 5.85786 40.3033C9.6086 44.0539 14.6957 46.1611 20 46.1611C25.3044 46.1611 30.3914 44.0539 34.1422 40.3033C37.8928 36.5525 40 31.4655 40 26.1611C40 20.8568 37.8928 15.7697 34.1422 12.019C30.3914 8.26827 25.3044 6.16113 20 6.16113ZM2.5 26.1611C2.5 21.5199 4.34374 17.0687 7.62564 13.7868C10.9075 10.5049 15.3587 8.66113 20 8.66113C22.3206 8.66113 24.5462 9.58301 26.1872 11.224C27.8282 12.8649 28.75 15.0905 28.75 17.4111C28.75 19.7318 27.8282 21.9574 26.1872 23.5983C24.5462 25.2393 22.3206 26.1611 20 26.1611C17.6794 26.1611 15.4538 27.0829 13.8128 28.7239C12.1719 30.3649 11.25 32.5905 11.25 34.9111C11.25 37.2317 12.1719 39.4573 13.8128 41.0983C15.4538 42.7393 17.6794 43.6611 20 43.6611C15.3587 43.6611 10.9075 41.8173 7.62564 38.5355C4.34374 35.2535 2.5 30.8023 2.5 26.1611Z" fill="#0057FC"/>
<path d="M20 6.16113C14.6957 6.16113 9.6086 8.26827 5.85786 12.019C2.10714 15.7697 0 20.8568 0 26.1611C0 31.4655 2.10714 36.5525 5.85786 40.3033C9.6086 44.0539 14.6957 46.1611 20 46.1611C25.3044 46.1611 30.3914 44.0539 34.1422 40.3033C37.8928 36.5525 40 31.4655 40 26.1611C40 20.8568 37.8928 15.7697 34.1422 12.019C30.3914 8.26827 25.3044 6.16113 20 6.16113ZM2.5 26.1611C2.5 21.5199 4.34374 17.0687 7.62564 13.7868C10.9075 10.5049 15.3587 8.66113 20 8.66113C22.3206 8.66113 24.5462 9.58301 26.1872 11.224C27.8282 12.8649 28.75 15.0905 28.75 17.4111C28.75 19.7318 27.8282 21.9574 26.1872 23.5983C24.5462 25.2393 22.3206 26.1611 20 26.1611C17.6794 26.1611 15.4538 27.0829 13.8128 28.7239C12.1719 30.3649 11.25 32.5905 11.25 34.9111C11.25 37.2317 12.1719 39.4573 13.8128 41.0983C15.4538 42.7393 17.6794 43.6611 20 43.6611C15.3587 43.6611 10.9075 41.8173 7.62564 38.5355C4.34374 35.2535 2.5 30.8023 2.5 26.1611Z" fill="url(#paint0_linear_172_166303)"/>
<path d="M2.5 26.1611C2.5 21.5199 4.34374 17.0687 7.62564 13.7868C10.9075 10.5049 15.3587 8.66113 20 8.66113C22.3206 8.66113 24.5462 9.58301 26.1872 11.224C27.8282 12.8649 28.75 15.0905 28.75 17.4111C28.75 19.7318 27.8282 21.9574 26.1872 23.5983C24.5462 25.2393 22.3206 26.1611 20 26.1611C17.6794 26.1611 15.4538 27.0829 13.8128 28.7239C12.1719 30.3649 11.25 32.5905 11.25 34.9111C11.25 37.2317 12.1719 39.4573 13.8128 41.0983C15.4538 42.7393 17.6794 43.6611 20 43.6611C15.3587 43.6611 10.9075 41.8173 7.62564 38.5355C4.34374 35.2535 2.5 30.8023 2.5 26.1611Z" fill="white"/>
<path d="M14.6764 17.925C14.4517 17.9084 14.3476 17.7628 14.3643 17.4881C14.3726 17.4216 14.4184 17.3425 14.5016 17.2509C14.5848 17.1511 14.6805 17.097 14.7887 17.0887C15.0467 17.0637 15.3629 17.0262 15.7374 16.9763C16.1202 16.9181 16.5405 16.8515 16.9982 16.7766C17.0814 16.3688 17.1813 15.9402 17.2978 15.4908C17.4143 15.0414 17.5433 14.6045 17.6848 14.1801C17.8263 13.7473 17.9761 13.3562 18.1342 13.0067C18.2923 12.6571 18.4588 12.3825 18.6335 12.1828C18.7251 12.0912 18.8083 12.0288 18.8832 11.9955C18.9581 11.9539 19.0247 11.9331 19.0829 11.9331C19.1994 11.9331 19.291 11.983 19.3576 12.0829C19.4325 12.1828 19.4699 12.2951 19.4699 12.4199C19.4699 12.4865 19.4574 12.5531 19.4325 12.6197C19.266 13.0857 19.0871 13.6599 18.8957 14.3424C18.7043 15.0248 18.5004 15.7696 18.284 16.5769C19.0497 16.452 18.9435 16.4811 19.7091 16.3396C20.4749 16.1981 21.1322 16.0691 21.6814 15.9526C21.8396 15.886 21.9603 15.8985 22.0435 15.9901C22.1351 16.0816 22.1808 16.1731 22.1808 16.2647C22.1808 16.3812 22.1474 16.4686 22.0808 16.5268C22.0226 16.5851 21.9603 16.635 21.8937 16.6766L21.8812 16.6891C21.7148 16.7557 21.4651 16.8348 21.1323 16.9263C20.7993 17.0095 20.4165 17.1011 19.9838 17.2009C19.551 17.2925 19.0891 17.384 19.4699 17.3134C18.9872 17.4049 18.5087 17.4881 18.0343 17.563C17.8429 18.2954 17.6473 19.0485 17.4476 19.8225C17.2562 20.5881 17.2662 20.4664 17.1172 21.3014C16.9682 22.1364 17.7065 21.868 18.1092 21.7338C18.5118 21.5995 19.2129 21.1029 20.1226 20.4896C20.4984 20.2361 20.699 20.1499 20.8726 20.121C21.2752 20.0539 21.2752 20.3895 20.9396 20.7922C20.8054 20.9532 20.6042 21.1948 20.1226 21.5995C19.2034 22.3719 18.4447 22.8747 17.2366 22.8747C16.7016 22.8747 15.9651 22.472 16.1185 21.2265C16.2971 19.778 16.786 17.7503 16.786 17.7503C16.2867 17.8252 15.8456 17.8793 15.4628 17.9126C15.0883 17.9458 14.8262 17.95 14.6764 17.925Z" fill="#4887FF"/>
<path d="M14.6764 17.925C14.4517 17.9084 14.3476 17.7628 14.3643 17.4881C14.3726 17.4216 14.4184 17.3425 14.5016 17.2509C14.5848 17.1511 14.6805 17.097 14.7887 17.0887C15.0467 17.0637 15.3629 17.0262 15.7374 16.9763C16.1202 16.9181 16.5405 16.8515 16.9982 16.7766C17.0814 16.3688 17.1813 15.9402 17.2978 15.4908C17.4143 15.0414 17.5433 14.6045 17.6848 14.1801C17.8263 13.7473 17.9761 13.3562 18.1342 13.0067C18.2923 12.6571 18.4588 12.3825 18.6335 12.1828C18.7251 12.0912 18.8083 12.0288 18.8832 11.9955C18.9581 11.9539 19.0247 11.9331 19.0829 11.9331C19.1994 11.9331 19.291 11.983 19.3576 12.0829C19.4325 12.1828 19.4699 12.2951 19.4699 12.4199C19.4699 12.4865 19.4574 12.5531 19.4325 12.6197C19.266 13.0857 19.0871 13.6599 18.8957 14.3424C18.7043 15.0248 18.5004 15.7696 18.284 16.5769C19.0497 16.452 18.9435 16.4811 19.7091 16.3396C20.4749 16.1981 21.1322 16.0691 21.6814 15.9526C21.8396 15.886 21.9603 15.8985 22.0435 15.9901C22.1351 16.0816 22.1808 16.1731 22.1808 16.2647C22.1808 16.3812 22.1474 16.4686 22.0808 16.5268C22.0226 16.5851 21.9603 16.635 21.8937 16.6766L21.8812 16.6891C21.7148 16.7557 21.4651 16.8348 21.1323 16.9263C20.7993 17.0095 20.4165 17.1011 19.9838 17.2009C19.551 17.2925 19.0891 17.384 19.4699 17.3134C18.9872 17.4049 18.5087 17.4881 18.0343 17.563C17.8429 18.2954 17.6473 19.0485 17.4476 19.8225C17.2562 20.5881 17.2662 20.4664 17.1172 21.3014C16.9682 22.1364 17.7065 21.868 18.1092 21.7338C18.5118 21.5995 19.2129 21.1029 20.1226 20.4896C20.4984 20.2361 20.699 20.1499 20.8726 20.121C21.2752 20.0539 21.2752 20.3895 20.9396 20.7922C20.8054 20.9532 20.6042 21.1948 20.1226 21.5995C19.2034 22.3719 18.4447 22.8747 17.2366 22.8747C16.7016 22.8747 15.9651 22.472 16.1185 21.2265C16.2971 19.778 16.786 17.7503 16.786 17.7503C16.2867 17.8252 15.8456 17.8793 15.4628 17.9126C15.0883 17.9458 14.8262 17.95 14.6764 17.925Z" fill="#143CB1"/>
<path d="M23.9499 33.384C23.9499 33.6504 23.8667 33.9126 23.7003 34.1706C23.5339 34.4202 23.3133 34.6616 23.0387 34.8946C22.7641 35.1192 22.4603 35.3314 22.1273 35.5312C21.7945 35.731 21.4617 35.9056 21.1287 36.0554C20.7959 36.2052 20.4921 36.326 20.2175 36.4174C20.1509 36.742 20.1175 37.0292 20.1175 37.2788C20.1175 37.437 20.1551 37.5494 20.2299 37.6158C20.3049 37.6824 20.4213 37.7158 20.5795 37.7158C20.9289 37.7158 21.2993 37.6534 21.6905 37.5286C22.0817 37.4036 22.4811 37.2414 22.8889 37.0416C23.2967 36.842 23.6877 36.6298 24.0623 36.405C24.4367 36.1804 24.7779 35.968 25.0859 35.7684C25.4021 35.5686 25.6643 35.4064 25.8723 35.2816C26.0805 35.1566 26.2177 35.0942 26.2843 35.0942C26.3841 35.0942 26.4591 35.1276 26.5089 35.1942C26.5673 35.2524 26.5963 35.3232 26.5963 35.4064C26.5963 35.473 26.4923 35.602 26.2843 35.7934C26.0845 35.9848 25.8141 36.2094 25.4729 36.4674C25.1317 36.717 24.7489 36.975 24.3245 37.2414C23.9001 37.5076 23.4589 37.7574 23.0013 37.9904C22.5519 38.2234 22.1149 38.4106 21.6905 38.5522C21.2743 38.6936 20.8999 38.7644 20.5669 38.7644C20.1343 38.7644 19.7972 38.602 19.5559 38.2776C19.3145 37.953 19.1938 37.4494 19.1938 36.767C19.1938 36.3094 19.2521 35.8474 19.3686 35.3814C19.4934 34.9154 19.6599 34.4702 19.8679 34.0456C20.0843 33.613 20.3215 33.2302 20.5795 32.8972C20.8457 32.556 21.1245 32.2898 21.4159 32.0982C21.7071 31.8986 21.9901 31.7988 22.2647 31.7988C22.7889 31.7988 23.2009 31.9444 23.5005 32.2356C23.8001 32.5268 23.9499 32.9098 23.9499 33.384ZM20.5669 35.2816C20.8249 35.1234 21.0039 35.1318 21.2785 34.957C21.5531 34.7822 21.8069 34.6032 22.0401 34.4202C22.2731 34.237 22.4603 34.0456 22.6017 33.846C22.7515 33.6378 22.8265 33.4256 22.8265 33.2094C22.8265 32.9014 22.6601 32.7474 22.3271 32.7474C22.1191 32.7474 21.8985 32.8806 21.6655 33.1468C21.4409 33.4048 21.2245 33.742 21.0163 34.158C20.8083 34.5742 20.7167 34.8322 20.5669 35.2816Z" fill="white"/>
</g>
</g>
<path d="M59.5352 35.1611H56.8984V21.4385H52.1992V19.165H64.2344V21.4385H59.5352V35.1611ZM65.0664 35.1611V22.7744H67.668V24.4033H67.7617C67.8633 24.1455 68.0352 23.876 68.2773 23.5947C68.5273 23.3135 68.8555 23.0791 69.2617 22.8916C69.668 22.6963 70.1562 22.5986 70.7266 22.5986C70.8984 22.5986 71.0547 22.6064 71.1953 22.6221C71.3438 22.6299 71.4805 22.6455 71.6055 22.6689V24.9658C71.4883 24.9346 71.3281 24.9111 71.125 24.8955C70.9219 24.8799 70.7109 24.8721 70.4922 24.8721C69.7969 24.8721 69.2461 25.0049 68.8398 25.2705C68.4336 25.5283 68.1406 25.8799 67.9609 26.3252C67.7891 26.7705 67.7031 27.2705 67.7031 27.8252V35.1611H65.0664ZM84.4492 22.7744V35.1611H81.8945V33.4385H81.7773C81.6445 33.7588 81.4258 34.0674 81.1211 34.3643C80.8164 34.6611 80.4219 34.8994 79.9375 35.0791C79.4531 35.2588 78.875 35.3486 78.2031 35.3486C77.3594 35.3486 76.6133 35.1885 75.9648 34.8682C75.3164 34.54 74.8086 34.0557 74.4414 33.415C74.082 32.7744 73.9023 31.9736 73.9023 31.0127V22.7744H76.5039V30.2979C76.5039 31.0166 76.625 31.583 76.8672 31.9971C77.1172 32.4033 77.4414 32.6885 77.8398 32.8525C78.2383 33.0166 78.6719 33.0986 79.1406 33.0986C79.6641 33.0986 80.1289 32.9932 80.5352 32.7822C80.9414 32.5635 81.2617 32.2432 81.4961 31.8213C81.7305 31.3994 81.8477 30.8799 81.8477 30.2627V22.7744H84.4492ZM90.332 35.1611H87.9414V19.165H90.6133L95.5 30.415H95.582L100.469 19.165H103.129V35.1611H100.727V24.1104H100.621L96.4844 33.4619H94.5742L90.4258 24.1104H90.332V35.1611ZM111.543 35.3721C110.441 35.3721 109.484 35.1377 108.672 34.6689C107.859 34.2002 107.23 33.5283 106.785 32.6533C106.34 31.7783 106.117 30.7314 106.117 29.5127V28.2588C106.117 27.1025 106.336 26.0986 106.773 25.2471C107.211 24.3955 107.824 23.7354 108.613 23.2666C109.41 22.7979 110.352 22.5635 111.438 22.5635C112.539 22.5635 113.484 22.8057 114.273 23.29C115.07 23.7744 115.68 24.4502 116.102 25.3174C116.523 26.1846 116.734 27.2041 116.734 28.376V29.5596H108.684V29.8525C108.684 30.8916 108.945 31.7314 109.469 32.3721C109.992 33.0049 110.695 33.3213 111.578 33.3213C112.016 33.3213 112.406 33.2549 112.75 33.1221C113.094 32.9814 113.379 32.7822 113.605 32.5244C113.84 32.2588 114.012 31.9502 114.121 31.5986H116.594C116.5 32.0986 116.328 32.5752 116.078 33.0283C115.828 33.4814 115.492 33.8838 115.07 34.2354C114.656 34.5869 114.156 34.8643 113.57 35.0674C112.984 35.2705 112.309 35.3721 111.543 35.3721ZM108.684 27.7432H114.191C114.191 27.7354 114.191 27.7275 114.191 27.7197C114.191 27.1338 114.078 26.6064 113.852 26.1377C113.625 25.6611 113.305 25.2822 112.891 25.001C112.484 24.7197 112.004 24.5791 111.449 24.5791C110.895 24.5791 110.41 24.7197 109.996 25.001C109.582 25.2822 109.258 25.6611 109.023 26.1377C108.797 26.6064 108.684 27.1338 108.684 27.7197C108.684 27.7275 108.684 27.7354 108.684 27.7432ZM119.488 35.1611V22.7744H122.043V24.5088H122.137C122.277 24.2354 122.5 23.9502 122.805 23.6533C123.109 23.3564 123.504 23.1064 123.988 22.9033C124.48 22.6924 125.062 22.5869 125.734 22.5869C127.008 22.5869 128.051 22.9814 128.863 23.7705C129.676 24.5518 130.082 25.6963 130.082 27.2041V35.1611H127.492V27.7314C127.492 27.0596 127.375 26.5127 127.141 26.0908C126.906 25.6689 126.586 25.3564 126.18 25.1533C125.773 24.9502 125.312 24.8486 124.797 24.8486C124.188 24.8486 123.68 24.9814 123.273 25.2471C122.875 25.5049 122.574 25.8564 122.371 26.3018C122.176 26.7393 122.078 27.2314 122.078 27.7783V35.1611H119.488ZM148.105 32.9229V35.1611H138.121V19.165H148.105V21.4033H140.77V25.9619H147.684V28.1064H140.77V32.9229H148.105ZM153.602 35.1611L149.406 22.7744H152.172L155.02 32.3838H155.113L158.207 22.7744H160.867L156.508 35.1611H153.602ZM165.906 35.3486C164.703 35.3486 163.727 35.0127 162.977 34.3408C162.227 33.6689 161.852 32.7549 161.852 31.5986C161.852 30.5049 162.223 29.6338 162.965 28.9854C163.715 28.3291 164.801 28.001 166.223 28.001H169.363V26.8174C169.363 26.1143 169.16 25.5713 168.754 25.1885C168.355 24.8057 167.793 24.6143 167.066 24.6143C166.598 24.6143 166.195 24.6924 165.859 24.8486C165.523 24.9971 165.262 25.2119 165.074 25.4932C164.887 25.7666 164.777 26.0869 164.746 26.4541H162.309C162.34 25.9307 162.453 25.4346 162.648 24.9658C162.844 24.4971 163.133 24.0869 163.516 23.7354C163.906 23.376 164.398 23.0947 164.992 22.8916C165.594 22.6885 166.305 22.5869 167.125 22.5869C168.047 22.5869 168.867 22.7393 169.586 23.0439C170.312 23.3486 170.883 23.8057 171.297 24.415C171.719 25.0244 171.93 25.7939 171.93 26.7236V35.1611H169.457V33.6377H169.363C169.184 33.958 168.938 34.2471 168.625 34.5049C168.32 34.7627 167.941 34.9697 167.488 35.126C167.043 35.2744 166.516 35.3486 165.906 35.3486ZM166.691 33.3682C167.199 33.3682 167.652 33.2705 168.051 33.0752C168.457 32.8799 168.777 32.6104 169.012 32.2666C169.246 31.9229 169.363 31.5283 169.363 31.083V29.7119H166.668C165.91 29.7119 165.352 29.876 164.992 30.2041C164.641 30.5244 164.465 30.9424 164.465 31.458C164.465 32.1064 164.691 32.5869 165.145 32.8994C165.598 33.2119 166.113 33.3682 166.691 33.3682Z" fill="url(#paint1_linear_172_166303)"/>
<defs>
<linearGradient id="paint0_linear_172_166303" x1="2" y1="28.6611" x2="40" y2="29.6611" gradientUnits="userSpaceOnUse">
<stop offset="0.015" stop-color="#0F27A4"/>
<stop offset="1" stop-color="#0057FC"/>
</linearGradient>
<linearGradient id="paint1_linear_172_166303" x1="46.6746" y1="26.1611" x2="174" y2="26.1611" gradientUnits="userSpaceOnUse">
<stop offset="0.0353375" stop-color="#1028A4"/>
<stop offset="0.661215" stop-color="#1A5CC4"/>
</linearGradient>
<clipPath id="clip0_172_166303">
<rect width="40" height="40" fill="white" transform="translate(0 6.16113)"/>
</clipPath>
</defs>
</svg>
