<svg width="40" height="40" viewBox="0 0 40 40" fill="none" xmlns="http://www.w3.org/2000/svg">
<rect width="40" height="40" rx="5.16129" fill="#0057FC"/>
<path d="M33.95 19.8307C33.9526 19.8307 33.9546 19.8307 33.9572 19.8307C34.1414 19.8307 34.3169 19.7535 34.4417 19.6182C34.5684 19.4809 34.6311 19.2967 34.6146 19.1106C33.952 11.8222 28.1816 6.04988 20.8925 5.38592C20.7077 5.3714 20.5216 5.43146 20.3843 5.55884C20.2471 5.68556 20.1705 5.86442 20.1725 6.0512C20.2873 15.7374 21.5651 19.6954 33.95 19.8307ZM33.95 21.1692C21.5651 21.3045 20.288 25.2625 20.1731 34.9486C20.1712 35.1354 20.2477 35.3143 20.385 35.441C20.5078 35.5539 20.6681 35.6166 20.8331 35.6166C20.8529 35.6166 20.8734 35.6159 20.8932 35.6139C28.1822 34.95 33.9526 29.1783 34.6146 21.8892C34.6311 21.7031 34.5691 21.519 34.4417 21.3817C34.3143 21.2444 34.1368 21.1764 33.95 21.1692ZM18.0631 5.38922C10.7972 6.07232 5.04529 11.8434 4.38595 19.1119C4.36945 19.2981 4.43149 19.4822 4.55887 19.6195C4.68361 19.7548 4.85983 19.8313 5.04331 19.8313C5.04595 19.8313 5.04859 19.8313 5.05123 19.8313C17.3952 19.6894 18.6697 15.7334 18.7858 6.05384C18.7878 5.86706 18.7106 5.68754 18.5733 5.56082C18.4347 5.4341 18.2492 5.37206 18.0631 5.38922ZM5.05057 21.1685C4.84531 21.1454 4.68427 21.2431 4.55821 21.3804C4.43149 21.5176 4.36879 21.7018 4.38529 21.8879C5.04463 29.1565 10.7972 34.9275 18.0631 35.6106C18.0836 35.6126 18.1047 35.6133 18.1252 35.6133C18.2902 35.6133 18.4499 35.5512 18.5726 35.4384C18.7099 35.3116 18.7871 35.1321 18.7852 34.9453C18.669 25.2664 17.3952 21.3104 5.05057 21.1685Z" fill="white"/>
</svg>
