<svg width="31" height="31" viewBox="0 0 31 31" fill="none" xmlns="http://www.w3.org/2000/svg">
<g clip-path="url(#clip0_11_83)">
<path d="M26.04 0C29.76 0 31 1.24 31 4.96V26.04C31 29.76 29.76 31 26.04 31H4.96C1.24 31 0 29.76 0 26.04V4.96C0 1.24 1.24 0 4.96 0H26.04ZM25.8333 21.3125V12.513C25.4162 12.9839 24.9857 13.3539 24.5417 13.623C24.0842 13.9191 23.1928 14.4909 21.8675 15.3385C20.5422 16.1862 19.523 16.8522 18.8099 17.3366C17.4913 18.265 16.388 18.7292 15.5 18.7292C14.612 18.7292 13.5087 18.265 12.1901 17.3366C11.5712 16.906 10.6192 16.2837 9.33431 15.4697C8.04937 14.6557 7.09071 14.0334 6.45833 13.6029C6.29687 13.4952 6.07487 13.3136 5.79232 13.0579C5.50977 12.8023 5.30122 12.6207 5.16667 12.513V21.3125C5.16667 21.8507 5.35503 22.3082 5.73177 22.6849C6.10851 23.0616 6.56597 23.25 7.10417 23.25H23.8958C24.434 23.25 24.8915 23.0616 25.2682 22.6849C25.645 22.3082 25.8333 21.8507 25.8333 21.3125ZM25.8333 9.74805C25.8333 9.1964 25.6483 8.72548 25.2783 8.33529C24.9083 7.9451 24.4475 7.75 23.8958 7.75H7.10417C6.56597 7.75 6.10851 7.93837 5.73177 8.3151C5.35503 8.69184 5.16667 9.14931 5.16667 9.6875C5.16667 10.1853 5.37185 10.7 5.78223 11.2314C6.1926 11.7629 6.6467 12.1968 7.14453 12.5332C7.77691 12.9638 8.70193 13.5625 9.9196 14.3294C11.1373 15.0964 12.0085 15.6547 12.5332 16.0046C12.5736 16.0315 12.6879 16.1088 12.8763 16.2367C13.0647 16.3645 13.2059 16.4587 13.3001 16.5192C13.3943 16.5798 13.5356 16.6672 13.724 16.7816C13.9123 16.8959 14.0704 16.9834 14.1982 17.0439C14.3261 17.1045 14.4707 17.1684 14.6322 17.2357C14.7936 17.303 14.945 17.3534 15.0863 17.387C15.2275 17.4207 15.3655 17.4375 15.5 17.4375C15.6345 17.4375 15.7725 17.4207 15.9137 17.387C16.055 17.3534 16.2064 17.303 16.3678 17.2357C16.5293 17.1684 16.6739 17.1045 16.8018 17.0439C16.9296 16.9834 17.0877 16.8959 17.276 16.7816C17.4644 16.6672 17.6057 16.5798 17.6999 16.5192C17.7941 16.4587 17.9353 16.3645 18.1237 16.2367C18.3121 16.1088 18.4264 16.0315 18.4668 16.0046L23.8555 12.4928C24.3264 12.1834 24.7738 11.7629 25.1976 11.2314C25.6214 10.7 25.8333 10.2055 25.8333 9.74805Z" fill="#0057FC"/>
</g>
<defs>
<clipPath id="clip0_11_83">
<rect width="31" height="31" fill="white"/>
</clipPath>
</defs>
</svg>
