<svg width="31" height="31" viewBox="0 0 31 31" fill="none" xmlns="http://www.w3.org/2000/svg">
<g clip-path="url(#clip0_11_87)">
<path d="M17.3004 8.80159C16.8284 8.37876 16.1882 8.14122 15.5207 8.14122C14.8531 8.14122 14.2129 8.37876 13.7409 8.80159C13.2689 9.22442 13.0037 9.7979 13.0037 10.3959C13.0037 10.9938 13.2689 11.5673 13.7409 11.9901C14.2129 12.413 14.8531 12.6505 15.5207 12.6505C16.1882 12.6505 16.8284 12.413 17.3004 11.9901C17.7725 11.5673 18.0376 10.9938 18.0376 10.3959C18.0376 9.7979 17.7725 9.22442 17.3004 8.80159Z" fill="#0057FC"/>
<path fill-rule="evenodd" clip-rule="evenodd" d="M4.96 0H26.04C29.76 0 31 1.24 31 4.96V26.04C31 29.76 29.76 31 26.04 31H4.96C1.24 31 0 29.76 0 26.04V4.96C0 1.24 1.24 0 4.96 0ZM21.589 10.3959C21.589 13.3918 18.872 15.8317 15.5207 15.8317C12.1762 15.8317 9.4524 13.3918 9.4524 10.3959C9.4524 7.39996 12.1762 4.96 15.5207 4.96C18.8651 4.96 21.589 7.39996 21.589 10.3959ZM21.4924 18.9759C20.4098 19.5822 19.2209 20.0207 17.9756 20.2731L17.9549 20.2669L21.3545 23.3122C21.5199 23.4602 21.651 23.636 21.7405 23.8294C21.83 24.0228 21.8761 24.2302 21.8761 24.4395C21.8761 24.6489 21.83 24.8563 21.7405 25.0497C21.651 25.2431 21.5199 25.4189 21.3545 25.5669C21.1893 25.715 20.9931 25.8325 20.7772 25.9126C20.5612 25.9928 20.3298 26.0341 20.096 26.0341C19.8623 26.0341 19.6308 25.9928 19.4149 25.9126C19.199 25.8325 19.0028 25.715 18.8376 25.5669L15.5 22.5771L12.1624 25.573C11.8287 25.872 11.376 26.04 10.904 26.04C10.4319 26.04 9.97925 25.872 9.64548 25.573C9.31171 25.2741 9.1242 24.8686 9.1242 24.4457C9.1242 24.0229 9.31171 23.6174 9.64548 23.3184L13.0244 20.2731C11.7832 20.026 10.604 19.5936 9.50757 18.9759C9.31015 18.8639 9.13928 18.7183 9.00471 18.5472C8.87014 18.3761 8.77452 18.1829 8.72329 17.9787C8.67206 17.7745 8.66624 17.5633 8.70615 17.357C8.74606 17.1508 8.83093 16.9537 8.9559 16.7768C9.08087 16.6 9.24349 16.4469 9.4345 16.3264C9.6255 16.2058 9.84114 16.1202 10.0691 16.0743C10.2971 16.0284 10.5329 16.0232 10.7631 16.0589C10.9933 16.0947 11.2134 16.1707 11.4108 16.2827C12.6371 16.9691 14.054 17.3331 15.5 17.3331C16.946 17.3331 18.3629 16.9691 19.5892 16.2827C19.7866 16.1707 20.0067 16.0947 20.2369 16.0589C20.4671 16.0232 20.7029 16.0284 20.9309 16.0743C21.1589 16.1202 21.3745 16.2058 21.5655 16.3264C21.7565 16.4469 21.9191 16.6 22.0441 16.7768C22.1691 16.9537 22.2539 17.1508 22.2938 17.357C22.3338 17.5633 22.3279 17.7745 22.2767 17.9787C22.2255 18.1829 22.1299 18.3761 21.9953 18.5472C21.8607 18.7183 21.6899 18.8639 21.4924 18.9759Z" fill="#0057FC"/>
</g>
<defs>
<clipPath id="clip0_11_87">
<rect width="31" height="31" fill="white"/>
</clipPath>
</defs>
</svg>
