<svg width="31" height="32" viewBox="0 0 31 32" fill="none" xmlns="http://www.w3.org/2000/svg">
<rect y="0.648438" width="31" height="31" rx="4" fill="#0057FC"/>
<path fill-rule="evenodd" clip-rule="evenodd" d="M21.0007 9.09863H5.20801V26.1382H9.60357V20.5947H18.0263L21.8693 26.1382H26.7912L22.5536 20.5692C23.8697 20.3648 24.8172 19.8794 25.3963 19.113C25.9753 18.3467 26.2649 17.1203 26.2649 15.4854V14.208C26.2649 13.2372 26.1597 12.4709 25.9754 11.8833C25.7911 11.2958 25.4752 10.7848 25.0278 10.3249C24.554 9.89065 24.0277 9.58411 23.3959 9.3798C22.7642 9.20101 21.9745 9.09863 21.0007 9.09863ZM9.60357 16.8395H20.2901C20.8954 16.8395 21.3165 16.7625 21.5271 16.5837C21.7376 16.4049 21.8693 16.0728 21.8693 15.562V14.1313C21.8693 13.6459 21.7376 13.3138 21.5271 13.135C21.3165 12.9561 20.8953 12.854 20.2901 12.854H9.60357V16.8395Z" fill="white"/>
<path d="M25.9059 8.80631C26.7109 8.80631 27.3639 8.15342 27.3639 7.34798C27.3639 6.54254 26.7109 5.88965 25.9059 5.88965C25.1003 5.88965 24.4473 6.54254 24.4473 7.34798C24.4473 8.15342 25.1003 8.80631 25.9059 8.80631Z" fill="white"/>
</svg>
