<svg width="31" height="31" viewBox="0 0 31 31" fill="none" xmlns="http://www.w3.org/2000/svg">
<g clip-path="url(#clip0_11_93)">
<path d="M12.141 15.9292L19.8667 11.7896L14.0684 17.3615L13.7955 19.9105L15.3746 18.3825L20.5325 22.5782L23.1302 8.68022L8.67987 14.6926L12.141 15.9292Z" fill="#0057FC"/>
<path d="M26.04 0C26.04 0 8.68 0 4.96 0C1.24 0 0 1.24 0 4.96L0 26.04C0 29.76 1.24 31 4.96 31H26.04C29.76 31 31 29.76 31 26.04V4.96C31 1.24 29.76 0 26.04 0ZM23.4496 25.2681C23.4496 25.2681 22.935 26.6329 21.5198 25.9784L16.287 21.7225L12.9317 24.9693C12.9317 24.9693 12.6693 25.1801 12.3818 25.0476C12.3818 25.0476 12.1346 25.0224 11.8246 23.9882C11.5165 22.9501 9.94751 17.4945 9.94751 17.4945L4.75308 15.6391C4.75308 15.6391 3.9556 15.3388 3.88004 14.6839C3.80215 14.0294 4.78059 13.6737 4.78059 13.6737L25.427 5.08129C25.427 5.08129 27.125 4.2904 27.125 5.59976L23.4496 25.2681Z" fill="#0057FC"/>
</g>
<defs>
<clipPath id="clip0_11_93">
<rect width="31" height="31" fill="white"/>
</clipPath>
</defs>
</svg>
