<svg width="31" height="31" viewBox="0 0 31 31" fill="none" xmlns="http://www.w3.org/2000/svg">
<g clip-path="url(#clip0_11_99)">
<path d="M25.0266 22.118H22.7743C21.9215 22.118 21.6579 21.4399 20.1261 19.8874C18.7916 18.5953 18.2014 18.4217 17.8738 18.4217C17.4138 18.4217 17.2825 18.553 17.2825 19.1876V21.2218C17.2825 21.7697 17.1078 22.0973 15.6638 22.0973C12.751 21.902 10.2475 20.3133 8.79424 17.9979L8.77253 17.9617C7.08562 15.8665 5.84215 13.3413 5.22713 10.5794L5.20439 10.4585C5.20439 10.1308 5.33567 9.82385 5.97032 9.82385H8.22263C8.79114 9.82385 9.01027 10.0864 9.23044 10.6983C10.3447 13.915 12.2053 16.7369 12.9712 16.7369C13.2554 16.7369 13.3867 16.6056 13.3867 15.8841V12.5568C13.2989 11.0249 12.4895 10.8947 12.4895 10.3479C12.4988 10.0554 12.7386 9.82179 13.0322 9.82179C13.0415 9.82179 13.0498 9.82179 13.0591 9.82282H16.6024C17.0841 9.82282 17.2587 10.0854 17.2587 10.6539V15.1399C17.2587 15.6205 17.4779 15.7962 17.6092 15.7962C17.8934 15.7962 18.1353 15.6205 18.6593 15.0965C19.7488 13.7662 20.6801 12.2446 21.3902 10.6042L21.4378 10.4802C21.5876 10.105 21.9473 9.84453 22.368 9.84453C22.3877 9.84453 22.4063 9.84556 22.4259 9.84659H22.4228H24.6751C25.3532 9.84659 25.5072 10.1949 25.3532 10.6776C24.4498 12.6674 23.4348 14.377 22.2585 15.9606L22.3122 15.8841C22.0724 16.2779 21.9846 16.4526 22.3122 16.8919C22.552 17.2196 23.3407 17.8976 23.8658 18.5106C24.6255 19.262 25.2622 20.1365 25.7429 21.1019L25.7687 21.1588C25.9879 21.7914 25.6592 22.1201 25.0245 22.1201L25.0266 22.118ZM26.04 0H4.96C1.24 0 0 1.24 0 4.96V26.04C0 29.76 1.24 31 4.95984 31H26.04C29.76 31 31 29.76 31 26.04V4.96C31 1.24 29.76 0 26.04 0Z" fill="#0057FC"/>
</g>
<defs>
<clipPath id="clip0_11_99">
<rect width="31" height="31" fill="white"/>
</clipPath>
</defs>
</svg>
