<svg width="31" height="31" viewBox="0 0 31 31" fill="none" xmlns="http://www.w3.org/2000/svg">
<g clip-path="url(#clip0_3507_883)">
<mask id="mask0_3507_883" style="mask-type:luminance" maskUnits="userSpaceOnUse" x="0" y="0" width="31" height="31">
<path d="M31 0H0V31H31V0Z" fill="white"/>
</mask>
<g mask="url(#mask0_3507_883)">
<path fill-rule="evenodd" clip-rule="evenodd" d="M4.96 0H26.04C29.76 0 31 1.24 31 4.96V26.04C31 29.76 29.76 31 26.04 31H4.95984C1.24 31 0 29.76 0 26.04V4.96C0 1.24 1.24 0 4.96 0ZM13.1867 12.2582V18.2708C13.6128 18.0673 14.0338 17.8669 14.448 17.6698C16.2604 16.8072 17.9418 16.0069 19.3507 15.2789C18.7612 14.9851 18.1973 14.6972 17.6404 14.4129C16.2145 13.6851 14.8342 12.9804 13.1867 12.2582ZM24.1688 8.28008C24.8859 8.4051 25.5595 8.7827 25.9547 9.2678C27.327 11.2809 27.4438 20.3586 25.7301 21.9549C25.2983 22.3481 24.7507 22.6162 24.1321 22.7166C17.4182 23.1878 8.47747 23.0009 6.74201 22.6664C6.12229 22.5499 5.58276 22.2902 5.1887 21.9131C4.88284 21.6278 4.63998 21.1932 4.45212 20.5905C4.00537 19.1982 3.42458 10.6032 5.27803 9.00047C5.71791 8.62328 6.22997 8.38052 6.80503 8.28008C8.91163 7.90611 22.061 7.90717 24.1688 8.28008Z" fill="#0057FC"/>
</g>
</g>
<defs>
<clipPath id="clip0_3507_883">
<rect width="31" height="31" fill="white"/>
</clipPath>
</defs>
</svg>
