<svg width="128" height="81" viewBox="0 0 128 81" fill="none" xmlns="http://www.w3.org/2000/svg">
<path d="M21.7639 52.9776C21.3975 52.9776 21.1004 53.2747 21.1004 53.6412C21.1004 53.8863 20.9632 54.1076 20.7648 54.2515C19.1381 55.4312 16.5166 59.4368 16.7336 67.9462C16.7401 68.2044 16.8967 68.4396 17.1392 68.5284C19.1401 69.2605 23.5713 70.0737 28.3422 68.5106C28.5891 68.4297 28.7625 68.2092 28.7818 67.9501C29.0611 64.2094 28.614 56.9627 24.8084 54.2459C24.6199 54.1114 24.4984 53.8985 24.4984 53.667V53.6465C24.4984 53.2771 24.1989 52.9776 23.8295 52.9776H21.7639Z" fill="#0057FC"/>
<path d="M22.0561 34.7862C22.0561 34.492 21.8638 34.2323 21.5824 34.1464L12.4419 31.3565C12.1605 31.2706 11.9683 31.011 11.9683 30.7168V30.321C11.9683 30.0296 12.1569 29.7718 12.4346 29.6835L63.905 13.3325C64.036 13.2909 64.1766 13.2906 64.3076 13.3317L115.457 29.3662C115.736 29.4537 115.926 29.7121 115.926 30.0045V30.9291C115.926 31.2233 115.733 31.483 115.452 31.5689L64.3035 47.184C64.175 47.2233 64.0376 47.2229 63.9093 47.1829L27.9556 35.9873C27.6432 35.89 27.6419 35.4484 27.9537 35.3493L61.0917 24.816C61.2546 24.7642 61.4302 24.7773 61.5856 24.8484C62.6852 25.3509 64.6813 26.0508 66.3362 24.9477C68.5661 23.4613 66.3362 21.444 64.9557 21.444C63.6399 21.444 62.1312 21.6369 61.1651 22.9422C61.0717 23.0685 60.9446 23.1683 60.7946 23.2151L24.0126 34.6755C23.7331 34.7626 23.5427 35.0213 23.5427 35.3141V43.921C23.5427 44.2904 23.2432 44.5899 22.8738 44.5899H22.725C22.3555 44.5899 22.0561 44.2904 22.0561 43.921V34.7862Z" fill="#0057FC"/>
<path d="M35.6984 40.5958C35.4163 40.5087 35.1102 40.6152 34.9544 40.866C33.4986 43.2097 31.0766 48.447 30.9771 54.052C30.9709 54.4035 31.2459 54.6908 31.5965 54.7162C38.832 55.2412 54.2821 58.3905 63.6606 67.3034C63.9145 67.5447 64.3081 67.5594 64.5763 67.334C70.2221 62.5881 83.5445 54.1143 96.0495 54.6334C96.4536 54.6502 96.7901 54.3191 96.7565 53.916C96.4575 50.3274 95.4209 43.8177 93.1566 40.7905C92.9971 40.5774 92.7185 40.5001 92.4642 40.5789L64.3039 49.3065C64.1751 49.3464 64.0373 49.3464 63.9085 49.3067L35.6984 40.5958Z" fill="#0057FC"/>
<ellipse cx="23.0118" cy="49.3678" rx="5.20318" ry="5.20253" fill="#0057FC"/>
</svg>
