<svg width="128" height="81" viewBox="0 0 128 81" fill="none" xmlns="http://www.w3.org/2000/svg">
<g clip-path="url(#clip0_231_4312)">
<path d="M88.3295 22.4004C90.1764 13.7112 85.7303 5.40392 78.3988 3.84556C71.0673 2.2872 63.6267 8.06788 61.7797 16.7571C59.9328 25.4463 64.3789 33.7535 71.7104 35.3119C79.0419 36.8703 86.4825 31.0896 88.3295 22.4004Z" fill="#4D8AFF"/>
<path d="M48.3605 33.0215V36.1962C43.507 37.2518 37.5416 39.9178 36.6409 43.7178C33.822 55.6043 34.58 74.0253 34.58 74.2887V74.5581C34.58 75.873 35.913 75.873 37.2259 75.873H69.5903C70.9032 75.873 72.2342 75.873 72.2342 74.5581V43.7178C72.2342 40.2616 69.3932 36.8054 62.9212 36.0092V33.0215H48.3605Z" fill="#0057FC"/>
<path d="M81.6398 30.239V36.1964C86.4933 37.2519 92.4587 39.918 93.3594 43.718C96.1763 55.6065 95.4203 74.0275 95.4203 74.2889V74.5583C95.4203 75.8732 94.0873 75.8732 92.7744 75.8732H60.41C59.0971 75.8732 57.7661 75.8732 57.7661 74.5583V43.718C57.7661 40.2618 60.6071 36.8056 67.0791 36.0094V33.0217L81.6398 30.239Z" fill="#4D8AFF"/>
<path d="M58.2752 35.31C65.6068 33.7516 70.0529 25.4443 68.2059 16.7551C66.359 8.06595 58.9184 2.28527 51.5869 3.84362C44.2554 5.40198 39.8093 13.7093 41.6562 22.3985C43.5031 31.0876 50.9437 36.8683 58.2752 35.31Z" fill="#0057FC"/>
<path d="M67.1955 35.8385C64.5616 36.6045 60.2771 36.9363 55.3371 35.0704C50.1236 33.1001 45.3284 31.1619 43.4585 30.5104C41.7576 29.9173 37.4167 30.4441 36.4497 32.2154C35.4826 33.9867 34.9357 37.2117 37.3283 39.5721C39.7209 41.9325 52.3232 46.5911 55.886 48.6861C57.7518 49.7839 57.6432 56.3725 57.7518 61.7529C57.9186 69.8816 72.5959 34.2682 67.1955 35.8385Z" fill="#4D8AFF"/>
<path d="M53.4048 54.3256C56.0809 54.9248 60.6509 55.9562 65.4663 53.7848C70.547 51.4927 74.9401 48.2919 76.7637 47.5258C78.4245 46.8282 81.9329 46.1526 83.8651 48.7905C85.0594 50.4191 85.6887 53.6842 83.4489 56.1874C81.2071 58.6926 72.3968 64.0669 65.8785 65.6412C60.3514 66.9762 51.8707 66.8475 49.1645 64.0468C44.9403 59.6738 49.7295 53.5013 53.4048 54.3256ZM79.0558 38.1445C79.0558 34.2198 82.5221 32.0805 86.5734 30.5103C88.2522 29.8588 92.6152 30.4439 93.5823 32.2152C94.5494 33.9866 95.0962 37.2115 92.7036 39.572C90.311 41.9324 79.0558 44.1842 79.0558 38.1445Z" fill="#0057FC"/>
</g>
<defs>
<clipPath id="clip0_231_4312">
<rect width="72.381" height="72.381" fill="white" transform="translate(28.8096 3.49219)"/>
</clipPath>
</defs>
</svg>
