<svg width="128" height="85" viewBox="0 0 128 85" fill="none" xmlns="http://www.w3.org/2000/svg">
<path fill-rule="evenodd" clip-rule="evenodd" d="M45.9286 14.0591C47.719 14.0015 49.688 13.9722 51.8356 13.9712C55.057 13.9698 55.9513 14.0038 57.7427 14.0591L57.2778 17.7779C57.2136 18.292 56.9639 18.7649 56.5755 19.1078C56.1872 19.4507 55.687 19.64 55.169 19.6402H48.5023C47.9842 19.64 47.4841 19.4507 47.0957 19.1078C46.7074 18.7649 46.4577 18.292 46.3934 17.7779L45.9286 14.0591ZM67.1758 49.7693C69.4151 49.9252 72.1092 50.0542 75.2045 50.0953C75.1407 58.4102 74.897 64.4165 74.6659 68.3847C74.3995 72.9398 71.0548 76.6926 66.385 77.139C63.0347 77.4607 58.2444 77.747 51.8356 77.747C45.4269 77.747 40.6366 77.4593 37.2848 77.139C32.6164 76.6926 29.2718 72.9398 29.0053 68.3847C28.736 63.773 28.4512 56.4034 28.4512 45.8591C28.4512 35.3149 28.736 27.9466 29.0053 23.3335C29.2718 18.7785 32.6164 15.0257 37.2848 14.5792C38.7434 14.4413 40.2043 14.3302 41.6669 14.2462L42.1743 18.3052C42.3671 19.8476 43.1165 21.2665 44.2817 22.2953C45.447 23.324 46.9479 23.8918 48.5023 23.8919H55.169C56.7234 23.8918 58.2243 23.324 59.3895 22.2953C60.5548 21.2665 61.3042 19.8476 61.497 18.3052L62.0043 14.2462C63.6724 14.344 65.1308 14.4588 66.385 14.5792C67.4479 14.6799 68.44 14.9534 69.3456 15.3672C69.1651 15.6032 68.994 15.8462 68.8326 16.0957C67.1588 18.6765 65.1676 22.0438 62.9383 26.3579C60.8053 30.4877 59.3413 33.7715 58.3351 36.3495C57.095 39.5198 57.4536 42.8574 59.2761 45.4779C61.0619 48.0474 63.98 49.5454 67.1758 49.7693ZM46.8753 69.9522C46.8753 69.3884 47.0993 68.8477 47.4979 68.449C47.8966 68.0503 48.4373 67.8264 49.0011 67.8264H54.6701C55.2339 67.8264 55.7746 68.0503 56.1733 68.449C56.572 68.8477 56.796 69.3884 56.796 69.9522C56.796 70.516 56.572 71.0567 56.1733 71.4554C55.7746 71.8541 55.2339 72.0781 54.6701 72.0781H49.0011C48.4373 72.0781 47.8966 71.8541 47.4979 71.4554C47.0993 71.0567 46.8753 70.516 46.8753 69.9522Z" fill="#0057FC"/>
<path d="M60.4328 39.9923C59.441 38.3399 58.917 36.449 58.917 34.5217C58.917 32.5945 59.441 30.7036 60.4328 29.0512C60.7377 28.5425 61.1455 28.1031 61.6303 27.7614C62.115 27.4197 62.6659 27.1832 63.2475 27.0671L68.0462 26.1062C68.3324 26.0495 68.5905 25.8964 68.7775 25.6725L74.6392 18.6345C77.9896 14.6095 79.6676 12.5999 81.1614 13.1413C82.6551 13.6827 82.6608 16.3017 82.6608 21.5398V47.5093C82.6608 52.7446 82.6608 55.3608 81.1642 55.9051C79.6704 56.4436 77.9924 54.434 74.6421 50.4118L68.7719 43.371C68.5856 43.1476 68.3286 42.9946 68.0434 42.9373L63.2446 41.9764C62.663 41.8603 62.1122 41.6238 61.6274 41.2821C61.1427 40.9404 60.7377 40.501 60.4328 39.9923Z" fill="#0057FC"/>
<path d="M89.8491 24.499C92.4938 27.1435 93.9859 30.7263 94.0002 34.4663C94.0146 38.2063 92.55 41.8003 89.9257 44.4651M101.53 18.4871C105.761 22.718 108.149 28.4499 108.172 34.4337C108.196 40.4174 105.853 46.1678 101.655 50.4316" stroke="#0057FC" stroke-width="2" stroke-linecap="round"/>
</svg>
