<svg width="128" height="81" viewBox="0 0 128 81" fill="none" xmlns="http://www.w3.org/2000/svg">
<path d="M63.6452 69.3974C64.0408 69.6776 64.5136 69.8281 64.9984 69.8281C65.4832 69.8281 65.9561 69.6776 66.3517 69.3974L65 67.487L66.3548 69.3974L66.3798 69.3787L66.4453 69.3319L66.6951 69.1508C66.9115 68.9947 67.2185 68.7668 67.616 68.4672C72.2548 64.9659 76.6335 61.1329 80.7177 56.9981C84.3014 53.3519 87.9444 49.0908 90.704 44.5706C93.4511 40.0754 95.4365 35.1306 95.4365 30.1734C95.4365 24.289 93.6103 19.6907 90.3793 16.569C87.164 13.4661 82.8248 12.0769 78.2672 12.0769C72.8823 12.0769 68.1279 14.6773 65 18.6855C61.872 14.6773 57.1146 12.0769 51.7328 12.0769C42.118 12.0769 34.5635 20.3151 34.5635 30.1734C34.5635 35.1306 36.552 40.0722 39.296 44.5706C42.0555 49.0908 45.6986 53.3519 49.2823 57.0012C53.6364 61.4064 58.3246 65.4683 63.3049 69.1508L63.5546 69.3319L63.6202 69.3787L63.6452 69.3974Z" fill="#0057FC"/>
</svg>
