<svg width="22" height="14" viewBox="0 0 22 14" fill="none" xmlns="http://www.w3.org/2000/svg">
<path d="M21.064 6.99998V8C21.064 8 21.064 8 21.064 8C21.064 8 21.064 9 21.064 10.5C21.064 12.0168 21.064 13.5252 21.064 13.5252V13.5252C16.792 14.5392 12.3614 12.6262 10.17 8.82157L8.99875 6.78813C7.54763 4.26875 5.05329 2.52326 2.18924 2.02297L0 1.64056L2.37655 0.844793C5.02283 -0.0412936 7.9428 0.674224 9.87962 2.68337L11.1651 4.01682C13.0647 5.98738 15.9752 6.62795 18.5338 5.65588V5.65588C20.0503 5.07977 21.064 3.62217 21.064 2V2V6.99998Z" fill="url(#paint0_linear_2069_17297)"/>
<defs>
<linearGradient id="paint0_linear_2069_17297" x1="0" y1="-3.28124" x2="251.484" y2="-3.28124" gradientUnits="userSpaceOnUse">
<stop stop-color="#DEE9FF"/>
<stop offset="1" stop-color="white"/>
</linearGradient>
</defs>
</svg>
