<svg width="16" height="16" viewBox="0 0 16 16" fill="none" xmlns="http://www.w3.org/2000/svg">
<rect width="16" height="16" rx="3" fill="#0057FC"/>
<path d="M6.77494 10.7875C6.70827 10.7875 6.64577 10.777 6.58744 10.756C6.52911 10.7353 6.47494 10.7 6.42494 10.65L4.27494 8.5C4.18327 8.40833 4.13944 8.2895 4.14344 8.1435C4.14777 7.99783 4.19577 7.87917 4.28744 7.7875C4.37911 7.69583 4.49577 7.65 4.63744 7.65C4.77911 7.65 4.89577 7.69583 4.98744 7.7875L6.77494 9.575L11.0124 5.3375C11.1041 5.24583 11.2229 5.2 11.3689 5.2C11.5146 5.2 11.6333 5.24583 11.7249 5.3375C11.8166 5.42917 11.8624 5.54783 11.8624 5.6935C11.8624 5.8395 11.8166 5.95833 11.7249 6.05L7.12494 10.65C7.07494 10.7 7.02077 10.7353 6.96244 10.756C6.90411 10.777 6.84161 10.7875 6.77494 10.7875Z" fill="white"/>
</svg>
