<svg width="397" height="16" viewBox="0 0 397 16" fill="none" xmlns="http://www.w3.org/2000/svg">
<path d="M0.229883 8L0.395517 7.01381L0.313276 7L0.229883 7L0.229883 8ZM9.36988 7.43937L9.21479 6.45147L9.36988 7.43937ZM14.6499 8.16724L15.1144 7.28168L14.6499 8.16724ZM19.9299 7.47119L19.7094 8.44658L19.9299 7.47119ZM25.2099 7.59563L25.0514 6.60826L25.2099 7.59563ZM27.8499 7.55852L27.7187 8.54987L27.8499 7.55852ZM35.7699 7.46634L36.033 6.50157L35.7699 7.46634ZM38.4099 7.77927L38.3743 6.7799L38.4099 7.77927ZM41.0499 8.08806L41.3102 7.12252L41.0499 8.08806ZM43.6899 8.27114L43.8196 9.26268L43.6899 8.27114ZM48.9699 8.4418L49.3168 9.3797L48.9699 8.4418ZM56.8899 8.19112L56.3569 7.34499L56.8899 8.19112ZM59.5299 7.20746L59.6444 8.20088L59.5299 7.20746ZM62.1699 7.93242L62.7233 7.09955L62.1699 7.93242ZM67.4499 8.37382L67.6408 7.39222L67.4499 8.37382ZM72.7299 8.63471L72.5299 9.6145L72.7299 8.63471ZM80.6499 7.25927L80.8633 6.2823L80.6499 7.25927ZM91.2099 7.68482L90.8376 6.75672L91.2099 7.68482ZM93.8499 7.5134L94.1117 6.54829L93.8499 7.5134ZM96.4899 7.97178L96.5656 6.97465L96.4899 7.97178ZM104.41 7.84705L104.369 6.84787L104.41 7.84705ZM107.05 8.42708L106.617 9.32867L107.05 8.42708ZM112.33 7.78649L111.804 8.63734L112.33 7.78649ZM114.97 7.74347L114.425 6.90507L114.97 7.74347ZM120.25 7.34688L120.399 8.33569L120.25 7.34688ZM122.89 7.50898L122.626 8.47351L122.89 7.50898ZM128.17 7.33023L128.27 8.32518L128.17 7.33023ZM136.09 8.13909L135.721 9.06852L136.09 8.13909ZM138.73 8.56292L138.654 7.56578L138.73 8.56292ZM141.37 8.24536L141.532 9.23207L141.37 8.24536ZM144.01 8.08084L143.97 9.08004L144.01 8.08084ZM149.29 8.20436L149.482 7.22292L149.29 8.20436ZM154.57 8.96282L154.462 9.95703L154.57 8.96282ZM157.21 8.84684L157.402 9.82817L157.21 8.84684ZM159.85 8.67786L159.782 9.67556L159.85 8.67786ZM173.05 7.34007L173.318 6.37674L173.05 7.34007ZM175.69 7.72965L175.673 8.72951L175.69 7.72965ZM178.33 8.33573L178.735 7.42127L178.33 8.33573ZM180.97 8.7835L181.073 9.7782L180.97 8.7835ZM183.61 8.82561L183.476 9.81659L183.61 8.82561ZM186.25 8.46007L185.869 7.53552L186.25 8.46007ZM188.89 8.02436L188.972 7.02771L188.89 8.02436ZM191.53 8.31276L191.665 7.32193L191.53 8.31276ZM194.17 8.28002L194.329 9.26727L194.17 8.28002ZM196.81 8.06103L196.815 9.06102L196.81 8.06103ZM202.09 8.47101L201.936 7.48289L202.09 8.47101ZM207.37 8.06161L207.816 8.95657L207.37 8.06161ZM228.49 7.55117L228.473 6.55132L228.49 7.55117ZM231.13 7.66067L231.03 8.6557L231.13 7.66067ZM236.41 8.39559L236.651 7.42513L236.41 8.39559ZM249.61 8.02728L250.09 8.90462L249.61 8.02728ZM254.89 7.99879L254.486 8.91346L254.89 7.99879ZM265.45 7.73674L265.768 8.68466L265.45 7.73674ZM268.09 7.63467L268.34 6.66653L268.09 7.63467ZM276.01 8.11793L276.203 7.13681L276.01 8.11793ZM283.93 8.15334L284.458 9.00275L283.93 8.15334ZM289.21 8.22322L289.694 7.34834L289.21 8.22322ZM291.85 8.27567L291.393 7.38624L291.85 8.27567ZM294.49 8.29106L294.955 7.40586L294.49 8.29106ZM297.13 8.48288L297.485 9.41759L297.13 8.48288ZM307.69 7.09239L307.652 8.09164L307.69 7.09239ZM312.97 7.5849L313.079 6.59088L312.97 7.5849ZM315.61 7.49688L315.784 8.48166L315.61 7.49688ZM326.17 8.36324L325.96 9.34091L326.17 8.36324ZM328.81 7.97444L328.356 7.08343L328.81 7.97444ZM336.73 8.5449L336.48 7.57666L336.73 8.5449ZM339.37 7.88774L339.137 6.91527L339.37 7.88774ZM342.01 7.95875L342.292 6.99921L342.01 7.95875ZM363.13 8.38134L362.675 9.27178L363.13 8.38134ZM376.331 7.76977L376.856 8.6208L376.331 7.76977ZM378.971 7.59275L378.536 8.49324L378.971 7.59275ZM384.251 7.93354L383.901 6.99661L384.251 7.93354ZM392.171 8.30486L392.321 9.29345L392.171 8.30486ZM394.745 8.05183L394.787 9.05098L394.79 9.05082L394.745 8.05183ZM395.9 8L395.9 7L395.878 7L395.855 7.00101L395.9 8ZM396.707 8.70711C397.098 8.31658 397.098 7.68342 396.707 7.29289L390.343 0.928932C389.953 0.538408 389.319 0.538408 388.929 0.928932C388.538 1.31946 388.538 1.95262 388.929 2.34315L394.586 8L388.929 13.6569C388.538 14.0474 388.538 14.6805 388.929 15.0711C389.319 15.4616 389.953 15.4616 390.343 15.0711L396.707 8.70711ZM0.129883 8L0.129883 9L0.229883 9L0.229883 8L0.229883 7L0.129883 7L0.129883 8ZM0.229883 8L0.0642489 8.98619C1.75015 9.26934 3.00592 9.51651 3.84711 9.72703L4.08988 8.75694L4.33266 7.78686C3.41384 7.55692 2.09628 7.29946 0.395517 7.01381L0.229883 8ZM4.08988 8.75694L3.84711 9.72703C4.99717 10.0148 6.13355 9.83158 7.20891 9.24475L6.72988 8.36695L6.25086 7.48915C5.56621 7.86276 4.9426 7.9395 4.33266 7.78686L4.08988 8.75694ZM6.72988 8.36695L7.20891 9.24475C8.00059 8.81272 8.77177 8.54552 9.52498 8.42727L9.36988 7.43937L9.21479 6.45147C8.20799 6.60953 7.21918 6.96072 6.25086 7.48915L6.72988 8.36695ZM9.36988 7.43937L9.52498 8.42727C10.3241 8.30181 11.1212 8.276 11.9183 8.34927L12.0099 7.35347L12.1014 6.35766C11.1385 6.26916 10.1757 6.30061 9.21479 6.45147L9.36988 7.43937ZM12.0099 7.35347L11.9183 8.34927C12.6527 8.41677 13.4069 8.64442 14.1853 9.05279L14.6499 8.16724L15.1144 7.28168C14.1329 6.7668 13.127 6.45194 12.1014 6.35766L12.0099 7.35347ZM14.6499 8.16724L14.1853 9.05279C15.4026 9.69131 16.6649 9.60231 17.8283 8.85888L17.2899 8.01622L16.7514 7.17356C16.1549 7.55473 15.6572 7.56641 15.1144 7.28168L14.6499 8.16724ZM17.2899 8.01622L17.8283 8.85888C18.5217 8.41586 19.1313 8.31589 19.7094 8.44658L19.9299 7.47119L20.1504 6.49581C18.9685 6.2286 17.8181 6.49199 16.7514 7.17356L17.2899 8.01622ZM19.9299 7.47119L19.7094 8.44658C20.6554 8.66044 21.6044 8.7748 22.5556 8.78842L22.5699 7.78853L22.5842 6.78863C21.7753 6.77704 20.9644 6.67984 20.1504 6.49581L19.9299 7.47119ZM22.5699 7.78853L22.5556 8.78842C23.4941 8.80187 24.4319 8.73325 25.3683 8.583L25.2099 7.59563L25.0514 6.60826C24.2278 6.74042 23.4056 6.8004 22.5842 6.78863L22.5699 7.78853ZM25.2099 7.59563L25.3683 8.583C26.1529 8.4571 26.9353 8.44619 27.7187 8.54987L27.8499 7.55852L27.9811 6.56716C27.0045 6.43791 26.0269 6.45173 25.0514 6.60826L25.2099 7.59563ZM27.8499 7.55852L27.7187 8.54987C28.6895 8.67836 29.6614 8.67298 30.6318 8.53385L30.4899 7.54397L30.348 6.55409C29.5584 6.6673 28.7703 6.67161 27.9811 6.56716L27.8499 7.55852ZM30.4899 7.54397L30.6318 8.53385C31.4959 8.40997 32.3598 8.30741 33.2235 8.22615L33.1299 7.23055L33.0362 6.23494C32.14 6.31925 31.2439 6.42564 30.348 6.55409L30.4899 7.54397ZM33.1299 7.23055L33.2235 8.22615C33.9799 8.155 34.7391 8.22176 35.5068 8.43111L35.7699 7.46634L36.033 6.50157C35.0407 6.23096 34.0399 6.14053 33.0362 6.23494L33.1299 7.23055ZM35.7699 7.46634L35.5068 8.43111C36.4805 8.69665 37.4612 8.81371 38.4455 8.77863L38.4099 7.77927L38.3743 6.7799C37.5986 6.80754 36.8192 6.71598 36.033 6.50157L35.7699 7.46634ZM38.4099 7.77927L38.4455 8.77863C39.2223 8.75095 40.0026 8.84144 40.7896 9.05359L41.0499 8.08806L41.3102 7.12252C40.3372 6.86024 39.3575 6.74486 38.3743 6.7799L38.4099 7.77927ZM41.0499 8.08806L40.7896 9.05359C41.7931 9.32411 42.8056 9.39538 43.8196 9.26268L43.6899 8.27114L43.5601 7.27959C42.8141 7.37722 42.0666 7.32644 41.3102 7.12252L41.0499 8.08806ZM43.6899 8.27114L43.8196 9.26268C44.5494 9.16717 45.2827 9.23278 46.0294 9.46799L46.3299 8.51419L46.6303 7.56039C45.617 7.2412 44.5903 7.14477 43.5601 7.27959L43.6899 8.27114ZM46.3299 8.51419L46.0294 9.46799C47.1248 9.81305 48.2325 9.7807 49.3168 9.3797L48.9699 8.4418L48.623 7.50389C47.9472 7.75382 47.2949 7.76974 46.6303 7.56039L46.3299 8.51419ZM48.9699 8.4418L49.3168 9.3797C50.0874 9.09467 50.8435 8.96447 51.5906 8.9789L51.6099 7.97908L51.6292 6.97927C50.6163 6.95971 49.6123 7.13799 48.623 7.50389L48.9699 8.4418ZM51.6099 7.97908L51.5906 8.9789C52.346 8.99348 53.111 9.14618 53.8901 9.4466L54.2499 8.51357L54.6097 7.58053C53.6287 7.20229 52.6338 6.99867 51.6292 6.97927L51.6099 7.97908ZM54.2499 8.51357L53.8901 9.4466C55.098 9.91237 56.3074 9.73989 57.4228 9.03726L56.8899 8.19112L56.3569 7.34499C55.7124 7.75095 55.1618 7.79343 54.6097 7.58053L54.2499 8.51357ZM56.8899 8.19112L57.4228 9.03726C58.1981 8.54896 58.9369 8.28247 59.6444 8.20088L59.5299 7.20746L59.4153 6.21405C58.3628 6.33541 57.3417 6.7247 56.3569 7.34499L56.8899 8.19112ZM59.5299 7.20746L59.6444 8.20088C60.2465 8.13146 60.8935 8.28488 61.6164 8.76529L62.1699 7.93242L62.7233 7.09955C61.6863 6.4104 60.5733 6.08051 59.4153 6.21405L59.5299 7.20746ZM62.1699 7.93242L61.6164 8.76529C62.6918 9.47988 63.8622 9.74576 65.0636 9.43058L64.8099 8.46331L64.5561 7.49604C63.9976 7.64257 63.408 7.55452 62.7233 7.09955L62.1699 7.93242ZM64.8099 8.46331L65.0636 9.43058C65.8006 9.23726 66.5286 9.21334 67.2589 9.35541L67.4499 8.37382L67.6408 7.39222C66.6112 7.19191 65.5792 7.22766 64.5561 7.49604L64.8099 8.46331ZM67.4499 8.37382L67.2589 9.35541C68.2334 9.54498 69.2114 9.59125 70.1899 9.49291L70.0899 8.49792L69.9899 7.50293C69.2083 7.58149 68.4263 7.54502 67.6408 7.39222L67.4499 8.37382ZM70.0899 8.49792L70.1899 9.49291C70.9681 9.41469 71.747 9.45469 72.5299 9.6145L72.7299 8.63471L72.9299 7.65491C71.9528 7.45545 70.9716 7.40426 69.9899 7.50293L70.0899 8.49792ZM72.7299 8.63471L72.5299 9.6145C73.6163 9.83628 74.698 9.71893 75.7501 9.28631L75.3699 8.36144L74.9896 7.43656C74.2818 7.72758 73.6035 7.79242 72.9299 7.65491L72.7299 8.63471ZM75.3699 8.36144L75.7501 9.28631C76.6064 8.93426 77.4615 8.62121 78.3156 8.34695L78.0099 7.39484L77.7041 6.44272C76.7982 6.73363 75.8934 7.06497 74.9896 7.43656L75.3699 8.36144ZM78.0099 7.39484L78.3156 8.34695C79.0324 8.11679 79.7333 8.08266 80.4365 8.23624L80.6499 7.25927L80.8633 6.2823C79.8064 6.05147 78.7474 6.10772 77.7041 6.44272L78.0099 7.39484ZM80.6499 7.25927L80.4365 8.23624C81.3055 8.42604 82.1746 8.63123 83.0439 8.85182L83.2899 7.88254L83.5358 6.91326C82.6451 6.68723 81.7542 6.4769 80.8633 6.2823L80.6499 7.25927ZM83.2899 7.88254L83.0439 8.85182C84.1269 9.12663 85.2134 9.0606 86.2765 8.66781L85.9299 7.72979L85.5833 6.79177C84.8864 7.04927 84.2129 7.08507 83.5358 6.91326L83.2899 7.88254ZM85.9299 7.72979L86.2765 8.66781C86.9332 8.42514 87.5678 8.42482 88.2243 8.66659L88.5699 7.72821L88.9155 6.78983C87.812 6.38342 86.6865 6.38414 85.5833 6.79177L85.9299 7.72979ZM88.5699 7.72821L88.2243 8.66659C89.3394 9.07729 90.4752 9.05699 91.5822 8.61293L91.2099 7.68482L90.8376 6.75672C90.1845 7.01869 89.5603 7.02731 88.9155 6.78983L88.5699 7.72821ZM91.2099 7.68482L91.5822 8.61293C92.2691 8.33738 92.9266 8.29908 93.588 8.47852L93.8499 7.5134L94.1117 6.54829C93.0131 6.25025 91.9107 6.32623 90.8376 6.75672L91.2099 7.68482ZM93.8499 7.5134L93.588 8.47852C94.5269 8.73322 95.4692 8.89713 96.4141 8.96891L96.4899 7.97178L96.5656 6.97465C95.7506 6.91274 94.9328 6.77106 94.1117 6.54829L93.8499 7.5134ZM96.4899 7.97178L96.4141 8.96891C97.4735 9.04938 98.5181 8.85196 99.5351 8.40119L99.1299 7.48697L98.7246 6.57275C97.9816 6.90208 97.2663 7.02788 96.5656 6.97465L96.4899 7.97178ZM99.1299 7.48697L99.5351 8.40119C100.181 8.11492 100.788 8.09903 101.416 8.33647L101.77 7.40113L102.124 6.4658C100.991 6.03757 99.8388 6.0789 98.7246 6.57275L99.1299 7.48697ZM101.77 7.40113L101.416 8.33647C102.413 8.71358 103.427 8.88759 104.45 8.84624L104.41 7.84705L104.369 6.84787C103.633 6.87763 102.887 6.75436 102.124 6.4658L101.77 7.40113ZM104.41 7.84705L104.45 8.84624C105.15 8.81797 105.868 8.96932 106.617 9.32867L107.05 8.42708L107.482 7.5255C106.471 7.04036 105.43 6.80503 104.369 6.84787L104.41 7.84705ZM107.05 8.42708L106.617 9.32867C107.221 9.61846 107.865 9.73168 108.524 9.62905C109.173 9.52791 109.77 9.22796 110.31 8.80008L109.69 8.0159L109.069 7.23172C108.73 7.5002 108.447 7.61697 108.216 7.65288C107.995 7.68732 107.758 7.65794 107.482 7.5255L107.05 8.42708ZM109.69 8.0159L110.31 8.80008C110.638 8.54063 110.898 8.44978 111.096 8.43252C111.287 8.41596 111.515 8.45866 111.804 8.63734L112.33 7.78649L112.855 6.93564C112.265 6.5709 111.613 6.38013 110.923 6.44003C110.242 6.49925 109.621 6.79482 109.069 7.23172L109.69 8.0159ZM112.33 7.78649L111.804 8.63734C112.378 8.99158 113.004 9.19396 113.666 9.18317C114.328 9.17239 114.948 8.95042 115.515 8.58187L114.97 7.74347L114.425 6.90507C114.112 7.10862 113.852 7.17987 113.634 7.18343C113.416 7.18698 113.162 7.12483 112.855 6.93564L112.33 7.78649ZM114.97 7.74347L115.515 8.58187C116.202 8.13515 116.8 8.04376 117.367 8.18576L117.61 7.21568L117.853 6.2456C116.66 5.94712 115.498 6.20759 114.425 6.90507L114.97 7.74347ZM117.61 7.21568L117.367 8.18576C118.373 8.43743 119.386 8.48855 120.399 8.33569L120.25 7.34688L120.101 6.35807C119.354 6.47075 118.607 6.4344 117.853 6.2456L117.61 7.21568ZM120.25 7.34688L120.399 8.33569C121.138 8.22425 121.877 8.26853 122.626 8.47351L122.89 7.50898L123.154 6.54445C122.143 6.26774 121.122 6.20396 120.101 6.35807L120.25 7.34688ZM122.89 7.50898L122.626 8.47351C123.638 8.75051 124.66 8.8127 125.682 8.65514L125.53 7.66681L125.378 6.67848C124.64 6.79216 123.902 6.74913 123.154 6.54445L122.89 7.50898ZM125.53 7.66681L125.682 8.65514C126.545 8.52217 127.408 8.41218 128.27 8.32518L128.17 7.33023L128.069 6.33528C127.172 6.42581 126.275 6.54022 125.378 6.67848L125.53 7.66681ZM128.17 7.33023L128.27 8.32518C129.093 8.24214 129.916 8.22997 130.739 8.28858L130.81 7.29111L130.881 6.29363C129.944 6.22687 129.006 6.24078 128.069 6.33528L128.17 7.33023ZM130.81 7.29111L130.739 8.28858C131.614 8.35089 132.488 8.42014 133.363 8.49632L133.45 7.50009L133.537 6.50387C132.651 6.42677 131.766 6.35669 130.881 6.29363L130.81 7.29111ZM133.45 7.50009L133.363 8.49632C134.14 8.56395 134.925 8.75246 135.721 9.06852L136.09 8.13909L136.459 7.20965C135.495 6.82701 134.52 6.58952 133.537 6.50387L133.45 7.50009ZM136.09 8.13909L135.721 9.06852C136.732 9.46976 137.763 9.63918 138.806 9.56005L138.73 8.56292L138.654 7.56578C137.936 7.62027 137.208 7.50714 136.459 7.20965L136.09 8.13909ZM138.73 8.56292L138.806 9.56005C139.715 9.49101 140.624 9.38166 141.532 9.23207L141.37 8.24536L141.207 7.25865C140.356 7.39886 139.505 7.50121 138.654 7.56578L138.73 8.56292ZM141.37 8.24536L141.532 9.23207C142.346 9.09805 143.158 9.04757 143.97 9.08004L144.01 8.08084L144.05 7.08164C143.101 7.04368 142.153 7.10287 141.207 7.25865L141.37 8.24536ZM144.01 8.08084L143.97 9.08004C144.887 9.11673 145.804 9.10257 146.721 9.03756L146.65 8.04007L146.579 7.04257C145.736 7.10236 144.893 7.11537 144.05 7.08164L144.01 8.08084ZM146.65 8.04007L146.721 9.03756C147.511 8.9815 148.303 9.03049 149.098 9.18581L149.29 8.20436L149.482 7.22292C148.517 7.03439 147.548 6.97385 146.579 7.04257L146.65 8.04007ZM149.29 8.20436L149.098 9.18581C149.997 9.36142 150.896 9.5102 151.796 9.63213L151.93 8.64119L152.064 7.65025C151.204 7.53359 150.343 7.39116 149.482 7.22292L149.29 8.20436ZM151.93 8.64119L151.796 9.63213C152.684 9.75263 153.573 9.86093 154.462 9.95703L154.57 8.96282L154.677 7.96861C153.806 7.87446 152.935 7.76834 152.064 7.65025L151.93 8.64119ZM154.57 8.96282L154.462 9.95703C155.444 10.0631 156.425 10.0197 157.402 9.82817L157.21 8.84684L157.018 7.8655C156.235 8.01887 155.456 8.05279 154.677 7.96861L154.57 8.96282ZM157.21 8.84684L157.402 9.82817C158.198 9.67222 158.991 9.62177 159.782 9.67556L159.85 8.67786L159.918 7.68016C158.949 7.61435 157.982 7.67656 157.018 7.8655L157.21 8.84684ZM159.85 8.67786L159.782 9.67556C160.682 9.73675 161.583 9.77018 162.484 9.77586L162.49 8.77588L162.496 7.7759C161.637 7.77048 160.777 7.73857 159.918 7.68016L159.85 8.67786ZM162.49 8.77588L162.484 9.77586C163.546 9.78254 164.585 9.50893 165.59 8.9874L165.13 8.09967L164.67 7.21194C163.915 7.60311 163.194 7.78029 162.496 7.7759L162.49 8.77588ZM165.13 8.09967L165.59 8.9874C166.355 8.59057 167.092 8.39251 167.806 8.36656L167.77 7.36722L167.734 6.36788C166.688 6.40584 165.664 6.69608 164.67 7.21194L165.13 8.09967ZM167.77 7.36722L167.806 8.36656C168.718 8.33346 169.629 8.25702 170.54 8.13733L170.41 7.14585L170.28 6.15437C169.431 6.26593 168.582 6.33708 167.734 6.36788L167.77 7.36722ZM170.41 7.14585L170.54 8.13733C171.283 8.03975 172.027 8.09332 172.782 8.3034L173.05 7.34007L173.318 6.37674C172.312 6.09661 171.297 6.0207 170.28 6.15437L170.41 7.14585ZM173.05 7.34007L172.782 8.3034C173.74 8.57048 174.705 8.71343 175.673 8.72951L175.69 7.72965L175.706 6.72979C174.915 6.71664 174.119 6.59987 173.318 6.37674L173.05 7.34007ZM175.69 7.72965L175.673 8.72951C176.407 8.74171 177.156 8.9098 177.925 9.25019L178.33 8.33573L178.735 7.42127C177.744 6.98279 176.732 6.74683 175.706 6.72979L175.69 7.72965ZM178.33 8.33573L177.925 9.25019C178.95 9.70374 180.004 9.88857 181.073 9.7782L180.97 8.7835L180.867 7.78879C180.175 7.86026 179.47 7.74659 178.735 7.42127L178.33 8.33573ZM180.97 8.7835L181.073 9.7782C181.874 9.69545 182.674 9.70817 183.476 9.81659L183.61 8.82561L183.744 7.83463C182.786 7.70506 181.826 7.6897 180.867 7.78879L180.97 8.7835ZM183.61 8.82561L183.476 9.81659C184.543 9.96089 185.6 9.80944 186.631 9.38463L186.25 8.46007L185.869 7.53552C185.14 7.83609 184.437 7.92833 183.744 7.83463L183.61 8.82561ZM186.25 8.46007L186.631 9.38463C187.376 9.07746 188.098 8.96274 188.808 9.02101L188.89 8.02436L188.972 7.02771C187.922 6.94155 186.884 7.11731 185.869 7.53552L186.25 8.46007ZM188.89 8.02436L188.808 9.02101C189.67 9.09176 190.532 9.18594 191.395 9.30358L191.53 8.31276L191.665 7.32193C190.767 7.19948 189.87 7.1014 188.972 7.02771L188.89 8.02436ZM191.53 8.31276L191.395 9.30358C192.373 9.43701 193.352 9.42479 194.329 9.26727L194.17 8.28002L194.011 7.29277C193.228 7.41899 192.447 7.4286 191.665 7.32193L191.53 8.31276ZM194.17 8.28002L194.329 9.26727C195.159 9.13354 195.987 9.0649 196.815 9.06102L196.81 8.06103L196.805 7.06104C195.873 7.06541 194.941 7.14277 194.011 7.29277L194.17 8.28002ZM196.81 8.06103L196.815 9.06102C197.614 9.05727 198.415 9.14936 199.221 9.33897L199.45 8.36557L199.679 7.39218C198.724 7.16748 197.766 7.05654 196.805 7.06104L196.81 8.06103ZM199.45 8.36557L199.221 9.33897C200.224 9.5752 201.234 9.6161 202.244 9.45913L202.09 8.47101L201.936 7.48289C201.186 7.59964 200.435 7.57025 199.679 7.39218L199.45 8.36557ZM202.09 8.47101L202.244 9.45913C203.016 9.33898 203.787 9.34524 204.56 9.47823L204.73 8.49269L204.899 7.50716C203.913 7.33751 202.924 7.32932 201.936 7.48289L202.09 8.47101ZM204.73 8.49269L204.56 9.47823C205.671 9.66925 206.766 9.48006 207.816 8.95657L207.37 8.06161L206.924 7.16666C206.214 7.52058 205.548 7.61877 204.899 7.50716L204.73 8.49269ZM207.37 8.06161L207.816 8.95657C208.61 8.56055 209.388 8.31368 210.152 8.20422L210.01 7.21434L209.868 6.22446C208.872 6.36729 207.889 6.68527 206.924 7.16666L207.37 8.06161ZM210.01 7.21434L210.152 8.20422C210.9 8.0969 211.65 8.13651 212.406 8.32659L212.65 7.35672L212.894 6.38686C211.89 6.13481 210.879 6.0795 209.868 6.22446L210.01 7.21434ZM212.65 7.35672L212.406 8.32659C213.377 8.57057 214.354 8.67223 215.334 8.62872L215.29 7.6297L215.245 6.63069C214.465 6.66533 213.682 6.585 212.894 6.38686L212.65 7.35672ZM215.29 7.6297L215.334 8.62872C216.121 8.5938 216.909 8.66788 217.702 8.85313L217.93 7.87933L218.157 6.90552C217.191 6.67979 216.219 6.58745 215.245 6.63069L215.29 7.6297ZM217.93 7.87933L217.702 8.85313C218.658 9.07632 219.618 9.18384 220.58 9.17397L220.57 8.17403L220.56 7.17408C219.762 7.18226 218.961 7.09332 218.157 6.90552L217.93 7.87933ZM220.57 8.17403L220.58 9.17397C221.606 9.16345 222.618 8.93392 223.61 8.50143L223.21 7.58481L222.81 6.66819C222.042 7.00327 221.294 7.16655 220.56 7.17408L220.57 8.17403ZM223.21 7.58481L223.61 8.50143C224.312 8.19528 224.979 8.12784 225.641 8.26937L225.85 7.29149L226.059 6.31362C224.961 6.07865 223.868 6.20675 222.81 6.66819L223.21 7.58481ZM225.85 7.29149L225.641 8.26937C226.593 8.47317 227.549 8.56749 228.507 8.55102L228.49 7.55117L228.473 6.55132C227.67 6.56511 226.866 6.48631 226.059 6.31362L225.85 7.29149ZM228.49 7.55117L228.507 8.55102C229.348 8.53657 230.189 8.57143 231.03 8.6557L231.13 7.66067L231.229 6.66565C230.311 6.57365 229.392 6.53552 228.473 6.55132L228.49 7.55117ZM231.13 7.66067L231.03 8.6557C231.909 8.7437 232.788 8.8334 233.666 8.9248L233.77 7.93016L233.873 6.93553C232.992 6.84387 232.111 6.75391 231.229 6.66565L231.13 7.66067ZM233.77 7.93016L233.666 8.9248C234.499 9.01138 235.333 9.15828 236.169 9.36606L236.41 8.39559L236.651 7.42513C235.727 7.19539 234.801 7.03201 233.873 6.93553L233.77 7.93016ZM236.41 8.39559L236.169 9.36606C237.183 9.61834 238.206 9.65417 239.227 9.47065L239.05 8.48643L238.873 7.5022C238.134 7.63509 237.396 7.61036 236.651 7.42513L236.41 8.39559ZM239.05 8.48643L239.227 9.47065C240.051 9.32242 240.874 9.24608 241.696 9.24108L241.69 8.2411L241.684 7.24112C240.746 7.24682 239.808 7.33402 238.873 7.5022L239.05 8.48643ZM241.69 8.2411L241.696 9.24108C242.622 9.23546 243.547 9.16616 244.472 9.03341L244.33 8.04356L244.188 7.05371C243.352 7.17365 242.518 7.23605 241.684 7.24112L241.69 8.2411ZM244.33 8.04356L244.472 9.03341C245.189 8.93043 245.911 8.99842 246.649 9.24868L246.97 8.30165L247.291 7.35462C246.269 7.00807 245.23 6.904 244.188 7.05371L244.33 8.04356ZM246.97 8.30165L246.649 9.24868C247.816 9.64464 248.986 9.50827 250.09 8.90462L249.61 8.02728L249.13 7.14994C248.474 7.50893 247.883 7.55547 247.291 7.35462L246.97 8.30165ZM249.61 8.02728L250.09 8.90462C250.833 8.4982 251.534 8.33138 252.208 8.35951L252.25 7.36037L252.292 6.36124C251.206 6.31594 250.147 6.59372 249.13 7.14994L249.61 8.02728ZM252.25 7.36037L252.208 8.35951C252.952 8.39054 253.71 8.57047 254.486 8.91346L254.89 7.99879L255.294 7.08413C254.31 6.64932 253.308 6.40364 252.292 6.36124L252.25 7.36037ZM254.89 7.99879L254.486 8.91346C255.537 9.37806 256.623 9.5214 257.717 9.31259L257.53 8.33031L257.342 7.34802C256.677 7.47499 256.003 7.39732 255.294 7.08413L254.89 7.99879ZM257.53 8.33031L257.717 9.31259C258.565 9.15088 259.412 9.0327 260.258 8.9579L260.17 7.96178L260.082 6.96567C259.168 7.04645 258.255 7.17395 257.342 7.34802L257.53 8.33031ZM260.17 7.96178L260.258 8.9579C261.066 8.88643 261.875 8.90196 262.684 9.00471L262.81 8.01267L262.936 7.02063C261.985 6.89994 261.033 6.88155 260.082 6.96567L260.17 7.96178ZM262.81 8.01267L262.684 9.00471C263.721 9.1363 264.752 9.02606 265.768 8.68466L265.45 7.73674L265.131 6.78881C264.387 7.03876 263.659 7.11247 262.936 7.02063L262.81 8.01267ZM265.45 7.73674L265.768 8.68466C266.469 8.44931 267.151 8.42479 267.839 8.6028L268.09 7.63467L268.34 6.66653C267.269 6.38929 266.191 6.43282 265.131 6.78881L265.45 7.73674ZM268.09 7.63467L267.839 8.6028C268.731 8.83351 269.623 9.04673 270.516 9.24247L270.73 8.2657L270.944 7.28893C270.076 7.09855 269.208 6.89109 268.34 6.66653L268.09 7.63467ZM270.73 8.2657L270.516 9.24247C271.552 9.46993 272.593 9.446 273.625 9.17334L273.37 8.20652L273.114 7.2397C272.386 7.43207 271.667 7.44759 270.944 7.28893L270.73 8.2657ZM273.37 8.20652L273.625 9.17334C274.361 8.97897 275.088 8.95537 275.817 9.09906L276.01 8.11793L276.203 7.13681C275.172 6.93359 274.139 6.96905 273.114 7.2397L273.37 8.20652ZM276.01 8.11793L275.817 9.09906C276.904 9.31346 277.986 9.18729 279.037 8.74625L278.65 7.82415L278.263 6.90206C277.554 7.19963 276.876 7.26931 276.203 7.13681L276.01 8.11793ZM278.65 7.82415L279.037 8.74625C279.58 8.51855 280.113 8.55279 280.748 8.96213L281.29 8.12184L281.832 7.28155C280.707 6.55537 279.48 6.39114 278.263 6.90206L278.65 7.82415ZM281.29 8.12184L280.748 8.96213C281.316 9.32846 281.937 9.54758 282.598 9.55547C283.26 9.56337 283.885 9.35859 284.458 9.00275L283.93 8.15334L283.402 7.30394C283.095 7.49486 282.84 7.55821 282.622 7.55561C282.403 7.553 282.144 7.48299 281.832 7.28155L281.29 8.12184ZM283.93 8.15334L284.458 9.00275C285.194 8.54557 285.871 8.37246 286.51 8.411L286.57 7.41282L286.63 6.41463C285.509 6.34702 284.426 6.6676 283.402 7.30394L283.93 8.15334ZM286.57 7.41282L286.51 8.411C287.221 8.45392 287.958 8.67291 288.726 9.09809L289.21 8.22322L289.694 7.34834C288.702 6.79914 287.679 6.47787 286.63 6.41463L286.57 7.41282ZM289.21 8.22322L288.726 9.09809C289.892 9.74356 291.125 9.77277 292.307 9.1651L291.85 8.27567L291.393 7.38624C290.815 7.68301 290.288 7.67725 289.694 7.34834L289.21 8.22322ZM291.85 8.27567L292.307 9.1651C292.896 8.86264 293.432 8.86447 294.025 9.17626L294.49 8.29106L294.955 7.40586C293.789 6.79269 292.564 6.78426 291.393 7.38624L291.85 8.27567ZM294.49 8.29106L294.025 9.17626C295.143 9.76366 296.321 9.86037 297.485 9.41759L297.13 8.48288L296.775 7.54816C296.179 7.77458 295.598 7.74342 294.955 7.40586L294.49 8.29106ZM297.13 8.48288L297.485 9.41759C298.335 9.09447 299.184 8.81898 300.03 8.59078L299.77 7.62523L299.51 6.65968C298.597 6.90581 297.685 7.20209 296.775 7.54816L297.13 8.48288ZM299.77 7.62523L300.03 8.59078C300.656 8.42202 301.287 8.48218 301.967 8.81808L302.41 7.92149L302.853 7.0249C301.773 6.49146 300.644 6.35411 299.51 6.65968L299.77 7.62523ZM302.41 7.92149L301.967 8.81808C303.161 9.40753 304.395 9.34381 305.552 8.67233L305.05 7.80743L304.548 6.94253C303.945 7.29249 303.42 7.30481 302.853 7.0249L302.41 7.92149ZM305.05 7.80743L305.552 8.67233C306.294 8.24161 306.989 8.06602 307.652 8.09164L307.69 7.09239L307.729 6.09313C306.632 6.05072 305.566 6.35182 304.548 6.94253L305.05 7.80743ZM307.69 7.09239L307.652 8.09164C308.507 8.12471 309.363 8.18929 310.219 8.28542L310.33 7.29167L310.442 6.29792C309.538 6.19637 308.633 6.1281 307.729 6.09313L307.69 7.09239ZM310.33 7.29167L310.219 8.28542C311.099 8.38436 311.98 8.48219 312.861 8.57892L312.97 7.5849L313.079 6.59088C312.2 6.49432 311.321 6.39667 310.442 6.29792L310.33 7.29167ZM312.97 7.5849L312.861 8.57892C313.836 8.68602 314.811 8.65331 315.784 8.48166L315.61 7.49688L315.436 6.5121C314.649 6.65109 313.864 6.67707 313.079 6.59088L312.97 7.5849ZM315.61 7.49688L315.784 8.48166C316.528 8.35029 317.271 8.37211 318.02 8.54939L318.25 7.57627L318.48 6.60315C317.47 6.36392 316.452 6.33282 315.436 6.5121L315.61 7.49688ZM318.25 7.57627L318.02 8.54939C318.96 8.7719 319.903 8.90345 320.848 8.94294L320.89 7.94382L320.932 6.94469C320.117 6.91064 319.3 6.79715 318.48 6.60315L318.25 7.57627ZM320.89 7.94382L320.848 8.94294C321.732 8.97987 322.616 9.01181 323.5 9.03876L323.53 8.03923L323.561 7.03969C322.684 7.01297 321.808 6.9813 320.932 6.94469L320.89 7.94382ZM323.53 8.03923L323.5 9.03876C324.318 9.06371 325.138 9.16416 325.96 9.34091L326.17 8.36324L326.38 7.38558C325.443 7.18398 324.502 7.06841 323.561 7.03969L323.53 8.03923ZM326.17 8.36324L325.96 9.34091C327.087 9.58319 328.201 9.40737 329.264 8.86545L328.81 7.97444L328.356 7.08343C327.66 7.43827 327.013 7.52165 326.38 7.38558L326.17 8.36324ZM328.81 7.97444L329.264 8.86545C329.985 8.49827 330.662 8.38121 331.319 8.46839L331.45 7.47708L331.582 6.48578C330.479 6.33935 329.396 6.55387 328.356 7.08343L328.81 7.97444ZM331.45 7.47708L331.319 8.46839C332.089 8.57059 332.871 8.80296 333.667 9.17501L334.09 8.26901L334.514 7.36302C333.55 6.91277 332.572 6.61719 331.582 6.48578L331.45 7.47708ZM334.09 8.26901L333.667 9.17501C334.742 9.67718 335.859 9.80259 336.98 9.51315L336.73 8.5449L336.48 7.57666C335.841 7.74167 335.199 7.68315 334.514 7.36302L334.09 8.26901ZM336.73 8.5449L336.98 9.51315C337.855 9.28737 338.729 9.06973 339.603 8.86021L339.37 7.88774L339.137 6.91527C338.252 7.12752 337.366 7.34799 336.48 7.57666L336.73 8.5449ZM339.37 7.88774L339.603 8.86021C340.311 8.69056 341.014 8.70851 341.729 8.91829L342.01 7.95875L342.292 6.99921C341.247 6.69254 340.189 6.66314 339.137 6.91527L339.37 7.88774ZM342.01 7.95875L341.729 8.91829C342.757 9.21999 343.797 9.27539 344.837 9.07836L344.65 8.09585L344.464 7.11335C343.743 7.24996 343.024 7.21396 342.292 6.99921L342.01 7.95875ZM344.65 8.09585L344.837 9.07836C345.628 8.92841 346.415 8.88875 347.202 8.95819L347.29 7.96206L347.378 6.96593C346.405 6.88011 345.433 6.92965 344.464 7.11335L344.65 8.09585ZM347.29 7.96206L347.202 8.95819C348.206 9.04675 349.207 8.95041 350.199 8.67415L349.93 7.71082L349.662 6.7475C348.894 6.96148 348.134 7.03264 347.378 6.96593L347.29 7.96206ZM349.93 7.71082L350.199 8.67415C350.87 8.48706 351.535 8.51451 352.224 8.76893L352.57 7.83093L352.917 6.89293C351.845 6.49696 350.75 6.44434 349.662 6.7475L349.93 7.71082ZM352.57 7.83093L352.224 8.76893C353.343 9.18251 354.482 9.15643 355.591 8.70029L355.21 7.77553L354.83 6.85077C354.178 7.11889 353.558 7.12974 352.917 6.89293L352.57 7.83093ZM355.21 7.77553L355.591 8.70029C356.354 8.38624 357.098 8.2445 357.829 8.25989L357.85 7.26011L357.871 6.26033C356.843 6.23869 355.827 6.44057 354.83 6.85077L355.21 7.77553ZM357.85 7.26011L357.829 8.25989C358.663 8.27743 359.498 8.35237 360.334 8.48494L360.49 7.49729L360.647 6.50964C359.723 6.363 358.797 6.27981 357.871 6.26033L357.85 7.26011ZM360.49 7.49729L360.334 8.48494C361.099 8.60636 361.879 8.86475 362.675 9.27178L363.13 8.38134L363.586 7.4909C362.622 6.99842 361.642 6.66744 360.647 6.50964L360.49 7.49729ZM363.13 8.38134L362.675 9.27178C363.279 9.58016 363.927 9.70929 364.595 9.61145C365.253 9.51509 365.855 9.2099 366.397 8.77408L365.77 7.99472L365.144 7.21537C364.806 7.48705 364.528 7.60004 364.306 7.63256C364.094 7.66359 363.862 7.63227 363.586 7.4909L363.13 8.38134ZM365.77 7.99472L366.397 8.77408C367.057 8.24358 367.557 8.20537 368.031 8.39951L368.41 7.47412L368.789 6.54874C367.503 6.02201 366.244 6.33087 365.144 7.21537L365.77 7.99472ZM368.41 7.47412L368.031 8.39951C368.933 8.76878 369.835 9.10163 370.739 9.3979L371.05 8.4477L371.362 7.4975C370.505 7.21654 369.648 6.90034 368.789 6.54874L368.41 7.47412ZM371.05 8.4477L370.739 9.3979C371.749 9.72912 372.773 9.84172 373.802 9.7262L373.69 8.73245L373.579 7.73869C372.848 7.82073 372.112 7.74351 371.362 7.4975L371.05 8.4477ZM373.69 8.73245L373.802 9.7262C374.851 9.60841 375.871 9.22839 376.856 8.6208L376.331 7.76977L375.805 6.91874C375.03 7.39715 374.29 7.65891 373.579 7.73869L373.69 8.73245ZM376.331 7.76977L376.856 8.6208C377.465 8.24456 377.984 8.22683 378.536 8.49324L378.971 7.59275L379.405 6.69227C378.197 6.1087 376.956 6.20898 375.805 6.91874L376.331 7.76977ZM378.971 7.59275L378.536 8.49324C379.517 8.96701 380.518 9.24988 381.537 9.32537L381.611 8.32811L381.684 7.33084C380.943 7.27584 380.184 7.06847 379.405 6.69227L378.971 7.59275ZM381.611 8.32811L381.537 9.32537C382.57 9.40196 383.594 9.24587 384.6 8.87047L384.251 7.93354L383.901 6.99661C383.147 7.27779 382.411 7.38474 381.684 7.33084L381.611 8.32811ZM384.251 7.93354L384.6 8.87047C385.309 8.60597 385.995 8.55576 386.679 8.70365L386.891 7.72618L387.102 6.74872C386.026 6.5165 384.952 6.60454 383.901 6.99661L384.251 7.93354ZM386.891 7.72618L386.679 8.70365C387.568 8.89561 388.457 9.07491 389.346 9.24154L389.531 8.25866L389.715 7.27577C388.844 7.11253 387.973 6.93684 387.102 6.74872L386.891 7.72618ZM389.531 8.25866L389.346 9.24154C390.336 9.42708 391.329 9.44463 392.321 9.29345L392.171 8.30486L392.02 7.31628C391.252 7.43337 390.485 7.42012 389.715 7.27577L389.531 8.25866ZM392.171 8.30486L392.321 9.29345C393.167 9.16449 393.989 9.08393 394.787 9.05098L394.745 8.05183L394.704 7.05268C393.829 7.08884 392.934 7.17697 392.02 7.31628L392.171 8.30486ZM394.745 8.05183L394.79 9.05082L395.945 8.99899L395.9 8L395.855 7.00101L394.7 7.05284L394.745 8.05183ZM395.9 8L395.9 9L396 9L396 8L396 7L395.9 7L395.9 8Z" fill="#5356D8"/>
</svg>
