<svg width="118" height="75" viewBox="0 0 118 75" fill="none" xmlns="http://www.w3.org/2000/svg">
<path d="M60.5303 50.1667C56.1225 57.0841 49.9541 61.0592 42.865 63.8393C39.8168 65.0223 36.6332 65.6348 33.4363 65.642C25.9699 65.6961 19.02 63.5648 12.7154 59.6087C8.94866 57.2358 6.44796 53.921 6.52409 49.1598C6.54593 48.4917 6.56082 47.799 6.72585 47.1697C7.13677 45.5438 8.59822 44.7318 10.264 45.2916C11.0254 45.5521 11.6919 46.1307 12.453 46.5766C12.9329 48.2674 11.0898 49.6908 12.2195 51.4354C13.2655 53.0714 14.5356 54.379 16.1939 55.2851C22.2688 58.618 28.7121 60.7342 35.6834 59.8674C42.6547 59.0006 48.4451 55.5565 53.322 50.5712C53.5494 50.3478 53.6302 49.9806 53.7494 49.6555C53.7881 49.5122 53.7708 49.3582 53.7782 49.0119C52.4514 48.4353 51.0616 47.8236 49.6894 47.1805C46.299 45.5746 43.1607 43.5528 40.6559 40.6893C35.9602 35.3233 35.7167 29.2496 39.9518 23.4932C41.8978 20.8491 44.2799 18.7167 47.1295 17.1135C50.9056 14.956 54.9238 14.7686 58.9047 16.3129C63.2104 17.9767 65.7147 21.2111 66.1488 25.9068C66.5207 30.0112 66.0263 34.0438 64.9555 38.0017C64.464 39.8094 63.99 41.5855 63.4037 43.7113C68.5103 44.7507 73.2603 43.3229 77.9745 42.5143C83.6777 41.5574 91.3521 37.3931 95.994 33.163C94.5594 32.1139 92.7772 32.355 91.3561 31.7258C89.9908 31.1071 88.6116 30.4395 87.4109 29.5624C86.5068 28.8923 86.5817 27.7589 87.1245 26.784C87.6429 25.8161 88.4508 25.2161 89.6069 25.4704C90.9307 25.7566 92.2053 26.2421 93.5571 26.4409C98.4265 27.2034 103.296 27.7804 108.224 26.8848C108.727 26.7949 109.23 26.7051 109.73 26.6956C111.019 26.6739 112.084 27.1659 112.676 28.3217C113.276 29.5019 112.918 30.6626 112.054 31.6228C110.374 33.5294 108.555 35.3167 106.945 37.2828C104.475 40.3142 102.238 43.5175 101.164 47.3704C101.037 47.8564 100.83 48.3387 100.585 48.779C99.8077 50.3236 98.6503 50.9964 97.386 50.6404C96.0972 50.2913 95.1904 49.1454 95.2134 47.5502C95.2254 46.3817 95.5274 45.2104 95.7805 44.053C95.9669 43.1263 96.2337 42.2033 96.6621 40.546C90.6274 43.8741 85.3088 47.2107 79.0883 48.394C72.997 49.567 66.9449 50.2258 60.5303 50.1667ZM57.2966 43.6179C59.2137 39.102 60.5433 34.9383 60.7832 30.4748C60.8586 28.9707 60.8641 27.4069 60.6006 25.9195C60.018 22.5633 58.1963 20.9887 54.7975 20.4707C52.5025 20.116 50.3392 20.5977 48.5625 21.9757C46.9852 23.2178 45.4251 24.6139 44.2351 26.1961C41.2987 30.1011 41.549 33.6839 44.937 37.144C48.1923 40.5094 52.197 42.603 57.2966 43.6179Z" fill="#0057FC"/>
</svg>
