<svg width="112" height="58" viewBox="0 0 112 58" fill="none" xmlns="http://www.w3.org/2000/svg">
<path d="M40.5411 30.6268C48.4638 22.8027 56.3866 18.913 74.5087 22.2438C74.8957 21.752 75.3966 21.2156 75.8064 20.612C78.8343 16.1634 82.8868 12.855 87.8271 10.6642C91.4015 9.07703 95.1352 7.80277 98.7778 6.37208C99.4381 6.12618 100.075 5.83557 100.667 5.58967C100.554 4.38252 99.7568 4.62844 99.2787 4.60609C96.1141 4.47196 92.9496 3.73425 89.7623 4.42724C89.3297 4.51666 88.8516 4.44962 88.4191 4.33784C87.4856 4.1143 86.7571 3.62246 86.6433 2.5718C86.5294 1.49878 87.2124 0.850494 88.1003 0.559885C89.0793 0.24692 90.172 0.0681273 91.2193 0.0457727C93.3366 -0.0212911 95.4766 -0.021302 97.5939 0.0904709C101.533 0.314017 105.448 0.604638 109.387 0.939957C111.641 1.14115 112.734 2.97421 111.459 4.67316C107.725 9.63588 105.38 15.2693 103.035 20.9473C102.534 22.1545 101.669 23.2275 100.804 24.2334C100.235 24.9041 98.7323 24.524 98.5729 23.6746C98.3452 22.5345 98.0948 21.305 98.2997 20.1872C98.6412 18.2871 99.2787 16.454 99.8478 14.5986C100.167 13.5032 100.576 12.4525 101.009 11.2454C92.13 12.542 83.2966 17.9294 79.7678 24.1664C80.8834 24.837 82.09 25.4182 83.16 26.2007C84.9813 27.5196 86.9165 28.7714 88.4191 30.3809C90.9689 33.0859 91.0827 36.2826 89.3525 39.4793C87.8271 42.3183 85.5277 44.4644 82.5908 45.8727C78.9709 47.6164 75.6698 46.7222 73.5753 43.3466C71.3669 39.7699 70.8433 35.8355 71.4808 31.7222C71.7084 30.2692 72.0272 28.8608 72.3687 27.1395C66.7909 25.3065 61.418 25.53 56.0906 26.8265C52.3797 27.7207 49.0102 29.2855 46.3693 32.527C47.2572 33.1529 47.9629 33.6671 48.6459 34.1589C54.4969 38.3615 56.2955 44.3302 55.863 51.059C55.5898 55.1722 52.5163 57.81 48.3272 57.9889C44.5708 58.1454 41.4973 56.6476 39.3117 53.6744C36.4431 49.7847 35.1454 45.4256 36.2382 40.6194C36.6252 38.8757 37.1944 37.1767 37.7636 35.1872C37.0578 34.8295 36.3293 34.2706 35.5325 34.1142C27.2682 32.527 18.9584 32.4152 10.6942 34.0248C8.7818 34.4048 6.91495 35.1201 5.11639 35.8578C4.38786 36.1708 3.887 37.0202 3.06741 37.8474C4.1602 38.5851 5.00255 39.144 5.84491 39.7252C5.70831 39.8146 5.50342 40.0381 5.34406 40.0157C4.2968 39.8369 3.24957 39.7252 2.24785 39.3899C0.26716 38.7416 -0.461391 37.0426 0.289904 35.1201C0.859066 33.6671 1.92907 32.5493 3.34059 31.9458C5.54894 31.0069 7.80286 30.0456 10.1478 29.5762C19.3227 27.7207 28.5204 27.9666 37.6725 29.9562C38.5604 30.2468 39.4255 30.4033 40.5411 30.6268ZM43.2276 36.6402C40.2907 41.1112 40.1541 45.5597 42.7722 50.1201C43.7057 51.752 45.0944 52.825 47.0068 53.2273C49.42 53.7415 51.2641 52.4896 51.469 50.0977C51.6967 47.3704 51.1275 44.7549 49.9892 42.2736C48.6915 39.4346 46.5287 37.4897 43.2276 36.6402ZM77.5822 28.7938C76.1934 31.3422 75.8064 33.9129 76.1707 36.5508C76.3756 37.9815 76.8309 39.4345 77.4228 40.7535C78.0603 42.2289 79.3352 42.6089 80.7695 41.9606C82.7274 41.0888 84.2983 39.7028 85.3911 37.8921C86.5522 35.9472 86.3473 34.2483 84.6626 32.7058C82.6819 30.9174 80.4052 29.5762 77.5822 28.7938Z" fill="#0057FC"/>
</svg>
