<svg width="1280" height="745" viewBox="0 0 1280 745" fill="none" xmlns="http://www.w3.org/2000/svg">
<path d="M302.5 158L303.991 163.575L309.536 161.201L305.851 165.778L311.274 168.392L305.188 168.525L306.405 174.159L302.5 169.747L298.595 174.159L299.812 168.525L293.726 168.392L299.148 165.778L295.463 161.201L301.008 163.575L302.5 158Z" fill="white" fill-opacity="0.58"/>
<path d="M262.567 364.713L266.545 367.804L269.149 363.228L269 368.355L274.15 367.312L269.987 370.615L273.805 373.891L268.763 372.883L268.374 378.01L266.249 373.45L261.946 376.568L264.339 371.89L259.362 370.65L264.47 369.377L262.567 364.713Z" fill="#FFFCB0" fill-opacity="0.58"/>
<path d="M972.5 208L973.991 213.575L979.536 211.2L975.851 215.778L981.274 218.391L975.188 218.524L976.405 224.158L972.5 219.747L968.595 224.158L969.812 218.524L963.726 218.391L969.148 215.778L965.463 211.2L971.008 213.575L972.5 208Z" fill="white" fill-opacity="0.58"/>
<path d="M262.259 46.1306L264.333 47.7419L265.691 45.3561L265.613 48.0291L268.299 47.4857L266.128 49.2077L268.119 50.9159L265.49 50.39L265.287 53.0635L264.179 50.6858L261.935 52.3114L263.183 49.8724L260.588 49.226L263.252 48.5622L262.259 46.1306Z" fill="white" fill-opacity="0.58"/>
<path d="M983.263 66.1306L985.337 67.7419L986.695 65.3561L986.617 68.0291L989.303 67.4857L987.132 69.2077L989.123 70.9159L986.494 70.39L986.291 73.0635L985.183 70.6858L982.939 72.3114L984.187 69.8724L981.592 69.226L984.256 68.5622L983.263 66.1306Z" fill="white" fill-opacity="0.58"/>
<path d="M332.5 478L333.991 483.575L339.536 481.2L335.851 485.778L341.274 488.391L335.188 488.524L336.405 494.158L332.5 489.747L328.595 494.158L329.812 488.524L323.726 488.391L329.148 485.778L325.463 481.2L331.008 483.575L332.5 478Z" fill="#FFFCB0" fill-opacity="0.58"/>
<path d="M452.196 571.433L456.174 574.523L458.778 569.948L458.629 575.074L463.779 574.032L459.616 577.335L463.434 580.611L458.392 579.602L458.002 584.73L455.878 580.17L451.575 583.287L453.967 578.61L448.991 577.37L454.099 576.097L452.196 571.433Z" fill="#FFFCB0" fill-opacity="0.58"/>
<path d="M1012.5 528L1013.99 533.575L1019.54 531.2L1015.85 535.778L1021.27 538.391L1015.19 538.524L1016.4 544.158L1012.5 539.747L1008.59 544.158L1009.81 538.524L1003.73 538.391L1009.15 535.778L1005.46 531.2L1011.01 533.575L1012.5 528Z" fill="#FFFCB0" fill-opacity="0.58"/>
<path d="M911.467 347.576L915.444 350.666L918.048 346.09L917.899 351.217L923.049 350.175L918.886 353.477L922.704 356.753L917.662 355.745L917.273 360.872L915.148 356.312L910.845 359.43L913.238 354.752L908.261 353.512L913.37 352.239L911.467 347.576Z" fill="#FFFCB0" fill-opacity="0.58"/>
<path d="M938.182 655.948L936.373 649.535L930.061 646.605L936.824 644.966L939.852 639.03L941.662 645.443L947.974 648.374L941.211 650.013L938.182 655.948Z" fill="white" fill-opacity="0.58"/>
<path d="M898.233 474.161L893.593 470.655L887.658 471.946L891.497 467.24L890.473 461.515L895.113 465.02L901.048 463.729L897.209 468.436L898.233 474.161Z" fill="#FFFCB0" fill-opacity="0.58"/>
<path d="M276.287 540.355L274.478 533.942L268.166 531.012L274.929 529.373L277.958 523.438L279.767 529.851L286.079 532.781L279.316 534.42L276.287 540.355Z" fill="white" fill-opacity="0.58"/>
<path d="M251.636 680.48L249.216 678.652L246.122 679.325L248.123 676.871L247.589 673.886L250.009 675.714L253.103 675.04L251.102 677.495L251.636 680.48Z" fill="white" fill-opacity="0.58"/>
<path d="M1038.96 338.802L1037.15 332.389L1030.84 329.458L1037.6 327.819L1040.63 321.884L1042.44 328.297L1048.75 331.227L1041.99 332.866L1038.96 338.802Z" fill="#FFFCB0" fill-opacity="0.58"/>
<path d="M265.916 258.801L264.107 252.388L257.795 249.457L264.558 247.818L267.587 241.883L269.396 248.296L275.708 251.226L268.945 252.865L265.916 258.801Z" fill="#FFFCB0" fill-opacity="0.58"/>
<path d="M410.74 347.453L406.1 343.947L400.165 345.238L404.004 340.532L402.98 334.807L407.62 338.312L413.555 337.021L409.716 341.728L410.74 347.453Z" fill="#FFFCB0" fill-opacity="0.58"/>
<path d="M770.572 158L769.081 163.575L763.536 161.2L767.221 165.778L761.798 168.391L767.885 168.524L766.667 174.158L770.572 169.747L774.477 174.158L773.26 168.524L779.347 168.391L773.924 165.778L777.609 161.2L772.064 163.575L770.572 158Z" fill="white" fill-opacity="0.58"/>
<path d="M810.505 364.713L806.527 367.804L803.923 363.228L804.072 368.355L798.922 367.312L803.085 370.615L799.267 373.891L804.31 372.883L804.699 378.01L806.823 373.45L811.126 376.568L808.734 371.89L813.71 370.65L808.602 369.377L810.505 364.713Z" fill="#FFFCB0" fill-opacity="0.58"/>
<path d="M100.572 208L99.0807 213.574L93.5358 211.2L97.2208 215.777L91.7979 218.391L97.8846 218.524L96.6673 224.158L100.572 219.746L104.477 224.158L103.26 218.524L109.347 218.391L103.924 215.777L107.609 211.2L102.064 213.574L100.572 208Z" fill="white" fill-opacity="0.58"/>
<path d="M810.814 46.1301L808.74 47.7414L807.382 45.3556L807.46 48.0287L804.775 47.4853L806.945 49.2072L804.954 50.9154L807.583 50.3895L807.786 53.063L808.894 50.6854L811.138 52.3109L809.89 49.8719L812.485 49.2255L809.822 48.5617L810.814 46.1301Z" fill="white" fill-opacity="0.58"/>
<path d="M89.8088 66.1301L87.7349 67.7414L86.3773 65.3556L86.4548 68.0287L83.7696 67.4853L85.9402 69.2072L83.9495 70.9154L86.5786 70.3895L86.7814 73.063L87.8893 70.6854L90.1329 72.3109L88.8853 69.8719L91.4802 69.2255L88.8166 68.5617L89.8088 66.1301Z" fill="white" fill-opacity="0.58"/>
<path d="M740.572 477.999L739.081 483.574L733.536 481.199L737.221 485.777L731.798 488.39L737.885 488.523L736.667 494.157L740.572 489.746L744.477 494.157L743.26 488.523L749.347 488.39L743.924 485.777L747.609 481.199L742.064 483.574L740.572 477.999Z" fill="#FFFCB0" fill-opacity="0.58"/>
<path d="M620.874 571.433L616.896 574.523L614.293 569.948L614.441 575.074L609.291 574.032L613.454 577.335L609.636 580.611L614.679 579.602L615.068 584.73L617.193 580.17L621.495 583.287L619.103 578.61L624.079 577.37L618.971 576.097L620.874 571.433Z" fill="#FFFCB0" fill-opacity="0.58"/>
<path d="M60.5723 527.999L59.0807 533.574L53.5358 531.199L57.2208 535.777L51.7979 538.39L57.8846 538.523L56.6673 544.157L60.5723 539.746L64.4772 544.157L63.26 538.523L69.3466 538.39L63.9238 535.777L67.6087 531.199L62.0638 533.574L60.5723 527.999Z" fill="#FFFCB0" fill-opacity="0.58"/>
<path d="M161.604 347.575L157.627 350.665L155.023 346.089L155.172 351.216L150.022 350.174L154.185 353.476L150.367 356.752L155.409 355.744L155.798 360.871L157.923 356.311L162.226 359.429L159.833 354.751L164.81 353.511L159.701 352.238L161.604 347.575Z" fill="#FFFCB0" fill-opacity="0.58"/>
<path d="M134.89 655.948L136.699 649.535L143.011 646.605L136.248 644.966L133.22 639.03L131.41 645.443L125.098 648.373L131.861 650.013L134.89 655.948Z" fill="white" fill-opacity="0.58"/>
<path d="M174.84 474.161L179.48 470.655L185.415 471.946L181.576 467.239L182.6 461.514L177.96 465.02L172.025 463.729L175.864 468.436L174.84 474.161Z" fill="#FFFCB0" fill-opacity="0.58"/>
<path d="M796.786 540.355L798.595 533.942L804.907 531.012L798.144 529.373L795.115 523.437L793.306 529.85L786.994 532.781L793.757 534.42L796.786 540.355Z" fill="white" fill-opacity="0.58"/>
<path d="M821.437 680.479L823.857 678.652L826.951 679.325L824.95 676.871L825.484 673.886L823.064 675.713L819.97 675.04L821.971 677.494L821.437 680.479Z" fill="white" fill-opacity="0.58"/>
<path d="M34.1146 338.801L35.9241 332.388L42.2359 329.458L35.4729 327.819L32.4442 321.884L30.6348 328.297L24.323 331.227L31.0859 332.866L34.1146 338.801Z" fill="#FFFCB0" fill-opacity="0.58"/>
<path d="M807.157 258.8L808.966 252.387L815.278 249.457L808.515 247.818L805.486 241.883L803.677 248.296L797.365 251.226L804.128 252.865L807.157 258.8Z" fill="#FFFCB0" fill-opacity="0.58"/>
<path d="M662.333 347.453L666.973 343.947L672.908 345.238L669.069 340.531L670.093 334.806L665.453 338.312L659.518 337.021L663.357 341.728L662.333 347.453Z" fill="#FFFCB0" fill-opacity="0.58"/>
<path d="M1180.5 128L1181.99 133.575L1187.53 131.2L1183.85 135.778L1189.27 138.391L1183.19 138.524L1184.4 144.158L1180.5 139.747L1176.59 144.158L1177.81 138.524L1171.72 138.391L1177.15 135.778L1173.46 131.2L1179.01 133.575L1180.5 128Z" fill="white" fill-opacity="0.58"/>
<path d="M1140.57 334.713L1144.54 337.804L1147.15 333.228L1147 338.355L1152.15 337.312L1147.99 340.615L1151.8 343.891L1146.76 342.883L1146.37 348.01L1144.25 343.45L1139.94 346.568L1142.34 341.89L1137.36 340.65L1142.47 339.377L1140.57 334.713Z" fill="#FFFCB0" fill-opacity="0.58"/>
<path d="M1140.26 16.1301L1142.33 17.7414L1143.69 15.3556L1143.61 18.0287L1146.3 17.4853L1144.13 19.2072L1146.12 20.9154L1143.49 20.3895L1143.28 23.063L1142.18 20.6854L1139.93 22.3109L1141.18 19.8719L1138.59 19.2255L1141.25 18.5617L1140.26 16.1301Z" fill="white" fill-opacity="0.58"/>
<path d="M1210.5 447.999L1211.99 453.574L1217.53 451.199L1213.85 455.777L1219.27 458.39L1213.19 458.523L1214.4 464.157L1210.5 459.746L1206.59 464.157L1207.81 458.523L1201.72 458.39L1207.15 455.777L1203.46 451.199L1209.01 453.574L1210.5 447.999Z" fill="#FFFCB0" fill-opacity="0.58"/>
<path d="M1155.45 510.355L1153.64 503.942L1147.32 501.012L1154.09 499.373L1157.12 493.437L1158.93 499.85L1165.24 502.78L1158.47 504.42L1155.45 510.355Z" fill="white" fill-opacity="0.58"/>
<path d="M1130.79 650.479L1128.37 648.651L1125.28 649.324L1127.28 646.87L1126.75 643.885L1129.17 645.713L1132.26 645.04L1130.26 647.494L1130.79 650.479Z" fill="white" fill-opacity="0.58"/>
<path d="M1000.96 627.802L999.148 621.389L992.836 618.459L999.599 616.82L1002.63 610.885L1004.44 617.298L1010.75 620.228L1003.99 621.867L1000.96 627.802Z" fill="#FFFCB0" fill-opacity="0.58"/>
<path d="M1213.6 257.755L1208.96 254.249L1203.02 255.54L1206.86 250.834L1205.84 245.109L1210.48 248.614L1216.41 247.323L1212.57 252.03L1213.6 257.755Z" fill="#FFFCB0" fill-opacity="0.58"/>
<path d="M1081.81 587.246L1080.87 583.915L1077.59 582.393L1081.11 581.542L1082.68 578.459L1083.62 581.79L1086.9 583.312L1083.39 584.163L1081.81 587.246Z" fill="#FFFCB0" fill-opacity="0.58"/>
<path d="M1202.46 627.755L1197.82 624.249L1191.88 625.54L1195.72 620.834L1194.7 615.109L1199.34 618.614L1205.27 617.323L1201.43 622.03L1202.46 627.755Z" fill="#FFFCB0" fill-opacity="0.58"/>
</svg>
