<svg width="377" height="349" viewBox="0 0 377 349" fill="none" xmlns="http://www.w3.org/2000/svg">
<path d="M341.879 73.9102L341.03 77.0824L337.875 75.7312L339.972 78.3358L336.886 79.8232L340.349 79.8988L339.657 83.1047L341.879 80.5944L344.101 83.1047L343.408 79.8988L346.872 79.8232L343.786 78.3358L345.883 75.7312L342.727 77.0824L341.879 73.9102Z" fill="white" fill-opacity="0.58"/>
<path d="M44.4385 221.543L42.1752 223.302L40.6935 220.698L40.7781 223.615L37.8477 223.022L40.2165 224.901L38.044 226.766L40.9132 226.192L41.1346 229.109L42.3437 226.515L44.7922 228.289L43.4307 225.627L46.2626 224.921L43.3557 224.197L44.4385 221.543Z" fill="#FFFCB0" fill-opacity="0.58"/>
<path d="M361.879 132.359L361.03 135.532L357.875 134.18L359.972 136.785L356.886 138.272L360.349 138.348L359.657 141.554L361.879 139.044L364.101 141.554L363.408 138.348L366.872 138.272L363.786 136.785L365.883 134.18L362.727 135.532L361.879 132.359Z" fill="white" fill-opacity="0.58"/>
<path d="M53.143 10.2528L51.9629 11.1697L51.1904 9.81214L51.2345 11.3332L49.7065 11.024L50.9416 12.0038L49.8089 12.9758L51.3049 12.6766L51.4203 14.1979L52.0508 12.8449L53.3274 13.7699L52.6175 12.382L54.0941 12.0142L52.5784 11.6365L53.143 10.2528Z" fill="white" fill-opacity="0.58"/>
<path d="M353.143 31.6337L351.963 32.5506L351.19 31.193L351.234 32.714L349.707 32.4048L350.942 33.3847L349.809 34.3567L351.305 34.0575L351.42 35.5787L352.051 34.2258L353.327 35.1508L352.618 33.7629L354.094 33.3951L352.578 33.0174L353.143 31.6337Z" fill="white" fill-opacity="0.58"/>
<path d="M51.8787 296.002L51.03 299.174L47.8748 297.823L49.9716 300.428L46.8859 301.915L50.3494 301.991L49.6567 305.196L51.8787 302.686L54.1008 305.196L53.4081 301.991L56.8716 301.915L53.7858 300.428L55.8827 297.823L52.7275 299.174L51.8787 296.002Z" fill="#FFFCB0" fill-opacity="0.58"/>
<path d="M364.438 339.168L362.175 340.927L360.694 338.323L360.778 341.24L357.848 340.647L360.216 342.526L358.044 344.391L360.913 343.817L361.135 346.734L362.344 344.14L364.792 345.914L363.431 343.252L366.263 342.546L363.356 341.822L364.438 339.168Z" fill="#FFFCB0" fill-opacity="0.58"/>
<path d="M371.879 244.453L371.03 247.625L367.875 246.274L369.972 248.879L366.886 250.366L370.349 250.442L369.657 253.648L371.879 251.137L374.101 253.648L373.408 250.442L376.872 250.366L373.786 248.879L375.883 246.274L372.727 247.625L371.879 244.453Z" fill="#FFFCB0" fill-opacity="0.58"/>
<path d="M24.4385 111.784L22.1752 113.543L20.6935 110.939L20.7781 113.856L17.8477 113.263L20.2165 115.143L18.044 117.007L20.9132 116.433L21.1346 119.351L22.3437 116.756L24.7922 118.53L23.4307 115.868L26.2626 115.163L23.3557 114.438L24.4385 111.784Z" fill="#FFFCB0" fill-opacity="0.58"/>
<path d="M18.7763 285.347L19.7408 281.928L23.1054 280.366L19.5003 279.493L17.8858 276.329L16.9213 279.747L13.5567 281.309L17.1618 282.183L18.7763 285.347Z" fill="white" fill-opacity="0.58"/>
<path d="M26.5708 188.496L29.0445 186.627L32.2082 187.315L30.1619 184.806L30.7077 181.755L28.234 183.623L25.0704 182.935L27.1167 185.444L26.5708 188.496Z" fill="#FFFCB0" fill-opacity="0.58"/>
<path d="M338.78 283.735L339.745 280.316L343.109 278.754L339.504 277.88L337.89 274.716L336.925 278.135L333.561 279.697L337.166 280.571L338.78 283.735Z" fill="white" fill-opacity="0.58"/>
<path d="M26.8647 346.802L28.1545 345.828L29.8041 346.187L28.7371 344.878L29.0217 343.287L27.7319 344.262L26.0824 343.903L27.1494 345.211L26.8647 346.802Z" fill="white" fill-opacity="0.58"/>
<path d="M46.8628 308.422L48.1526 307.448L49.8021 307.807L48.7352 306.499L49.0198 304.907L47.73 305.882L46.0805 305.523L47.1474 306.831L46.8628 308.422Z" fill="white" fill-opacity="0.58"/>
<path d="M78.7802 156.335L79.7447 152.917L83.1093 151.355L79.5042 150.481L77.8897 147.317L76.9252 150.736L73.5606 152.298L77.1657 153.171L78.7802 156.335Z" fill="#FFFCB0" fill-opacity="0.58"/>
<path d="M226.57 18.6222L229.044 16.7535L232.207 17.4418L230.161 14.9328L230.707 11.881L228.233 13.7497L225.069 13.0615L227.116 15.5705L226.57 18.6222Z" fill="#FFFCB0" fill-opacity="0.58"/>
<path d="M28.7792 73.6995L29.7437 70.2809L33.1083 68.719L29.5032 67.8452L27.8887 64.6813L26.9242 68.0999L23.5597 69.6618L27.1647 70.5356L28.7792 73.6995Z" fill="#FFFCB0" fill-opacity="0.58"/>
<path d="M316.57 150.951L319.044 149.083L322.207 149.771L320.161 147.262L320.707 144.21L318.233 146.079L315.069 145.391L317.116 147.9L316.57 150.951Z" fill="#FFFCB0" fill-opacity="0.58"/>
</svg>
