<svg width="333" height="332" viewBox="0 0 333 332" fill="none" xmlns="http://www.w3.org/2000/svg">
<g opacity="0.7">
<path d="M0.968044 109.142C12.779 97.5536 25.4097 87.0768 39.2453 82.4633C53.0536 77.8834 68.2858 79.8407 79.403 91.4341C92.678 105.285 98.919 131.097 114.02 140.636C123.796 146.804 135.204 144.785 146.04 143.742C156.902 142.7 168.749 143.241 176.781 153.183C191.178 171.011 186.072 209.625 201.669 225.33C211.966 235.676 226.266 230.962 239.041 232.177C255.201 233.73 270.386 246.099 279.269 264.971C288.153 283.842 290.545 308.844 285.647 331.217" stroke="#B0D5FF" stroke-width="0.740121" stroke-miterlimit="10"/>
<path d="M2.44112 106.28C14.1976 94.8591 26.8284 84.6519 40.5823 80.2743C48.8783 77.614 57.6945 77.3124 65.803 80.0097C71.0995 81.7628 76.0967 84.8301 80.467 89.3124C93.7146 102.962 100.201 128.201 114.947 138.076C120.19 141.582 125.841 142.829 131.71 143.066C136.678 143.27 141.782 142.765 146.804 142.395C153.846 141.858 161.352 141.825 167.959 144.388C171.618 145.804 175.004 147.994 177.899 151.297C183.608 157.768 186.535 167.169 188.89 177.211C192.311 191.667 194.615 207.504 202.101 217.783C202.893 218.895 203.768 219.906 204.696 220.883C214.912 231.465 228.612 227.762 240.65 229.651C252.443 231.54 263.531 239.696 271.946 252.266C274.378 255.906 276.564 259.916 278.505 264.23C281.977 272.014 284.522 280.741 286.084 289.806C288.44 303.284 288.641 317.47 286.384 330.51" stroke="#B0D5FF" stroke-width="0.740121" stroke-miterlimit="10"/>
<path d="M3.88493 103.383C15.6143 92.1643 28.2179 82.2267 41.9173 78.0175C50.186 75.4583 58.9203 75.2242 66.9743 77.9214C72.2435 79.6745 77.2133 82.6744 81.5836 87.123C94.8037 100.536 101.481 125.236 115.899 135.415C121.088 139.055 126.603 140.64 132.417 141.146C137.358 141.585 142.489 141.249 147.539 140.947C154.635 140.544 162.196 140.512 168.885 142.872C172.571 144.187 175.984 146.209 178.988 149.343C184.834 155.41 188.061 164.238 190.715 173.775C194.573 187.489 197.477 202.788 205.072 213.201C205.891 214.313 206.738 215.358 207.667 216.335C217.828 227.119 230.874 224.426 242.176 227.057C253.232 229.62 263.474 238.214 271.371 251.121C273.666 254.861 275.771 258.973 277.63 263.387C280.993 271.34 283.564 280.202 285.29 289.334C287.865 302.914 288.612 316.998 287.037 329.701" stroke="#B0D5FF" stroke-width="0.740121" stroke-miterlimit="10"/>
<path d="M5.33265 100.516C17.0075 89.4667 29.6113 79.7987 43.2562 75.7917C51.4704 73.3672 60.1228 73.1668 68.1222 75.8639C73.3368 77.6171 78.2793 80.5833 82.6495 84.9645C95.8694 98.1755 102.764 122.336 116.856 132.785C121.963 136.593 127.368 138.481 133.156 139.223C138.069 139.898 143.2 139.697 148.305 139.53C155.456 139.262 163.098 139.229 169.842 141.387C173.582 142.601 177.05 144.489 180.109 147.387C186.118 153.049 189.59 161.271 192.571 170.336C196.893 183.343 200.397 198.035 208.074 208.616C208.893 209.728 209.74 210.807 210.669 211.818C220.776 222.838 233.194 221.156 243.732 224.46C254.079 227.697 263.421 236.729 270.854 250.006C273.013 253.848 275.008 258.094 276.813 262.576C280.067 270.731 282.666 279.694 284.528 288.893C287.349 302.574 288.614 316.557 287.722 328.89" stroke="#B0D5FF" stroke-width="0.740121" stroke-miterlimit="10"/>
<path d="M6.77646 97.6553C18.4241 86.8077 31.0008 77.4093 44.5639 73.5707C52.7236 71.2474 61.3215 71.1143 69.2662 73.8114C74.4535 75.5646 79.3686 78.497 83.7115 82.7772C96.9313 95.786 104.017 119.408 117.781 130.159C122.833 134.102 128.103 136.294 133.836 137.339C138.722 138.216 143.881 138.217 149.04 138.151C156.245 138.018 163.943 137.952 170.795 139.941C174.563 141.02 178.085 142.807 181.226 145.469C187.398 150.727 191.115 158.41 194.424 166.902C199.182 179.168 203.286 193.32 211.099 204.037C211.919 205.183 212.793 206.261 213.695 207.272C223.72 218.495 235.538 217.823 245.34 221.835C254.95 225.745 263.418 235.215 270.361 248.863C272.383 252.839 274.269 257.153 276.019 261.735C279.164 270.059 281.791 279.191 283.817 288.423C286.883 302.205 288.64 316.088 288.457 328.083" stroke="#B0D5FF" stroke-width="0.740121" stroke-miterlimit="10"/>
<path d="M8.22222 94.7567C19.8427 84.0777 32.3922 74.9488 45.9008 71.3124C54.006 69.0901 62.5221 69.0581 70.4395 71.7216C75.5995 73.4747 80.4873 76.3734 84.8028 80.5862C97.9951 93.3928 105.326 116.475 118.735 127.496C123.733 131.608 128.867 134.102 134.572 135.384C139.431 136.497 144.618 136.666 149.804 136.667C157.037 136.669 164.843 136.603 171.75 138.39C175.572 139.368 179.122 140.986 182.317 143.446C188.653 148.3 192.643 155.41 196.251 163.397C201.445 174.955 206.176 188.535 214.072 199.386C214.919 200.532 215.766 201.644 216.667 202.689C226.638 214.113 237.829 214.486 246.867 219.172C255.769 223.79 263.336 233.664 269.815 247.648C271.701 251.726 273.478 256.174 275.173 260.824C278.209 269.316 280.863 278.583 283.026 287.849C286.31 301.698 288.613 315.514 289.112 327.172" stroke="#B0D5FF" stroke-width="0.740121" stroke-miterlimit="10"/>
<path d="M9.668 91.8929C21.234 81.3824 33.7837 72.5568 47.2378 69.0889C55.2884 66.9677 63.75 67.003 71.5855 69.6665C76.6909 71.4196 81.5514 74.2846 85.8668 78.4299C99.059 91.0344 106.581 113.578 119.663 124.868C124.606 129.148 129.603 131.946 135.281 133.463C140.113 134.778 145.3 135.15 150.541 135.252C157.828 135.388 165.689 135.323 172.678 136.941C176.527 137.818 180.131 139.301 183.408 141.526C189.88 145.975 194.17 152.513 198.078 159.994C203.736 170.811 209.04 183.852 217.045 194.838C217.892 195.984 218.766 197.096 219.668 198.174C229.584 209.835 240.148 211.218 248.449 216.611C256.614 221.903 263.336 232.248 269.296 246.57C271.046 250.748 272.741 255.298 274.355 260.049C277.281 268.743 279.963 278.11 282.289 287.444C285.82 301.395 288.64 315.109 289.822 326.431" stroke="#B0D5FF" stroke-width="0.740122" stroke-miterlimit="10"/>
<path d="M11.1411 88.9965C22.6799 78.6881 35.2025 70.1321 48.5748 66.8326C56.5709 64.8462 64.9506 64.9152 72.7588 67.5787C77.8369 69.3318 82.6701 72.1631 86.9581 76.2073C100.123 88.5759 107.862 110.648 120.59 122.207C125.479 126.656 130.339 129.723 135.963 131.544C140.768 133.095 145.982 133.601 151.25 133.804C158.593 134.075 166.536 133.976 173.579 135.426C177.482 136.202 181.141 137.517 184.472 139.573C191.108 143.617 195.643 149.549 199.878 156.558C205.972 166.668 211.876 179.136 220.018 190.257C220.865 191.436 221.739 192.548 222.64 193.627C232.502 205.489 242.439 207.917 249.977 213.984C257.432 219.983 263.254 230.733 268.75 245.425C270.363 249.738 271.95 254.355 273.509 259.241C276.326 268.103 279.008 277.639 281.498 287.007C285.247 301.058 288.614 314.705 290.477 325.657" stroke="#B0D5FF" stroke-width="0.740122" stroke-miterlimit="10"/>
<path d="M12.5859 86.1346C24.0975 75.9947 36.593 67.7082 49.9108 64.6109C57.8797 62.7256 66.1775 62.862 73.9038 65.5254C78.9546 67.2448 83.7331 70.0761 88.0485 74.0529C101.213 86.2194 109.143 107.786 121.543 119.581C126.378 124.165 131.129 127.569 136.699 129.625C141.477 131.378 146.718 132.087 152.041 132.391C159.438 132.797 167.435 132.697 174.587 133.946C178.518 134.62 182.231 135.8 185.644 137.621C192.443 141.261 197.251 146.619 201.786 153.123C208.344 162.492 214.848 174.421 223.072 185.677C223.919 186.856 224.793 188.002 225.694 189.114C235.474 201.212 244.839 204.685 251.585 211.391C258.359 218.098 263.252 229.252 268.285 244.281C269.762 248.695 271.239 253.446 272.744 258.4C275.452 267.431 278.161 277.101 280.815 286.537C284.81 300.689 288.695 314.235 291.241 324.85" stroke="#B0D5FF" stroke-width="0.740122" stroke-miterlimit="10"/>
<path d="M14.0307 83.2701C25.4878 73.3324 38.0107 65.3155 51.2468 62.3866C59.1612 60.6024 67.4044 60.8062 75.0761 63.4696C80.0723 65.189 84.8508 67.9529 89.1388 71.896C102.303 83.8602 110.424 104.887 122.497 116.986C127.277 121.738 131.892 125.445 137.435 127.771C142.185 129.76 147.427 130.637 152.804 131.043C160.256 131.583 168.308 131.484 175.542 132.53C179.527 133.103 183.295 134.115 186.735 135.733C193.697 138.969 198.777 143.755 203.613 149.753C210.606 158.414 217.711 169.771 226.043 181.161C226.918 182.341 227.792 183.52 228.666 184.632C238.392 196.933 247.129 201.483 253.139 208.83C259.204 216.278 263.197 227.836 267.738 243.201C269.079 247.717 270.474 252.569 271.897 257.624C274.496 266.823 277.232 276.628 280.023 286.131C284.263 300.385 288.667 313.83 291.895 324.107" stroke="#B0D5FF" stroke-width="0.740121" stroke-miterlimit="10"/>
<path d="M15.4765 80.3734C26.9064 70.6042 39.4022 62.8568 52.5565 60.1301C60.4163 58.4806 68.5777 58.7518 76.2221 61.3815C81.191 63.1009 85.9422 65.8311 90.2028 69.6731C103.34 81.4352 111.651 101.957 123.424 114.291C128.122 119.212 132.629 123.222 138.117 125.784C142.84 128.009 148.109 129.021 153.513 129.527C161.02 130.203 169.154 130.103 176.442 130.947C180.455 131.42 184.277 132.263 187.799 133.679C194.925 136.51 200.25 140.723 205.413 146.216C212.87 154.136 220.574 164.954 229.016 176.445C229.89 177.658 230.765 178.838 231.666 179.984C241.337 192.52 249.475 198.115 254.694 206.135C260.049 214.29 263.142 226.253 267.219 241.989C268.424 246.639 269.71 251.592 271.078 256.714C273.568 266.116 276.332 276.056 279.286 285.592C283.745 299.947 288.695 313.291 292.605 323.232" stroke="#B0D5FF" stroke-width="0.740121" stroke-miterlimit="10"/>
<path d="M16.9232 77.5115C28.326 67.9445 40.7946 60.4667 53.8945 57.9085C61.6998 56.3601 69.8066 56.6986 77.3691 59.3283C82.3106 61.0477 87.0072 63.7442 91.2678 67.5188C104.405 79.0786 112.907 99.1286 124.352 111.665C128.996 116.754 133.366 121.068 138.827 123.899C143.523 126.326 148.819 127.54 154.251 128.148C161.785 128.958 170.001 128.825 177.371 129.5C181.438 129.872 185.287 130.58 188.891 131.76C196.181 134.187 201.778 137.828 207.241 142.815C215.161 150.028 223.439 160.239 231.99 171.899C232.864 173.112 233.766 174.291 234.64 175.471C244.257 188.209 251.767 194.916 256.249 203.543C260.868 212.473 263.088 224.805 266.674 240.845C267.742 245.596 268.919 250.65 270.233 255.873C272.614 265.443 275.405 275.518 278.496 285.122C283.201 299.578 288.669 312.821 293.261 322.425" stroke="#B0D5FF" stroke-width="0.740121" stroke-miterlimit="10"/>
<path d="M18.3671 74.6107C29.7153 65.2121 42.1841 58.0039 55.2295 55.6479C62.9803 54.2005 71.0052 54.6065 78.5404 57.2361C83.4547 58.9555 88.1239 61.6183 92.3572 65.3255C105.466 76.6495 114.187 96.2277 125.305 109.034C129.894 114.291 134.128 118.908 139.561 121.975C144.231 124.638 149.527 126.021 155.041 126.696C162.63 127.641 170.927 127.507 178.379 127.981C182.501 128.251 186.404 128.791 190.062 129.769C197.543 131.792 203.386 134.859 209.148 139.342C217.532 145.813 226.409 155.485 235.043 167.28C235.944 168.493 236.819 169.706 237.693 170.919C247.228 183.86 254.111 191.678 257.857 200.911C261.767 210.582 263.086 223.286 266.208 239.695C267.14 244.581 268.235 249.737 269.467 255.027C271.739 264.765 274.557 274.975 277.812 284.646C282.763 299.203 288.749 312.345 294.023 321.612" stroke="#B0D5FF" stroke-width="0.740121" stroke-miterlimit="10"/>
<path d="M19.8402 71.7466C31.1612 62.5502 43.603 55.6116 56.5665 53.424C64.2628 52.1114 72.2332 52.551 79.6865 55.1807C84.5461 56.9 89.188 59.5291 93.4212 63.1353C106.53 74.257 115.414 93.3299 126.232 106.372C130.767 111.831 134.864 116.684 140.243 120.055C144.886 122.953 150.209 124.504 155.751 125.28C163.394 126.36 171.746 126.227 179.28 126.498C183.428 126.667 187.386 127.072 191.099 127.848C198.743 129.433 204.859 131.961 210.921 135.939C219.741 141.702 229.218 150.801 237.988 162.731C238.89 163.978 239.764 165.191 240.638 166.404C250.119 179.581 256.375 188.477 259.357 198.317C262.53 208.763 262.976 221.836 265.635 238.583C266.43 243.57 267.416 248.826 268.594 254.218C270.757 264.158 273.603 274.503 276.994 284.174C282.162 298.832 288.695 311.873 294.651 320.769" stroke="#B0D5FF" stroke-width="0.740121" stroke-miterlimit="10"/>
<path d="M21.285 68.8836C32.5789 59.8557 44.9935 53.2203 57.9025 51.2012C65.5715 49.9897 73.4601 50.5303 80.8588 53.1262C85.6911 54.8456 90.3057 57.441 94.5389 60.9797C107.621 71.8993 116.695 90.5005 127.213 103.744C131.666 109.372 135.654 114.528 141.006 118.135C145.621 121.236 150.972 122.955 156.541 123.866C164.239 125.08 172.673 124.914 180.261 125.016C184.464 125.084 188.477 125.321 192.244 125.895C200.051 127.075 206.44 129.031 212.802 132.469C222.085 137.491 232.136 146.052 241.015 158.116C241.916 159.363 242.818 160.61 243.665 161.857C253.091 175.235 258.693 185.244 260.966 195.723C263.402 206.91 262.975 220.354 265.143 237.438C265.801 242.526 266.679 247.917 267.801 253.376C269.855 263.484 272.729 273.964 276.284 283.702C281.698 298.461 288.749 311.402 295.387 319.961" stroke="#B0D5FF" stroke-width="0.740121" stroke-miterlimit="10"/>
<path d="M22.7288 65.9864C33.9682 57.1606 46.383 50.7611 59.2376 48.9442C66.852 47.8337 74.6588 48.4418 82.0302 51.0714C86.8352 52.7907 91.4225 55.3524 95.6283 58.8238C108.71 69.5412 117.975 87.6706 128.165 101.15C132.564 106.947 136.443 112.406 141.741 116.248C146.329 119.585 151.68 121.473 157.303 122.451C165.056 123.8 173.545 123.633 181.214 123.534C185.445 123.467 189.512 123.569 193.361 123.941C201.331 124.717 207.965 126.1 214.654 129.033C224.401 133.314 235.052 141.335 244.013 153.534C244.942 154.781 245.816 156.062 246.69 157.309C256.034 170.923 261.01 182.009 262.546 193.095C264.219 205.057 262.945 218.871 264.65 236.292C265.172 241.515 265.94 246.973 267.008 252.567C268.953 262.878 271.854 273.458 275.545 283.264C281.205 298.124 288.775 310.963 296.123 319.186" stroke="#B0D5FF" stroke-width="0.740121" stroke-miterlimit="10"/>
<path d="M24.1766 63.1251C35.3888 54.4678 47.7764 48.3716 60.5765 46.7231C68.1365 45.7137 75.8886 46.3891 83.1781 49.0187C87.9286 50.7381 92.4885 53.266 96.6942 56.6363C109.748 67.1515 119.204 84.8092 129.094 98.4911C133.411 104.456 137.182 110.218 142.425 114.33C146.986 117.903 152.364 119.959 158.015 121.038C165.822 122.522 174.393 122.356 182.144 122.088C186.429 121.92 190.523 121.853 194.454 122.023C202.588 122.361 209.494 123.205 216.483 125.632C226.694 129.206 237.917 136.654 247.015 148.988C247.944 150.235 248.845 151.516 249.692 152.796C258.982 166.613 263.276 178.777 264.13 190.503C265.039 203.206 262.892 217.391 264.133 235.182C264.519 240.506 265.178 246.099 266.191 251.76C268.027 262.239 270.928 272.988 274.783 282.828C280.662 297.789 288.777 310.527 296.807 318.414" stroke="#8C8BAC" stroke-width="0.740121" stroke-miterlimit="10"/>
<path d="M25.6214 60.2613C36.8064 51.8062 49.1669 45.9459 61.8852 44.4995C69.3907 43.6249 77.061 44.334 84.3232 46.9636C89.0463 48.6492 93.5789 51.1435 97.7573 54.4801C110.811 64.7594 120.431 81.9791 130.021 95.8967C134.283 102.064 137.917 108.096 143.133 112.443C147.667 116.252 153.073 118.443 158.778 119.657C166.613 121.276 175.265 121.109 183.098 120.639C187.411 120.37 191.587 120.27 195.544 120.102C203.842 119.8 211.021 120.307 218.31 122.229C228.956 125.062 240.807 131.971 249.987 144.44C250.916 145.721 251.817 147.001 252.664 148.315C261.899 162.368 265.539 175.61 265.656 187.943C265.802 201.387 262.809 215.976 263.586 234.07C263.808 239.494 264.385 245.189 265.344 250.951C267.071 261.599 269.999 272.482 274.018 282.389C280.143 297.452 288.776 310.089 297.489 317.638" stroke="#9391B4" stroke-width="0.740121" stroke-miterlimit="10"/>
<path d="M27.0691 57.3644C38.1997 49.0778 50.5603 43.5206 63.2242 42.2427C70.6751 41.4692 78.2909 42.2794 85.4711 44.8753C90.1669 46.5609 94.6722 49.0215 98.8232 52.2569C111.877 62.3341 121.633 79.082 130.95 93.2018C135.13 99.5371 138.655 105.872 143.845 110.489C148.351 114.5 153.757 116.893 159.517 118.175C167.406 119.928 176.14 119.728 184.028 119.089C188.395 118.72 192.598 118.35 196.638 118.115C205.099 117.611 212.55 117.309 220.139 118.76C231.249 120.851 243.673 127.221 252.961 139.825C253.918 141.105 254.792 142.42 255.639 143.734C264.82 157.988 267.777 172.309 267.186 185.315C266.568 199.5 262.729 214.46 263.042 232.924C263.128 238.484 263.623 244.279 264.5 250.108C266.118 260.958 269.074 271.943 273.229 281.918C279.599 297.048 288.724 309.617 298.146 316.83" stroke="#9A98BC" stroke-width="0.740121" stroke-miterlimit="10"/>
<path d="M28.5423 54.5015C39.6457 46.4171 51.9792 41.0958 64.5885 40.02C71.9849 39.3476 79.5461 40.2252 86.6718 42.821C91.313 44.5066 95.791 46.9335 99.9419 50.1016C112.968 59.9765 122.915 76.2528 131.932 90.5746C136.03 97.1121 139.447 103.717 144.581 108.57C149.061 112.816 154.494 115.378 160.281 116.761C168.225 118.649 177.014 118.449 184.983 117.608C189.378 117.137 193.662 116.599 197.756 116.161C206.381 115.22 214.105 114.379 221.993 115.324C233.567 116.708 246.563 122.472 255.989 135.244C256.945 136.524 257.847 137.872 258.694 139.22C267.793 153.677 270.096 169.076 268.822 182.722C267.413 197.648 262.729 213.011 262.578 231.813C262.527 237.473 262.914 243.37 263.736 249.3C265.245 260.319 268.228 271.472 272.547 281.48C279.136 296.711 288.807 309.18 298.91 316.055" stroke="#A19EC5" stroke-width="0.740121" stroke-miterlimit="10"/>
<path d="M29.9861 51.6032C41.0623 43.6873 53.3687 38.6693 65.8963 37.762C73.2655 37.2243 80.7175 38.1355 87.8159 40.7314C92.4298 42.417 96.8804 44.8101 101.031 47.9108C114.057 57.5836 124.14 73.3881 132.884 87.9457C136.901 94.6517 140.208 101.56 145.316 106.682C149.768 111.164 155.229 113.895 161.044 115.345C169.042 117.334 177.913 117.167 185.937 116.124C190.385 115.553 194.697 114.846 198.873 114.206C207.661 112.86 215.63 111.447 223.846 111.886C235.856 112.529 249.48 117.754 258.987 130.661C259.943 131.975 260.845 133.323 261.692 134.671C270.736 149.364 272.358 165.807 270.375 180.093C268.202 195.726 262.672 211.494 262.058 230.632C261.871 236.428 262.148 242.391 262.916 248.423C264.316 259.61 267.326 270.898 271.782 280.973C278.616 296.305 288.805 308.673 299.591 315.212" stroke="#A8A5CD" stroke-width="0.740121" stroke-miterlimit="10"/>
<path d="M31.431 48.7382C42.4527 40.9908 54.7593 36.276 67.2324 35.5372C74.547 35.1006 81.9445 36.0792 88.9609 38.675C93.5476 40.3606 97.9436 42.7201 102.094 45.7197C115.093 55.1566 125.366 70.5231 133.81 85.2828C137.746 92.1908 140.944 99.3683 146.024 104.727C150.449 109.445 155.91 112.31 161.807 113.895C169.86 116.019 178.785 115.818 186.918 114.607C191.421 113.934 195.761 113.059 199.991 112.217C208.942 110.433 217.184 108.447 225.7 108.415C238.173 108.283 252.369 113.003 261.986 126.044C262.969 127.358 263.844 128.706 264.691 130.122C273.681 145.016 274.621 162.537 271.956 177.463C269.02 193.838 262.644 210.01 261.538 229.485C261.215 235.381 261.383 241.48 262.096 247.579C263.387 258.968 266.424 270.357 271.044 280.5C278.124 295.933 288.832 308.2 300.3 314.402" stroke="#AFABD5" stroke-width="0.740121" stroke-miterlimit="10"/>
<path d="M32.8768 45.8765C43.8713 38.3312 56.1508 33.8523 68.5694 33.3156C75.8295 32.9801 83.1451 34.0597 90.1343 36.6219C94.6663 38.3075 99.0623 40.6332 103.186 43.5654C116.184 52.8001 126.594 67.6949 134.765 82.6567C138.646 89.7332 141.708 97.2139 146.734 102.842C151.131 107.796 156.62 110.829 162.544 112.515C170.652 114.774 179.659 114.574 187.846 113.16C192.377 112.386 196.798 111.343 201.082 110.299C210.197 108.077 218.711 105.551 227.527 105.014C240.464 104.141 255.26 108.322 264.986 121.498C265.97 122.812 266.871 124.194 267.691 125.609C276.627 140.739 276.912 159.305 273.511 174.905C269.783 191.987 262.562 208.563 261.02 228.408C260.56 234.406 260.646 240.606 261.278 246.805C262.459 258.363 265.524 269.92 270.28 280.063C277.579 295.598 288.832 307.763 300.982 313.629" stroke="#B6B2DE" stroke-width="0.740121" stroke-miterlimit="10"/>
<path d="M34.3197 42.9774C45.2597 35.6006 57.5393 31.4249 69.8762 31.0567C77.0817 30.8223 84.3428 31.9693 91.2501 34.5314C95.7548 36.217 100.123 38.509 104.22 41.3738C117.191 50.4064 127.763 64.8295 135.662 80.027C139.433 87.3057 142.414 95.0559 147.413 100.92C151.783 106.076 157.272 109.311 163.25 111.065C171.386 113.459 180.475 113.258 188.744 111.642C193.329 110.767 197.777 109.555 202.143 108.343C211.421 105.683 220.181 102.619 229.324 101.576C242.697 99.9949 258.093 103.603 267.929 116.914C268.912 118.262 269.814 119.644 270.661 121.093C279.515 136.425 279.146 156.069 275.036 172.309C270.544 190.132 262.449 207.078 260.471 227.261C259.847 233.393 259.851 239.694 260.429 245.995C261.501 257.72 264.594 269.413 269.514 279.623C277.058 295.258 288.83 307.323 301.662 312.818" stroke="#BDB8E6" stroke-width="0.740121" stroke-miterlimit="10"/>
<path d="M35.7675 40.1177C46.6803 32.943 58.9328 29.0032 71.2152 28.8372C78.3662 28.7375 85.5727 29.9182 92.4254 32.4803C96.9028 34.1659 101.217 36.3905 105.313 39.1879C118.284 48.0183 128.993 62.0034 136.618 77.3693C140.308 84.8164 143.18 92.8698 148.124 98.9694C152.468 104.361 157.983 107.732 163.989 109.62C172.179 112.148 181.35 111.914 189.674 110.13C194.286 109.154 198.788 107.807 203.236 106.359C212.678 103.295 221.71 99.6577 231.153 98.076C244.99 95.7538 260.959 98.8231 270.903 112.269C271.887 113.617 272.816 115.032 273.635 116.481C282.435 132.05 281.385 152.704 276.592 169.617C271.337 188.148 262.397 205.532 259.927 226.051C259.167 232.285 259.062 238.686 259.585 245.088C260.548 257.016 263.668 268.81 268.724 279.087C276.514 294.824 288.805 306.788 302.319 311.946" stroke="#C4BFEE" stroke-width="0.740121" stroke-miterlimit="10"/>
<path d="M37.2407 37.2205C48.1263 30.2143 60.3517 26.5778 72.5796 26.5802C79.6761 26.5816 86.8008 27.8297 93.6261 30.3917C98.0762 32.0436 102.363 34.2682 106.432 36.9982C119.375 45.6264 130.22 59.1398 137.6 74.7415C141.208 82.3908 143.971 90.68 148.888 97.0828C153.204 102.711 158.748 106.249 164.808 108.239C173.053 110.902 182.278 110.668 190.711 108.715C195.378 107.638 199.907 106.123 204.41 104.473C213.988 100.937 223.32 96.7942 233.062 94.7071C247.362 91.6774 263.932 94.174 273.985 107.755C274.996 109.103 275.898 110.552 276.718 112.001C285.463 127.771 283.731 149.503 278.229 167.057C272.183 186.261 262.397 204.083 259.49 224.973C258.594 231.307 258.407 237.844 258.848 244.313C259.703 256.409 262.85 268.338 268.07 278.683C276.078 294.52 288.915 306.383 303.111 311.204" stroke="#CBC5F7" stroke-width="0.740121" stroke-miterlimit="10"/>
<path d="M38.6875 34.3579C55.821 23.6129 76.372 21.3931 94.7731 28.3377C113.174 35.2822 129.18 51.3573 138.501 72.1146C142.028 79.9659 144.681 88.5247 149.571 95.1634C159.679 108.946 176.849 110.937 191.613 107.2C206.349 103.463 220.099 95.0087 234.863 91.2379C249.599 87.4671 266.769 89.4247 276.932 103.14C288.761 119.147 286.54 144.518 279.758 164.43C272.948 184.375 262.315 202.568 258.918 223.794C255.956 242.325 258.999 262.239 267.253 278.178C275.507 294.117 288.861 305.878 303.74 310.363" stroke="#D2CCFF" stroke-width="0.740122" stroke-miterlimit="10"/>
<path d="M43.2458 33.0774C60.2702 22.6357 80.5757 20.6854 98.7038 27.7647C116.832 34.8439 132.646 50.7841 141.695 71.4402C145.221 79.4936 147.684 88.423 152.41 95.2974C162 109.248 178.596 111.61 192.897 108.547C207.169 105.484 220.647 97.8378 235.247 94.5387C250.039 91.1722 267.29 92.7592 277.725 106.104C289.8 121.639 288.261 146.842 281.724 166.922C275.187 187.002 264.282 205.296 260.502 225.983C257.239 243.874 260.009 263.012 267.662 278.445C275.315 293.879 287.906 305.505 302.238 310.158" stroke="#CDC9FE" stroke-width="0.740121" stroke-miterlimit="10"/>
<path d="M47.8314 31.8324C64.7194 21.7276 84.8066 20.0132 102.689 27.1934C120.572 34.3736 136.167 50.2464 144.915 70.8012C148.442 79.0905 150.686 88.3229 155.249 95.4332C164.293 109.519 180.344 112.285 194.153 109.895C207.99 107.539 221.195 100.669 235.632 97.8075C250.478 94.8791 267.837 96.028 278.546 109.036C290.893 124.066 289.982 149.167 283.745 169.348C277.509 189.53 266.331 207.958 262.141 228.072C258.55 245.289 261.074 263.72 268.126 278.647C275.205 293.575 287.004 305.067 300.791 309.887" stroke="#C7C6FE" stroke-width="0.740121" stroke-miterlimit="10"/>
<path d="M52.3896 30.5525C69.1686 20.7847 89.0103 19.3398 106.647 26.5873C124.284 33.8349 139.634 49.6738 148.109 70.1273C151.636 78.6524 153.662 88.1881 158.088 95.5678C166.614 109.788 182.064 112.925 195.437 111.243C208.81 109.56 221.743 103.465 236.043 101.075C250.917 98.5847 268.413 99.2957 279.366 111.967C291.986 126.525 291.703 151.491 285.766 171.774C279.83 192.056 268.352 210.585 263.753 230.194C259.888 246.703 262.084 264.426 268.563 278.881C275.041 293.304 286.076 304.627 299.316 309.65" stroke="#C2C3FD" stroke-width="0.740121" stroke-miterlimit="10"/>
<path d="M56.9743 29.2735C73.6169 19.809 93.2675 18.6336 110.631 26.0158C127.995 33.398 143.127 49.1694 151.329 69.488C154.855 78.249 156.664 88.054 160.954 95.7369C168.961 110.058 183.838 113.633 196.747 112.658C209.657 111.683 222.317 106.362 236.481 104.411C251.437 102.325 268.987 102.665 280.24 114.965C293.132 129.052 293.477 153.85 287.841 174.267C282.178 194.684 270.454 213.247 265.445 232.35C261.28 248.185 263.202 265.2 269.08 279.15C274.958 293.101 285.228 304.255 297.923 309.48" stroke="#BDC0FD" stroke-width="0.740121" stroke-miterlimit="10"/>
<path d="M61.5316 28.0289C78.0652 18.9013 97.4702 17.9617 114.561 25.4449C131.652 32.9281 146.565 48.632 154.494 68.8157C158.021 77.8125 159.638 87.9207 163.765 95.8394C171.253 110.262 185.557 114.274 198.003 113.973C210.449 113.672 222.864 109.193 236.865 107.646C251.875 105.998 269.506 105.934 281.032 117.864C294.17 131.479 295.197 156.142 289.807 176.66C284.444 197.178 272.447 215.842 267.001 234.439C262.563 249.6 264.184 265.874 269.461 279.319C274.738 292.763 284.244 303.783 296.366 309.176" stroke="#B8BDFC" stroke-width="0.740121" stroke-miterlimit="10"/>
<path d="M66.1182 26.7498C82.5154 17.9591 101.702 17.2553 118.547 24.8732C135.392 32.4911 150.032 48.1275 157.715 68.1763C161.243 77.4088 162.642 87.7865 166.605 96.0084C173.602 110.498 187.279 114.948 199.288 115.354C211.27 115.761 223.413 112.057 237.277 110.948C252.342 109.772 270.055 109.236 281.881 120.829C295.291 133.972 296.946 158.501 291.856 179.153C286.766 199.806 274.551 218.503 268.668 236.595C263.984 251.049 265.25 266.649 269.953 279.588C274.657 292.527 283.371 303.377 294.947 308.973" stroke="#B2BAFC" stroke-width="0.740121" stroke-miterlimit="10"/>
<path d="M70.6774 25.4703C86.9657 17.0166 105.907 16.5486 122.506 24.2675C139.106 31.9864 153.473 47.589 160.91 67.5029C164.437 76.9713 165.646 87.6185 169.445 96.1098C175.951 110.633 189.028 115.588 200.546 116.669C212.092 117.749 223.962 114.887 237.663 114.216C252.783 113.478 270.605 112.538 282.676 123.76C296.331 136.431 298.641 160.792 293.851 181.579C289.062 202.367 276.601 221.064 270.282 238.718C265.351 252.463 266.289 267.356 270.391 279.823C274.494 292.256 282.416 302.972 293.474 308.736" stroke="#ADB6FB" stroke-width="0.740121" stroke-miterlimit="10"/>
<path d="M75.2621 24.226C91.414 16.0755 110.137 15.877 126.464 23.6969C142.79 31.5168 156.911 47.0856 164.103 66.8647C167.63 76.5689 168.62 87.4518 172.284 96.2801C178.325 110.837 190.775 116.297 201.829 118.051C212.912 119.839 224.537 116.843 238.074 117.519C253.25 118.264 271.152 115.875 283.524 126.726C297.424 138.926 300.388 163.152 295.872 184.04C291.355 204.929 278.704 223.693 271.893 240.841C266.716 253.913 267.326 268.098 270.828 280.026C274.329 291.987 281.487 302.501 291.999 308.467" stroke="#A8B3FB" stroke-width="0.740121" stroke-miterlimit="10"/>
<path d="M79.8223 22.9443C95.8653 15.1307 114.37 15.168 130.424 23.1226C146.505 31.0436 160.353 46.5786 167.299 66.1891C170.826 76.1291 171.625 87.2815 175.125 96.3792C180.703 110.969 192.497 116.901 203.116 119.397C213.735 121.858 225.142 119.637 238.489 120.785C253.719 122.068 271.703 119.174 284.347 129.655C298.52 141.383 302.112 165.474 297.896 186.464C293.68 207.453 280.81 226.251 273.534 242.928C268.139 255.292 268.366 268.769 271.294 280.225C274.223 291.681 280.589 302.06 290.555 308.194" stroke="#A3B0FA" stroke-width="0.740121" stroke-miterlimit="10"/>
<path d="M84.408 21.6648C100.342 14.1882 118.601 14.4613 134.409 22.5169C150.217 30.5725 163.792 46.04 170.52 65.5157C174.02 75.6915 174.656 87.0797 177.964 96.5143C183.078 111.104 194.245 117.575 204.4 120.744C214.556 123.914 225.691 123.511 238.901 124.053C254.24 124.696 272.252 122.442 285.195 132.586C299.614 143.842 303.888 167.799 299.945 188.889C296.002 209.98 282.968 228.812 275.174 245.05C269.587 256.707 269.432 269.51 271.759 280.46C274.086 291.411 279.688 301.655 289.109 307.957" stroke="#9DADFA" stroke-width="0.740121" stroke-miterlimit="10"/>
<path d="M88.9663 20.4191C104.764 13.2794 122.805 13.822 138.367 21.9449C153.93 30.0678 167.232 45.5353 173.713 64.8761C177.214 75.2877 177.686 86.9117 180.804 96.6832C185.481 111.307 195.966 118.283 205.685 122.126C215.376 125.969 226.239 126.409 239.286 127.355C254.68 128.47 272.773 125.778 285.989 135.517C300.653 146.336 305.582 170.09 301.939 191.315C298.296 212.541 285.072 231.372 276.786 247.139C271.007 258.122 270.47 270.183 272.196 280.628C273.923 291.073 278.761 301.148 287.635 307.653" stroke="#98AAF9" stroke-width="0.740121" stroke-miterlimit="10"/>
<path d="M93.5529 19.1412C109.242 12.3047 127.037 13.1168 142.326 21.3744C157.616 29.632 170.645 45.0657 176.908 64.2379C180.382 74.8854 180.69 86.7452 183.644 96.8198C187.912 111.409 197.715 118.925 206.943 123.475C216.171 128.025 226.789 129.308 239.672 130.658C255.148 132.278 273.296 129.115 286.784 138.484C301.693 148.83 307.277 172.45 303.907 193.81C300.538 215.17 287.204 234.002 278.345 249.33C272.429 259.605 271.427 270.993 272.58 280.933C273.733 290.872 277.779 300.812 286.108 307.485" stroke="#93A7F9" stroke-width="0.740122" stroke-miterlimit="10"/>
<path d="M98.1103 17.8944C113.663 11.3948 131.24 12.4427 146.284 20.8013C161.328 29.16 174.056 44.5598 180.074 63.5972C183.547 74.5142 183.692 86.5761 186.456 96.9875C190.314 111.577 199.435 119.631 208.199 124.855C216.991 130.079 227.337 132.238 240.056 133.958C255.587 136.05 273.789 132.449 287.605 141.447C302.759 151.322 308.998 174.807 305.928 196.268C302.859 217.73 289.389 236.595 279.983 251.451C273.904 261.053 272.492 271.699 273.044 281.167C273.596 290.634 276.878 300.406 284.661 307.247" stroke="#8EA4F9" stroke-width="0.740121" stroke-miterlimit="10"/>
<path d="M102.698 16.6141C118.141 10.4514 135.5 11.7351 150.271 20.1947C165.042 28.6544 177.498 44.0542 183.297 62.8893C186.743 74.0421 186.779 86.3398 189.297 97.0544C192.746 111.644 201.158 120.237 209.486 126.168C217.814 132.1 227.914 135.101 240.47 137.192C256.083 139.789 274.339 135.716 288.428 144.344C303.827 153.781 310.748 177.063 307.952 198.66C305.156 220.256 291.604 239.155 281.625 253.539C275.436 262.467 273.559 272.405 273.511 281.334C273.462 290.296 275.98 299.899 283.217 306.976" stroke="#88A1F8" stroke-width="0.740121" stroke-miterlimit="10"/>
<path d="M107.256 15.3352C122.563 9.47576 139.704 11.0289 154.229 19.6233C168.755 28.2176 180.883 43.5499 186.491 62.2502C189.91 73.6388 189.809 86.1386 192.137 97.2238C195.203 111.779 202.906 120.911 210.771 127.55C218.635 134.189 228.49 138.032 240.883 140.494C256.578 143.597 274.888 139.086 289.277 147.309C304.921 156.274 312.497 179.422 309.974 201.12C307.478 222.817 293.844 241.783 283.237 255.662C276.911 263.949 274.597 273.113 273.948 281.57C273.299 290.026 275.052 299.494 281.744 306.739" stroke="#839EF8" stroke-width="0.740121" stroke-miterlimit="10"/>
<path d="M111.842 14.0892C127.04 8.56664 143.935 10.3556 158.188 19.0509C172.44 27.7463 184.295 43.0785 189.684 61.6102C193.077 73.2683 192.867 85.9702 194.976 97.3923C197.661 111.948 204.654 121.619 212.055 128.931C219.456 136.244 229.067 140.996 241.295 143.795C257.045 147.437 275.437 142.421 290.098 150.274C305.988 158.801 314.219 181.78 311.996 203.579C309.773 225.411 296.085 244.444 284.877 257.818C278.468 265.465 275.636 273.854 274.413 281.838C273.19 289.789 274.152 299.089 280.27 306.536" stroke="#7E9BF7" stroke-width="0.740121" stroke-miterlimit="10"/>
<path d="M116.4 12.8084C131.462 7.62277 148.139 9.64753 162.146 18.4439C176.153 27.2402 187.68 42.5386 192.878 60.9355C196.243 72.8294 195.925 85.7671 197.816 97.4923C200.118 112.048 206.375 122.258 213.313 130.244C220.25 138.264 229.588 143.859 241.681 147.028C257.486 151.175 275.959 145.687 290.92 153.17C307.055 161.225 315.94 184.036 314.017 206.003C312.095 227.97 298.353 247.104 286.489 259.905C279.971 266.912 276.674 274.559 274.85 282.005C273.027 289.45 273.224 298.615 278.797 306.23" stroke="#7898F7" stroke-width="0.740121" stroke-miterlimit="10"/>
<path d="M120.956 11.5293C135.908 6.68056 152.34 8.94111 166.101 17.8721C179.862 26.8032 191.09 42.0678 196.069 60.2624C199.407 72.4259 199.007 85.532 200.625 97.6277C202.573 112.149 208.093 122.898 214.567 131.592C221.041 140.286 230.134 146.79 242.063 150.33C257.95 155.016 276.477 149.023 291.711 156.135C308.091 163.752 317.659 186.395 316.009 208.463C314.359 230.531 300.617 249.834 288.099 262.028C281.526 268.428 277.709 275.267 275.285 282.241C272.888 289.214 272.294 298.21 277.321 305.994" stroke="#7395F6" stroke-width="0.740121" stroke-miterlimit="10"/>
<path d="M125.543 10.2823C140.386 5.73678 156.572 8.3005 170.088 17.2988C183.576 26.2972 194.503 41.5954 199.291 59.6215C202.602 72.0208 202.12 85.3627 203.493 97.7616C205.086 112.283 209.842 123.571 215.88 132.972C221.918 142.373 230.738 149.753 242.504 153.63C258.446 158.856 277.027 152.39 292.588 159.098C309.214 166.278 319.436 188.752 318.059 210.921C316.71 233.09 302.968 252.595 289.767 264.183C283.111 270.01 278.776 276.04 275.778 282.508C272.781 288.976 271.422 297.803 275.903 305.789" stroke="#6E92F6" stroke-width="0.740121" stroke-miterlimit="10"/>
<path d="M130.103 9.00281C144.838 4.79418 160.805 7.59369 174.048 16.693C187.29 25.8261 197.89 41.0905 202.487 58.9481C205.743 71.6168 205.234 85.1609 206.334 97.8966C207.6 112.418 211.592 124.245 217.167 134.32C222.741 144.394 231.289 152.684 242.891 156.898C258.888 162.696 277.551 155.692 293.384 162.029C310.255 168.771 321.132 191.077 320.056 213.347C318.979 235.617 305.265 255.391 291.354 266.271C284.616 271.526 279.789 276.713 276.191 282.676C272.592 288.639 270.469 297.331 274.405 305.485" stroke="#698EF5" stroke-width="0.740121" stroke-miterlimit="10"/>
<path d="M134.689 7.72423C149.287 3.8525 165.036 6.8878 178.006 16.1218C190.976 25.3559 201.275 40.5865 205.681 58.3093C208.91 71.2138 208.319 84.9936 209.174 98.0325C210.112 112.554 213.341 124.886 218.452 135.668C223.563 146.45 231.838 155.65 243.304 160.167C259.355 166.504 278.1 159.028 294.233 164.961C311.349 171.264 322.881 193.368 322.105 215.773C321.329 238.178 307.642 258.256 293.021 268.394C286.201 273.11 280.882 277.455 276.683 282.912C272.511 288.369 269.597 296.927 272.986 305.249" stroke="#638BF5" stroke-width="0.740121" stroke-miterlimit="10"/>
<path d="M139.247 6.47887C153.709 2.94403 169.24 6.21512 181.964 15.5502C194.688 24.8852 204.633 40.1158 208.875 57.6363C212.05 70.8103 211.459 84.7923 211.987 98.168C212.597 112.689 215.062 125.56 219.709 137.016C224.356 148.472 232.387 158.581 243.689 163.435C259.768 170.345 278.621 162.33 295.027 167.892C312.389 173.758 324.575 195.693 324.072 218.199C323.569 240.739 309.91 261.153 294.578 270.483C287.677 274.693 281.839 278.129 277.066 283.114C272.293 288.1 268.587 296.454 271.459 304.979" stroke="#5E88F4" stroke-width="0.740121" stroke-miterlimit="10"/>
<path d="M143.832 5.19815C158.185 1.96652 173.47 5.50708 185.922 14.9431C198.373 24.3792 208.017 39.6096 212.068 56.9616C215.188 70.3714 214.57 84.5892 214.825 98.3017C215.108 112.856 216.782 126.232 220.966 138.362C225.15 150.526 232.908 161.544 244.073 166.735C260.208 174.218 279.115 165.697 295.821 170.855C313.427 176.283 326.296 198.05 326.066 220.691C325.836 243.332 312.204 264.184 296.19 272.671C289.206 276.376 282.876 278.935 277.503 283.382C272.129 287.862 267.659 296.081 269.985 304.774" stroke="#5985F4" stroke-width="0.740121" stroke-miterlimit="10"/>
<path d="M148.391 3.91935C162.608 1.02461 177.675 4.80096 189.881 14.3717C202.087 23.9087 211.403 39.1054 215.263 56.3225C218.329 70.0019 217.711 84.4217 217.666 98.4374C217.621 112.992 218.531 126.873 222.252 139.744C225.972 152.581 233.458 164.51 244.487 170.037C260.649 178.126 279.665 169.067 296.67 173.821C314.522 178.81 328.046 200.375 328.116 223.151C328.186 245.926 314.582 267.183 297.858 274.761C290.792 277.96 283.97 279.609 277.996 283.584C272.022 287.558 266.788 295.61 268.568 304.538" stroke="#5482F3" stroke-width="0.740121" stroke-miterlimit="10"/>
<path d="M152.974 2.67331C167.082 0.115468 181.931 4.1276 193.864 13.7993C205.796 23.4711 214.785 38.634 218.481 55.6825C221.493 69.5977 220.875 84.287 220.53 98.6058C220.185 113.194 220.277 127.58 223.561 141.125C226.845 154.67 234.031 167.507 244.924 173.338C261.114 182 280.238 172.435 297.517 176.785C315.614 181.37 329.792 202.733 330.162 225.61C330.533 248.487 316.902 270.316 299.495 276.95C292.319 279.677 285.006 280.417 278.458 283.886C271.911 287.355 265.885 295.272 267.119 304.368" stroke="#4E7FF3" stroke-width="0.740121" stroke-miterlimit="10"/>
<path d="M157.537 1.39232C171.508 -0.862319 186.139 3.45298 197.826 13.192C209.513 22.9648 218.147 38.1276 221.679 54.9739C224.636 69.1586 224.019 84.05 223.346 98.672C222.674 113.294 222.002 128.185 224.822 142.404C227.643 156.622 234.53 170.403 245.314 176.537C261.531 185.805 280.764 175.668 298.342 179.647C316.684 183.761 331.518 204.989 332.161 227.967C332.804 250.944 319.174 273.347 301.111 278.97C293.799 281.259 286.048 281.022 278.9 283.985C271.752 286.949 264.962 294.73 265.65 303.995" stroke="#497CF2" stroke-width="0.740122" stroke-miterlimit="10"/>
</g>
</svg>
