<svg width="17" height="16" viewBox="0 0 17 16" fill="none" xmlns="http://www.w3.org/2000/svg">
<mask id="mask0_10_10442" style="mask-type:alpha" maskUnits="userSpaceOnUse" x="2" y="1" width="14" height="14">
<path d="M7.96312 2.30192C8.32053 1.52705 9.42182 1.52704 9.77923 2.30192L10.9879 4.92223C11.1335 5.23803 11.4328 5.45548 11.7782 5.49642L14.6437 5.83618C15.4911 5.93665 15.8314 6.98404 15.2049 7.56341L13.0864 9.5226C12.831 9.75873 12.7167 10.1106 12.7845 10.4517L13.3469 13.282C13.5132 14.1189 12.6222 14.7663 11.8776 14.3495L9.35962 12.94C9.05614 12.7701 8.68621 12.7701 8.38273 12.94L5.86475 14.3495C5.12014 14.7663 4.22918 14.1189 4.39548 13.282L4.95786 10.4517C5.02564 10.1106 4.91132 9.75873 4.65598 9.5226L2.53741 7.56341C1.91091 6.98404 2.25123 5.93665 3.09862 5.83618L5.96417 5.49642C6.30953 5.45548 6.60882 5.23803 6.75449 4.92223L7.96312 2.30192Z" fill="#FFCC00"/>
</mask>
<g mask="url(#mask0_10_10442)">
<path d="M7.96312 2.30192C8.32053 1.52705 9.42182 1.52704 9.77923 2.30192L10.9879 4.92223C11.1335 5.23803 11.4328 5.45548 11.7782 5.49642L14.6437 5.83618C15.4911 5.93665 15.8314 6.98404 15.2049 7.56341L13.0864 9.5226C12.831 9.75873 12.7167 10.1106 12.7845 10.4517L13.3469 13.282C13.5132 14.1189 12.6222 14.7663 11.8776 14.3495L9.35962 12.94C9.05614 12.7701 8.68621 12.7701 8.38273 12.94L5.86475 14.3495C5.12014 14.7663 4.22918 14.1189 4.39548 13.282L4.95786 10.4517C5.02564 10.1106 4.91132 9.75873 4.65598 9.5226L2.53741 7.56341C1.91091 6.98404 2.25123 5.93665 3.09862 5.83618L5.96417 5.49642C6.30953 5.45548 6.60882 5.23803 6.75449 4.92223L7.96312 2.30192Z" fill="#D9D9D9"/>
</g>
</svg>
