<svg width="19" height="19" viewBox="0 0 19 19" fill="none" xmlns="http://www.w3.org/2000/svg">
<path d="M2.88255 10.059C2.73413 9.91058 2.65076 9.70926 2.65076 9.49934C2.65076 9.28941 2.73413 9.08809 2.88255 8.93963L7.36101 4.46117C7.43404 4.38556 7.52139 4.32525 7.61798 4.28376C7.71456 4.24226 7.81845 4.22043 7.92356 4.21951C8.02868 4.2186 8.13293 4.23863 8.23022 4.27844C8.32751 4.31824 8.4159 4.37702 8.49024 4.45136C8.56457 4.52569 8.62335 4.61408 8.66316 4.71137C8.70296 4.80866 8.72299 4.91291 8.72208 5.01803C8.72117 5.12315 8.69933 5.22703 8.65784 5.32361C8.61635 5.4202 8.55604 5.50756 8.48042 5.58059L5.35334 8.70767L15.8374 8.70767C16.0473 8.70767 16.2487 8.79108 16.3972 8.93954C16.5456 9.08801 16.6291 9.28937 16.6291 9.49934C16.6291 9.7093 16.5456 9.91066 16.3972 10.0591C16.2487 10.2076 16.0473 10.291 15.8374 10.291L5.35334 10.291L8.48042 13.4181C8.62463 13.5674 8.70443 13.7674 8.70262 13.9749C8.70082 14.1825 8.61756 14.3811 8.47078 14.5279C8.324 14.6746 8.12544 14.7579 7.91787 14.7597C7.71029 14.7615 7.51032 14.6817 7.36101 14.5375L2.88255 10.059Z" fill="#0057FC"/>
</svg>
