<svg width="46" height="44" viewBox="0 0 46 44" fill="none" xmlns="http://www.w3.org/2000/svg">
<path d="M22.2052 0.968664C22.5626 0.193793 23.6639 0.193793 24.0213 0.968665L29.9323 13.7835C30.0779 14.0993 30.3772 14.3168 30.7226 14.3577L44.7368 16.0193C45.5842 16.1198 45.9245 17.1672 45.298 17.7465L34.9369 27.3282C34.6816 27.5643 34.5673 27.9161 34.635 28.2572L37.3854 42.099C37.5517 42.936 36.6607 43.5833 35.9161 43.1665L23.6017 36.2734C23.2982 36.1035 22.9283 36.1035 22.6248 36.2734L10.3104 43.1665C9.56582 43.5833 8.67486 42.936 8.84117 42.099L11.5915 28.2572C11.6593 27.9161 11.545 27.5643 11.2896 27.3282L0.928574 17.7465C0.302074 17.1672 0.642391 16.1198 1.48978 16.0193L15.504 14.3577C15.8494 14.3168 16.1486 14.0993 16.2943 13.7835L22.2052 0.968664Z" fill="#FFCC00"/>
</svg>
