<svg width="1159" height="1273" viewBox="0 0 1159 1273" fill="none" xmlns="http://www.w3.org/2000/svg">
<g>
<g opacity="0.7">
<path d="M53.5213 374.59C83.7278 341.19 116.953 311.903 156.652 302.853C196.285 293.904 243.378 307.555 282.643 351.631C329.534 404.287 360.87 493.812 411.216 532.845C443.805 558.09 477.398 556.617 509.727 558.157C542.138 559.71 578.292 567.035 607.413 604.133C659.617 670.656 662.739 797.868 717.555 857.825C753.736 897.335 794.792 888.162 834.084 898.181C883.795 910.907 935.757 959.478 971.76 1026.94C1007.76 1094.4 1027.05 1179.42 1022.98 1252.22" stroke="#B0D5FF" stroke-width="1.63804" stroke-miterlimit="10"/>
<path d="M56.4531 365.432C86.5808 332.567 119.942 304.18 159.514 295.882C183.373 290.811 209.944 293.898 235.815 306.722C252.71 315.07 269.33 327.689 284.732 344.767C331.45 396.741 363.259 484.473 412.701 524.479C430.278 538.683 448.004 545.499 465.902 549.024C481.055 552.016 496.278 552.696 511.319 553.791C532.4 555.261 555.131 558.643 576.388 570.316C588.156 576.77 599.472 585.698 609.837 598.13C630.254 622.504 643.651 655.422 655.621 690.222C672.951 740.335 687.558 794.564 715.193 832.546C718.129 836.647 721.265 840.447 724.55 844.159C760.603 884.43 800.336 878.369 837.727 890.309C874.374 902.134 911.901 934.668 943.456 980.773C952.578 994.12 961.134 1008.6 969.093 1023.98C983.362 1051.72 995.276 1082.2 1004.37 1113.35C1018.01 1159.69 1025.44 1207.39 1024.89 1250.11" stroke="#B0D5FF" stroke-width="1.63804" stroke-miterlimit="10"/>
<path d="M59.2909 356.139C89.4386 323.934 122.853 296.435 162.347 288.676C186.176 283.931 212.537 287.207 238.246 300.008C255.061 308.345 271.569 320.727 286.957 337.694C333.486 388.872 365.619 474.898 414.223 515.775C431.702 530.409 449.18 538.294 467.046 542.699C482.233 546.471 497.623 547.73 512.782 549.063C534.097 551.011 556.997 554.42 578.407 565.454C590.212 571.582 601.531 579.959 612.147 591.879C632.786 614.962 646.818 646.102 659.455 679.351C677.753 727.187 693.922 779.895 721.958 818.386C724.977 822.5 728.047 826.402 731.333 830.115C767.324 871.045 805.566 868.072 841.089 882.159C875.834 895.906 911.014 929.521 941.166 976.524C949.924 990.149 958.283 1004.93 966.044 1020.61C980.066 1048.88 992.129 1079.82 1001.76 1111.28C1016.1 1158.07 1025.15 1205.7 1026.49 1247.61" stroke="#B0D5FF" stroke-width="1.63804" stroke-miterlimit="10"/>
<path d="M62.1428 346.968C92.211 315.299 125.761 288.7 165.193 281.594C188.926 277.275 215.058 280.627 240.606 293.404C257.258 301.716 273.669 313.974 289.027 330.718C335.465 381.225 368.003 465.555 415.752 507.191C433.067 522.354 450.364 531.208 468.264 536.393C483.484 540.945 498.942 542.656 514.334 544.468C535.882 546.895 559.035 550.342 580.516 560.724C592.438 566.539 603.86 574.49 614.529 585.645C635.471 607.451 649.957 636.673 663.361 668.495C682.726 714.178 700.424 765.137 728.793 804.238C731.814 808.353 734.9 812.368 738.203 816.195C774.148 857.898 810.982 858.026 844.519 874.023C877.443 889.704 910.11 924.375 939.039 972.413C947.434 986.316 955.528 1001.5 963.157 1017.39C976.948 1046.28 989.145 1077.59 999.221 1109.34C1014.36 1156.59 1024.93 1204.13 1028.17 1245.12" stroke="#B0D5FF" stroke-width="1.63804" stroke-miterlimit="10"/>
<path d="M64.9846 337.796C95.0718 306.789 128.674 281.08 167.944 274.5C191.563 270.494 217.566 274.048 242.952 286.801C259.523 295.102 275.837 307.236 291.066 323.629C337.412 373.464 370.274 456.083 417.183 498.591C434.4 514.183 451.431 523.993 469.315 530.172C484.552 535.39 500.193 537.794 515.801 539.971C537.583 542.876 560.887 546.236 582.621 556.104C594.563 561.48 606.102 569.118 616.907 579.521C638.153 600.048 653.124 627.578 667.246 657.633C687.579 701.036 706.839 750.471 735.692 790.093C738.729 794.322 741.898 798.35 745.118 802.165C780.918 844.514 816.425 847.758 848.074 865.789C879.095 883.392 909.33 919.132 936.952 968.193C945 982.487 952.797 997.849 960.31 1014.05C973.854 1043.47 986.216 1075.35 996.807 1107.3C1012.74 1155.01 1024.76 1202.44 1029.98 1242.64" stroke="#B0D5FF" stroke-width="1.63804" stroke-miterlimit="10"/>
<path d="M67.8125 328.506C97.9019 298.048 131.555 273.229 170.763 267.302C194.268 263.61 220.075 267.465 245.364 280.094C261.855 288.383 278.072 300.392 293.187 316.549C339.358 365.698 372.707 446.63 418.676 489.883C435.811 506.018 452.578 516.784 470.495 523.742C485.765 529.741 501.572 532.724 517.297 535.14C539.23 538.511 562.868 541.922 584.672 551.138C596.732 556.2 608.274 563.286 619.147 573.036C640.697 592.284 656.221 618.02 671.01 646.521C692.327 687.756 713.216 735.566 742.385 775.683C745.505 779.926 748.609 784.055 751.846 787.983C787.582 830.991 821.695 837.45 851.356 857.391C880.571 877.043 908.274 913.725 934.656 963.707C942.339 978.278 949.871 994.044 957.253 1010.45C970.548 1040.38 983.06 1072.74 994.082 1104.87C1010.71 1152.91 1024.35 1200.38 1031.48 1239.76" stroke="#B0D5FF" stroke-width="1.63804" stroke-miterlimit="10"/>
<path d="M70.6465 319.336C100.656 289.415 134.46 265.611 173.588 260.224C196.98 256.845 222.656 260.902 247.701 273.494C264.028 281.759 280.148 293.644 295.232 309.576C341.311 358.052 374.983 437.272 420.095 481.283C437.148 497.96 453.649 509.683 471.6 517.422C486.887 524.088 502.794 527.749 518.735 530.531C540.902 534.38 564.708 537.817 586.681 546.507C598.776 551.243 610.42 557.903 621.429 566.899C643.199 584.855 659.359 608.81 674.815 635.757C697.184 674.723 719.553 720.994 749.122 761.62C752.242 765.863 755.429 770.005 758.682 774.047C794.372 817.828 827.074 827.391 854.847 849.368C882.157 870.942 907.525 908.819 932.5 959.697C939.82 974.546 947.153 990.615 954.336 1007.33C967.4 1037.89 980.045 1070.6 991.598 1103.04C1009.03 1151.54 1024.19 1198.91 1033.23 1237.49" stroke="#B0D5FF" stroke-width="1.63804" stroke-miterlimit="10"/>
<path d="M73.5531 310.063C103.581 280.804 137.437 257.891 176.404 253.03C199.698 250.079 225.146 254.211 250.111 266.793C266.357 275.045 282.38 286.806 297.334 302.387C343.222 350.064 377.332 427.812 421.504 472.568C438.475 489.788 454.695 502.354 472.629 511.088C487.95 518.534 504.006 522.662 520.082 525.796C542.481 530.124 566.523 533.487 588.583 541.637C600.796 546.059 612.526 552.179 623.62 560.636C645.694 577.312 662.307 599.347 678.531 624.865C701.884 661.663 725.8 706.295 755.852 747.443C758.989 751.799 762.176 755.942 765.43 759.984C801.056 804.424 832.364 817.205 858.148 841.093C883.651 864.716 906.487 903.537 930.237 955.45C937.209 970.69 944.245 986.937 951.328 1004.08C964.144 1035.16 976.872 1068.44 988.94 1101.07C1007.08 1150.02 1023.87 1197.43 1034.8 1235.08" stroke="#B0D5FF" stroke-width="1.63804" stroke-miterlimit="10"/>
<path d="M76.392 300.89C106.422 272.182 140.33 250.159 179.233 245.952C202.496 243.327 227.731 247.648 252.451 260.192C268.599 268.32 284.459 280.057 299.465 295.426C345.26 342.429 379.709 418.577 423.006 463.978C439.879 481.627 455.933 495.276 473.818 504.777C489.155 512.891 505.394 517.712 521.686 521.211C544.319 526.018 568.529 529.406 590.825 536.929C603.074 541.025 614.904 546.718 626.135 554.422C648.512 569.817 665.677 590.058 682.569 614.02C706.974 648.548 732.453 691.654 762.822 733.297C765.959 737.654 769.163 741.91 772.434 746.066C807.93 791.265 838.008 807.291 861.704 832.963C885.483 858.648 905.702 898.4 928.21 951.234C934.818 966.753 941.589 983.403 948.54 1000.75C961.108 1032.35 973.985 1066.1 986.583 1099.03C1005.52 1148.44 1023.84 1195.76 1036.67 1232.61" stroke="#B0D5FF" stroke-width="1.63804" stroke-miterlimit="10"/>
<path d="M79.2304 291.712C109.197 263.654 143.322 242.547 182.063 238.867C205.212 236.556 230.317 241.079 254.874 253.599C270.86 261.703 286.688 273.214 301.597 288.46C347.3 334.789 382.072 409.223 424.528 455.497C441.319 473.689 457.107 488.295 475.042 498.69C490.413 507.585 506.735 512.972 523.244 516.838C546.111 522.123 570.489 525.537 592.938 532.42C605.305 536.202 617.222 541.355 628.438 548.394C651.119 562.508 668.837 580.954 686.398 603.361C711.788 635.718 738.814 677.185 769.583 719.337C772.804 723.707 776.025 728.077 779.213 732.221C814.645 778.08 843.345 797.437 865.118 824.921C887.106 852.769 904.791 893.464 925.975 947.209C932.218 963.005 938.79 979.959 945.543 997.605C957.862 1029.73 970.89 1063.95 983.936 1097.18C1003.67 1147.04 1023.51 1194.27 1038.26 1230.31" stroke="#B0D5FF" stroke-width="1.63804" stroke-miterlimit="10"/>
<path d="M82.0562 282.426C112.025 254.918 146.202 234.701 184.797 231.662C207.848 229.779 232.74 234.49 257.201 246.886C273.105 254.978 288.836 266.364 303.615 281.259C349.143 326.902 384.253 399.735 425.917 446.666C442.543 465.389 458.149 480.964 476.035 492.129C491.438 501.804 507.911 507.658 524.553 511.876C547.653 517.641 572.283 521.093 594.803 527.322C607.205 530.778 619.207 535.391 630.575 541.789C653.56 554.623 671.748 571.26 690.059 592.123C716.501 622.209 745.092 662.149 776.245 704.697C779.482 709.181 782.703 713.551 785.991 717.821C821.376 764.452 848.763 787.043 868.463 816.425C888.643 846.324 903.792 887.963 923.75 942.743C929.645 958.93 935.936 976.175 942.556 994.024C954.644 1026.78 967.821 1061.47 981.382 1094.89C1001.83 1145.21 1023.28 1192.35 1039.93 1227.58" stroke="#B0D5FF" stroke-width="1.63804" stroke-miterlimit="10"/>
<path d="M84.8985 273.246C114.886 246.402 149.114 227.076 187.63 224.577C210.568 223.008 235.33 227.921 259.545 240.28C275.368 248.36 290.919 259.609 305.667 274.28C351.102 319.248 386.569 390.593 427.342 438.057C443.886 457.323 459.226 473.856 477.162 485.915C492.582 496.258 509.237 502.805 526.013 507.376C549.264 513.607 574.129 516.985 596.818 522.687C609.339 525.829 621.36 530.002 632.864 535.646C656.153 547.199 674.894 562.039 693.874 581.347C721.384 609.274 751.424 647.447 782.993 690.617C786.231 695.102 789.535 699.486 792.757 703.857C828.078 751.148 854.102 777.186 871.862 808.266C890.183 840.43 902.864 882.912 921.48 938.489C927.011 954.955 933.019 972.49 939.524 990.656C951.363 1023.93 964.69 1059.09 978.699 1092.81C999.944 1143.58 1022.92 1190.64 1041.49 1225.05" stroke="#B0D5FF" stroke-width="1.63804" stroke-miterlimit="10"/>
<path d="M87.7189 263.951C117.625 237.645 151.989 219.223 190.441 217.378C213.265 216.123 237.814 221.225 261.949 233.573C277.691 241.641 293.145 252.766 307.779 267.198C353.023 311.366 388.927 381.236 428.842 429.459C445.303 449.267 460.378 466.758 478.347 479.599C493.801 490.724 510.54 497.837 527.599 502.674C551.083 509.384 576.2 512.8 599.042 517.861C611.681 520.69 623.787 524.322 635.36 529.313C659.036 539.597 678.247 552.628 697.896 570.379C726.459 596.034 758.063 632.679 789.95 676.345C793.271 680.843 796.509 685.328 799.747 689.813C834.922 737.751 859.582 767.237 875.401 800.016C891.93 834.345 902.058 877.658 919.447 934.271C924.63 951.128 930.44 968.967 936.729 987.323C948.32 1021.11 961.796 1056.75 976.337 1090.77C998.379 1142 1022.88 1188.97 1043.36 1222.57" stroke="#B0D5FF" stroke-width="1.63804" stroke-miterlimit="10"/>
<path d="M90.6423 254.782C120.568 229.139 154.983 211.608 193.273 210.292C215.999 209.464 240.401 214.654 264.291 226.965C279.87 235.009 295.226 246.009 309.813 260.103C354.964 303.597 391.125 371.852 430.247 420.734C446.643 441.199 461.42 459.421 479.372 473.257C494.859 485.164 511.764 492.857 528.957 498.047C552.676 505.237 577.961 508.679 600.956 513.099C613.63 515.6 625.839 518.806 637.481 523.143C661.444 532.031 681.225 543.379 701.543 559.573C731.092 583.056 764.245 618.06 796.615 662.248C799.953 666.86 803.192 671.345 806.43 675.831C841.558 724.542 864.838 757.363 878.633 791.829C893.302 828.424 900.959 872.581 917.106 930.117C921.924 947.252 927.452 965.382 933.626 984.055C944.985 1018.48 958.61 1054.58 973.567 1088.67C996.323 1140.35 1022.44 1187.24 1044.81 1219.92" stroke="#B0D5FF" stroke-width="1.63804" stroke-miterlimit="10"/>
<path d="M93.4851 245.603C123.413 220.511 157.896 203.985 196.106 203.21C218.801 202.709 243.007 208.201 266.717 220.375C282.214 228.407 297.474 239.282 312.03 253.152C357.005 295.958 393.522 362.724 431.835 412.151C448.065 433.146 462.659 452.339 480.645 466.958C496.149 479.532 513.221 487.806 530.564 493.462C554.516 501.131 580.036 504.499 603.119 508.379C615.911 510.566 628.205 513.231 639.916 516.914C664.183 524.52 684.518 534.071 705.488 548.593C736.09 569.803 770.726 603.266 803.496 647.963C806.834 652.575 810.172 657.187 813.345 661.774C848.409 711.145 870.241 747.404 882.194 783.695C894.987 822.442 900.173 867.443 914.994 925.89C919.447 943.303 924.709 961.838 930.75 980.713C941.861 1015.66 955.636 1052.23 971.124 1086.63C994.678 1138.77 1022.32 1185.56 1046.6 1217.43" stroke="#B0D5FF" stroke-width="1.63804" stroke-miterlimit="10"/>
<path d="M96.3052 236.304C126.168 211.864 160.77 196.129 198.918 196.008C221.498 195.821 245.491 201.502 269.137 213.779C284.554 221.798 299.716 232.549 314.158 246.181C359.04 288.312 395.913 353.589 433.351 403.662C449.499 425.201 463.91 445.366 481.847 460.753C497.384 474.11 514.539 482.951 532.083 488.86C556.269 497.009 581.958 500.402 605.194 503.641C618.005 505.388 630.401 507.625 642.264 510.667C666.836 516.991 687.641 524.731 709.363 537.708C741.018 556.645 777.22 588.578 810.308 633.772C813.73 638.398 817.002 643.111 820.257 647.711C855.191 697.843 875.643 737.439 885.653 775.43C896.503 816.432 899.301 862.29 912.877 921.66C916.982 939.464 921.946 958.177 927.888 977.483C938.766 1013.06 952.675 1049.99 968.612 1084.68C992.963 1137.28 1022.14 1183.98 1048.41 1215.06" stroke="#B0D5FF" stroke-width="1.63804" stroke-miterlimit="10"/>
<path d="M99.1477 227.121C129.013 203.231 163.683 188.501 201.751 188.921C224.218 189.049 248.08 194.932 271.481 207.172C286.734 215.167 301.798 225.793 316.193 239.086C360.9 280.53 398.129 344.317 434.757 394.936C450.741 417.007 464.969 438.142 482.872 454.413C498.443 468.552 515.765 477.973 533.442 484.235C557.862 492.864 583.803 496.296 607.209 499.006C620.138 500.439 632.537 502.123 644.552 504.523C669.412 509.451 690.787 515.506 713.178 526.926C745.903 543.701 783.572 573.979 817.144 619.696C820.566 624.322 823.921 629.048 827.111 633.749C861.981 684.541 880.886 727.45 889.136 767.281C898.025 810.424 898.351 857.126 910.7 917.534C914.439 935.617 919.138 954.734 924.947 974.243C935.577 1010.34 949.569 1047.84 966.021 1082.73C991.088 1135.78 1021.87 1182.4 1050.06 1212.66" stroke="#8C8BAC" stroke-width="1.63804" stroke-miterlimit="10"/>
<path d="M101.991 217.939C131.875 194.714 166.58 180.763 204.502 181.825C226.871 182.381 250.504 188.34 273.825 200.568C288.98 208.438 303.947 218.939 318.244 232.108C362.843 272.763 400.361 335.161 436.196 386.439C452.114 409.167 466.06 431.148 483.997 448.201C499.6 463.122 517.073 473.011 534.983 479.753C559.554 488.848 585.747 492.319 609.306 494.388C622.271 495.493 634.903 497.102 646.84 498.382C671.89 501.234 693.933 506.284 716.994 516.144C750.69 530.632 790.008 559.393 823.898 605.607C827.337 610.347 830.692 615.074 833.898 619.889C868.721 671.455 886.161 717.69 892.469 759.222C899.397 804.506 897.35 852.18 908.438 913.398C911.73 931.747 916.229 951.168 921.922 970.994C932.303 1007.61 946.445 1045.58 963.429 1080.77C989.293 1134.29 1021.61 1180.81 1051.7 1210.26" stroke="#9391B4" stroke-width="1.63804" stroke-miterlimit="10"/>
<path d="M104.813 208.633C134.617 185.946 169.473 173.014 207.316 174.617C229.57 175.487 253.09 181.761 276.148 193.839C291.222 201.698 306.092 212.074 320.259 224.892C364.765 264.872 402.473 325.754 437.582 377.591C453.334 400.85 467.098 423.803 485.085 441.752C500.705 457.343 518.277 467.912 536.389 474.907C561.194 484.483 587.622 487.879 611.268 489.406C624.352 490.198 636.938 490.913 649.092 492.004C674.544 494.253 697.027 496.71 720.774 505.125C755.524 517.337 796.327 544.556 830.618 591.28C834.14 596.033 837.429 600.861 840.636 605.677C875.395 657.903 891.287 707.453 895.767 750.926C900.734 798.353 896.296 846.884 906.156 909.14C909.099 927.881 913.4 947.606 918.877 967.623C929.026 1004.87 943.301 1043.2 960.735 1078.69C987.381 1132.55 1021.16 1179.08 1053.25 1207.74" stroke="#9A98BC" stroke-width="1.63804" stroke-miterlimit="10"/>
<path d="M107.734 199.46C137.557 177.438 172.449 165.285 210.228 167.543C232.368 168.728 255.757 175.204 278.653 187.258C293.563 195.092 308.335 205.343 322.471 217.936C366.801 257.228 404.866 316.619 439.164 369.003C454.768 392.906 468.332 416.717 486.269 435.437C501.923 451.81 519.662 462.96 537.907 470.309C562.947 480.364 589.544 483.786 613.344 484.672C626.462 485.136 639.217 485.322 651.44 485.759C677.181 486.611 700.234 487.382 724.651 494.238C760.471 504.287 802.726 529.736 837.517 577.096C841.039 581.849 844.428 586.804 847.652 591.734C882.264 644.609 896.691 697.486 899.409 742.799C902.332 792.356 895.519 841.859 904.134 905.039C906.712 924.058 910.73 944.075 916.092 964.409C925.992 1002.18 940.433 1041.09 958.382 1076.77C985.744 1131.08 1021.13 1177.54 1055.14 1205.38" stroke="#A19EC5" stroke-width="1.63804" stroke-miterlimit="10"/>
<path d="M110.559 190.154C140.384 168.684 175.345 157.537 212.961 160.323C235.086 161.949 258.163 168.489 280.978 180.531C295.807 188.353 310.481 198.48 324.587 210.847C368.824 249.463 407.079 307.338 440.667 360.394C456.105 384.828 469.486 409.612 487.473 429.228C503.16 446.384 521.066 458.115 539.429 465.704C564.686 476.126 591.551 479.7 615.422 479.931C628.659 480.081 641.416 479.713 653.792 479.508C679.837 479.075 703.362 478.034 728.531 483.343C765.323 491.103 809.229 515.034 844.338 562.891C847.877 567.758 851.266 572.714 854.49 577.644C889.055 631.293 901.917 687.372 902.789 734.514C903.734 786.101 894.546 836.575 901.916 900.68C904.145 920.091 907.865 940.286 913.11 960.937C922.761 999.228 937.353 1038.61 955.751 1074.59C983.91 1129.36 1020.83 1175.72 1056.75 1202.75" stroke="#A8A5CD" stroke-width="1.63804" stroke-miterlimit="10"/>
<path d="M113.401 180.964C143.145 160.033 178.257 149.905 215.794 153.233C237.805 155.174 260.751 161.915 283.32 173.921C298.068 181.731 312.562 191.72 326.62 203.749C370.665 241.563 409.292 298.06 442.07 351.662C457.359 376.741 470.541 402.384 488.561 422.783C504.282 440.722 522.255 452.908 540.934 460.99C566.425 471.893 593.443 475.379 617.567 475.094C630.922 474.929 643.682 474.006 656.127 473.147C682.46 471.316 706.539 468.475 732.395 472.337C770.226 477.706 815.633 500.207 851.143 548.574C854.765 553.455 858.072 558.398 861.329 563.555C895.83 617.866 907.143 677.262 906.253 726.244C905.236 779.976 893.672 831.421 899.713 896.438C901.576 916.128 905.03 936.728 910.143 957.583C919.561 996.508 934.287 1036.25 953.217 1072.53C982.175 1127.76 1020.63 1174.03 1058.46 1200.25" stroke="#AFABD5" stroke-width="1.63804" stroke-miterlimit="10"/>
<path d="M116.243 171.776C146.006 151.509 181.154 142.161 218.627 146.145C240.524 148.4 263.273 155.444 285.746 167.325C300.329 175.111 314.809 184.987 328.753 196.778C372.705 233.916 411.523 288.896 443.574 343.057C458.781 368.682 471.696 395.284 489.684 416.568C505.437 435.29 523.577 448.057 542.39 456.493C568.116 467.876 595.386 471.401 619.58 470.461C632.971 469.968 645.9 468.517 658.414 467.002C685.036 463.774 709.686 459.244 736.212 461.546C775.098 464.638 822.073 485.607 857.985 534.484C861.608 539.366 865.014 544.436 868.188 549.581C902.643 604.666 912.473 667.279 909.67 718.192C906.59 773.942 892.65 826.359 897.545 892.427C899.042 912.397 902.297 933.301 907.21 954.46C916.38 993.906 931.271 1034.23 950.619 1070.58C980.293 1126.26 1020.36 1172.45 1060.11 1197.86" stroke="#B6B2DE" stroke-width="1.63804" stroke-miterlimit="10"/>
<path d="M119.067 162.464C148.749 142.736 184.048 134.408 221.359 138.921C243.141 141.492 265.76 148.738 287.986 160.582C302.489 168.356 316.871 178.108 330.701 189.66C374.478 226.109 413.569 279.584 444.908 334.418C459.883 360.675 472.682 388.151 490.703 410.217C506.474 429.609 524.714 443.059 543.728 451.748C569.605 463.599 597.127 467.162 621.475 465.58C634.985 464.772 647.916 462.766 660.599 460.723C687.509 456.096 712.648 449.866 739.927 450.62C779.802 451.534 828.33 470.858 864.643 520.246C868.283 525.241 871.69 530.312 874.963 535.584C909.271 591.318 917.634 657.262 912.984 710.004C907.941 767.899 891.525 821.163 895.256 888.169C896.322 908.518 899.377 929.727 904.174 951.204C913.094 991.17 928.136 1031.97 948.016 1068.63C978.489 1124.77 1020.09 1170.86 1061.73 1195.34" stroke="#BDB8E6" stroke-width="1.63804" stroke-miterlimit="10"/>
<path d="M121.913 153.268C151.614 134.205 186.948 126.657 224.196 131.826C245.881 134.825 268.352 142.16 290.415 153.98C304.837 161.742 319.022 171.242 332.821 182.569C376.504 218.342 415.803 270.412 446.398 325.693C461.207 352.482 473.823 380.93 491.795 403.768C507.598 423.943 525.989 437.861 545.154 447.017C571.265 459.348 599.023 462.837 623.458 460.713C637.003 459.578 650.037 457.144 662.856 454.344C690.071 448.432 715.764 440.4 743.697 439.479C784.627 438.115 834.642 455.894 871.356 505.792C874.996 510.788 878.503 515.985 881.694 521.245C915.954 577.754 922.735 646.79 916.337 701.489C909.314 761.416 890.536 815.765 892.938 883.684C893.638 904.312 896.411 925.813 901.092 947.607C909.779 988.207 924.955 1029.36 945.284 1066.32C976.557 1122.92 1019.69 1168.92 1063.25 1192.59" stroke="#C4BFEE" stroke-width="1.63804" stroke-miterlimit="10"/>
<path d="M124.815 143.97C154.519 125.46 189.921 118.919 227.089 124.63C248.659 127.944 270.918 135.469 292.9 147.278C307.224 154.914 321.328 164.403 335.013 175.491C378.521 210.575 418.01 261.127 447.976 317.094C462.637 344.528 475.036 373.723 493.074 397.572C508.912 418.531 527.469 433.03 546.851 442.554C573.197 455.365 601.124 458.88 625.812 456.239C639.476 454.789 652.512 451.8 665.401 448.345C692.805 440.907 719.169 431.314 747.773 428.831C789.776 425.301 841.344 441.433 878.46 491.842C882.183 496.852 885.623 502.151 888.815 507.411C923.011 564.582 928.241 636.938 919.996 693.467C910.893 755.3 889.753 810.736 891.008 879.707C891.342 900.614 893.932 922.533 898.397 944.518C906.835 985.64 922.16 1027.26 943.023 1064.53C975.012 1121.58 1019.76 1167.5 1065.23 1190.36" stroke="#CBC5F7" stroke-width="1.63804" stroke-miterlimit="10"/>
<path d="M127.661 134.771C174.555 106.584 235.955 108.696 295.246 140.661C354.537 172.626 410.955 234.216 449.316 308.454C463.827 336.534 476.027 366.589 494.099 391.222C531.483 442.344 584.638 457.057 627.712 451.36C670.704 445.651 708.421 423.598 751.479 417.788C794.454 411.965 847.592 426.565 885.11 477.485C928.801 536.898 934.303 621.286 923.301 685.165C912.233 749.145 888.698 805.44 888.623 875.325C888.567 936.337 907.436 1004.81 940.224 1062.32C973.012 1119.84 1019.29 1165.67 1066.68 1187.71" stroke="#D2CCFF" stroke-width="1.63804" stroke-miterlimit="10"/>
<path d="M140.567 132.308C187.294 105.08 248.102 107.986 306.651 140.289C365.2 172.593 420.993 233.663 458.49 307.461C473.105 336.233 484.908 367.458 502.603 392.819C538.506 444.285 590.118 459.984 632.125 456.338C674.049 452.68 711.343 433.215 754.149 428.915C797.503 424.477 850.731 437.872 888.913 487.69C933.138 545.651 940.635 629.823 930.458 694.409C920.28 758.995 895.955 815.525 894.455 883.442C893.175 942.181 910.845 1007.94 941.574 1063.49C972.303 1119.05 1016.21 1164.08 1062.04 1186.44" stroke="#CDC9FE" stroke-width="1.63804" stroke-miterlimit="10"/>
<path d="M153.577 129.968C200.072 103.802 260.353 107.4 318.227 139.942C376.1 172.483 431.217 233.247 467.765 306.592C482.5 336.17 493.79 368.327 511.108 394.416C545.429 446.101 595.597 462.913 636.453 461.306C677.408 459.826 714.262 442.838 756.799 439.935C800.549 436.997 853.917 448.971 892.781 497.801C937.607 554.208 946.968 638.365 937.748 703.457C928.528 768.549 903.428 825.428 900.404 891.25C897.8 947.587 914.385 1010.87 943.053 1064.46C971.805 1118.07 1013.25 1162.3 1057.53 1184.98" stroke="#C7C6FE" stroke-width="1.63804" stroke-miterlimit="10"/>
<path d="M166.494 127.502C212.839 102.409 272.528 106.803 329.709 139.469C386.89 172.135 441.265 232.694 476.947 305.599C491.802 335.984 502.579 369.074 519.619 396.018C552.441 447.934 600.981 465.721 640.868 466.295C680.754 466.869 717.169 452.358 759.537 450.981C803.6 449.53 857.192 460.096 896.654 507.923C942.1 562.89 953.309 646.92 945.048 712.519C936.787 778.118 910.811 835.219 906.293 899.172C902.513 953.019 917.764 1013.79 944.47 1065.54C971.16 1117.18 1010.22 1160.51 1052.94 1183.62" stroke="#C2C3FD" stroke-width="1.63804" stroke-miterlimit="10"/>
<path d="M179.49 125.036C225.585 100.892 284.848 106.106 341.287 139.112C397.725 172.117 451.424 232.371 486.223 304.723C501.199 335.916 511.446 369.826 528.225 397.739C559.529 449.775 606.556 468.778 645.39 471.521C684.224 474.264 720.199 462.233 762.381 462.268C806.908 462.218 860.508 471.563 900.721 518.3C946.787 571.825 959.829 655.614 952.543 721.835C945.174 788.043 918.456 845.167 912.444 907.249C907.42 958.705 921.501 1016.98 946.144 1066.77C970.787 1116.56 1007.45 1158.98 1048.63 1182.53" stroke="#BDC0FD" stroke-width="1.63804" stroke-miterlimit="10"/>
<path d="M192.432 122.669C238.378 99.5996 297.032 105.496 352.712 138.728C408.391 171.96 461.414 231.909 495.33 303.708C510.426 335.708 520.243 370.567 536.644 399.21C566.43 451.366 611.943 471.585 649.708 476.386C687.472 481.186 723.123 471.877 765.021 473.198C809.945 474.652 863.621 482.674 904.501 528.307C951.105 580.377 966.164 664.065 959.672 730.769C953.263 797.486 925.75 854.847 918.159 915.046C911.974 964.121 924.786 1019.78 947.363 1067.61C969.941 1115.43 1004.23 1157.05 1043.76 1180.91" stroke="#B8BDFC" stroke-width="1.63804" stroke-miterlimit="10"/>
<path d="M205.44 120.194C251.155 98.1883 309.283 104.781 364.302 138.366C419.322 171.951 471.502 231.569 504.618 302.828C519.834 335.638 529.12 371.318 545.176 400.921C573.51 453.095 617.343 474.508 654.136 481.493C690.846 488.466 726.058 481.641 767.77 484.377C813.11 487.448 866.828 493.919 908.476 538.574C955.701 589.201 972.613 672.763 967.098 740.091C961.583 807.418 933.409 864.816 924.237 923.129C916.956 969.722 928.364 1022.97 948.958 1068.84C969.552 1114.71 1001.36 1155.4 1039.34 1179.7" stroke="#B2BAFC" stroke-width="1.63804" stroke-miterlimit="10"/>
<path d="M218.298 117.761C263.855 96.8352 321.363 104.11 375.697 137.929C430.03 171.748 481.375 231.139 513.684 301.845C529.018 335.46 537.855 371.969 553.546 402.413C580.406 454.483 622.665 477.326 658.297 486.358C694.013 495.403 728.811 491.292 770.248 495.431C815.978 500.007 869.846 505.165 912.072 548.694C959.829 597.856 978.659 681.176 974.122 749.116C969.585 817.056 940.655 874.352 929.936 930.997C921.561 975.098 931.629 1025.81 950.168 1069.82C968.691 1113.71 998.026 1153.59 1034.52 1178.22" stroke="#ADB6FB" stroke-width="1.63804" stroke-miterlimit="10"/>
<path d="M231.242 115.454C276.54 95.4841 333.527 103.568 387.089 137.608C440.652 171.647 491.242 230.822 522.743 300.974C538.196 335.392 546.483 372.604 561.925 404.127C587.393 456.106 627.992 480.366 662.546 491.459C697.199 502.677 731.19 497.995 772.792 506.609C819.419 516.218 872.845 516.522 915.816 558.949C964.102 606.644 984.867 689.834 981.21 758.258C977.553 826.682 948.066 884.13 935.601 938.85C926.146 980.57 934.874 1028.75 951.324 1070.67C967.791 1112.7 994.704 1151.55 1029.64 1176.61" stroke="#A8B3FB" stroke-width="1.63804" stroke-miterlimit="10"/>
<path d="M244.09 113.025C289.23 94.1374 345.678 102.917 398.486 137.291C451.36 171.564 501.113 230.51 531.789 299.993C547.36 335.215 555.197 373.256 570.274 405.621C594.348 457.507 633.188 483.059 666.778 496.453C700.352 509.733 734.062 507.564 775.32 517.684C822.386 529.14 875.827 527.776 919.46 569.088C968.359 615.327 990.978 698.374 988.284 767.295C985.59 836.217 955.447 893.689 941.334 946.611C930.867 985.848 938.086 1031.47 952.563 1071.54C967.039 1111.6 991.479 1149.63 1024.84 1175.01" stroke="#A3B0FA" stroke-width="1.63804" stroke-miterlimit="10"/>
<path d="M257.016 110.601C301.997 92.796 357.824 102.259 409.943 136.867C462.062 171.475 510.96 230.078 540.911 299.018C556.516 335.032 563.97 373.802 578.632 407.222C601.295 458.902 638.491 485.986 671.001 501.442C703.511 516.898 737.281 520.748 777.837 528.757C824.936 538.104 878.784 538.914 923.177 579.237C972.608 624.007 997.246 706.937 995.433 776.343C993.619 845.749 962.986 903.271 947.074 954.483C935.677 991.249 941.405 1034.43 953.807 1072.51C966.209 1110.59 988.258 1147.82 1020.04 1173.52" stroke="#9DADFA" stroke-width="1.63804" stroke-miterlimit="10"/>
<path d="M269.882 108.28C314.621 91.5451 369.925 101.818 421.338 136.546C472.752 171.274 520.828 229.761 549.97 298.146C565.693 334.964 572.763 374.463 587.009 408.939C608.361 460.54 643.729 489.018 675.242 506.55C706.671 524.069 740.026 530.638 780.288 539.937C827.793 550.906 881.69 550.274 926.729 589.367C976.706 632.782 1003.25 715.353 1002.42 785.37C1001.58 855.387 970.36 912.833 952.716 962.232C940.406 996.639 944.608 1037.14 954.935 1073.25C965.261 1109.35 984.901 1145.65 1015.13 1171.78" stroke="#98AAF9" stroke-width="1.63804" stroke-miterlimit="10"/>
<path d="M282.815 105.857C327.379 90.0916 382.077 101.163 432.735 136.225C483.394 171.288 530.631 229.547 559.031 297.276C574.789 334.887 581.475 375.115 595.372 410.548C615.463 461.855 649.019 491.842 679.384 511.539C709.749 531.235 742.771 540.537 782.74 551.129C830.752 563.846 884.599 561.645 930.301 599.622C980.809 641.566 1009.29 724.008 1009.36 794.625C1009.42 865.242 977.856 922.65 958.245 970.312C945.171 1002.27 947.63 1040.29 955.964 1074.42C964.298 1108.56 981.46 1144.05 1010.11 1170.5" stroke="#93A7F9" stroke-width="1.63804" stroke-miterlimit="10"/>
<path d="M295.678 103.534C340 88.8398 394.158 100.608 444.127 135.905C494.096 171.201 540.41 229.218 568.001 296.391C583.893 334.922 590.179 375.766 603.66 412.255C622.505 463.382 654.248 494.878 683.532 516.639C712.898 538.414 745.521 550.551 785.179 562.321C833.598 576.661 887.411 573.003 933.942 609.889C984.982 650.363 1015.4 732.674 1016.43 803.789C1017.46 874.904 985.49 932.375 963.978 978.197C950.073 1007.81 950.922 1043.14 957.195 1075.4C963.468 1107.67 978.22 1142.24 1005.29 1169.01" stroke="#8EA4F9" stroke-width="1.63804" stroke-miterlimit="10"/>
<path d="M308.606 101.103C352.769 87.4932 406.388 99.9584 455.584 135.477C504.78 170.995 550.271 228.896 577.102 295.298C593.029 334.622 599.098 376.221 611.978 413.629C629.577 464.575 659.424 497.568 687.724 521.522C716.025 545.476 748.316 560.35 787.663 573.298C836.589 589.388 890.351 584.16 937.545 619.928C989.133 659.044 1021.55 741.009 1023.47 812.724C1025.4 884.439 993.187 941.999 969.691 985.967C955.121 1013.26 954.209 1045.98 958.388 1076.15C962.583 1106.43 974.922 1140.08 1000.45 1167.4" stroke="#88A1F8" stroke-width="1.63804" stroke-miterlimit="10"/>
<path d="M321.454 98.661C365.358 86.0093 418.454 99.2861 466.976 135.152C515.498 171.019 559.966 228.551 586.154 294.422C602.115 334.54 607.867 376.768 620.347 415.349C636.766 466.012 664.714 500.504 691.949 526.639C719.183 552.773 751.141 570.383 790.177 584.511C839.61 602.352 893.338 595.666 941.263 630.215C993.383 667.859 1027.74 749.694 1030.55 821.895C1033.44 894.108 1001 951.871 975.336 993.846C960.034 1018.91 957.411 1048.82 959.527 1077.12C961.643 1105.42 971.586 1138.26 995.531 1165.89" stroke="#839EF8" stroke-width="1.63804" stroke-miterlimit="10"/>
<path d="M334.397 96.3416C378.141 84.7752 430.614 98.7372 478.363 134.825C526.112 170.913 569.755 228.33 595.2 293.544C611.213 334.57 616.729 377.44 628.709 417.067C643.965 467.563 670.014 503.553 696.165 531.755C722.317 559.958 753.974 580.534 792.683 595.728C842.557 615.422 896.301 607.062 944.89 640.492C997.559 676.778 1033.84 758.368 1037.62 831.068C1041.41 903.882 1008.83 961.861 981.075 1001.85C965.207 1024.72 960.621 1051.77 960.757 1078.21C960.877 1104.54 968.322 1136.45 990.621 1164.5" stroke="#7E9BF7" stroke-width="1.63804" stroke-miterlimit="10"/>
<path d="M347.25 93.8963C390.752 83.403 442.684 98.0632 489.742 134.386C536.8 170.708 579.436 227.87 604.236 292.552C620.283 334.372 625.582 377.999 637.045 418.558C651.136 468.886 675.202 506.362 700.27 536.634C725.354 567.019 756.594 590.322 795.076 606.709C845.373 628.142 899.151 618.222 948.487 650.546C1001.69 685.358 1039.89 766.704 1044.67 840.131C1049.45 913.557 1016.74 971.866 986.7 1009.62C970.183 1030.28 963.818 1054.61 961.857 1078.95C959.895 1103.29 964.941 1134.39 985.659 1162.77" stroke="#7898F7" stroke-width="1.63804" stroke-miterlimit="10"/>
<path d="M360.101 91.4475C403.443 82.0405 454.752 97.3865 501.136 134.058C547.519 170.729 589.231 227.648 613.27 291.558C629.369 334.288 634.5 378.456 645.311 420.151C658.305 470.21 680.386 509.173 704.386 541.629C728.386 574.084 759.326 600.356 797.497 617.923C848.318 641.224 902.029 629.616 952.031 660.821C1005.78 694.273 1046 775.386 1051.66 849.3C1057.32 923.214 1024.68 982.106 992.34 1017.51C975.357 1036.1 967.011 1057.45 962.985 1079.92C959.041 1102.4 961.587 1132.57 980.724 1161.26" stroke="#7395F6" stroke-width="1.63804" stroke-miterlimit="10"/>
<path d="M373.047 89.1233C416.214 80.6889 466.931 96.9492 512.607 133.741C558.2 170.52 599.019 227.426 622.397 290.69C638.531 334.214 643.527 379.153 653.737 421.768C665.649 471.672 685.662 512.111 708.677 546.764C731.691 581.417 762.231 610.532 800.074 629.167C851.336 654.323 904.997 641.141 955.814 671.136C1010.11 703.228 1052.26 784.096 1058.8 858.497C1065.43 932.911 1032.89 992.501 998.154 1025.54C980.637 1042.15 970.31 1060.53 964.285 1081.03C958.259 1101.52 958.387 1130.76 975.958 1159.9" stroke="#6E92F6" stroke-width="1.63804" stroke-miterlimit="10"/>
<path d="M385.899 86.6689C428.907 79.3217 479.083 96.2813 523.984 133.295C568.901 170.423 608.712 227.074 631.429 289.692C647.53 334.113 652.542 379.734 662.084 423.372C672.996 473.134 690.939 515.048 712.869 551.773C734.798 588.498 764.953 620.571 802.468 640.274C854.189 667.401 907.85 652.428 959.332 681.303C1014.18 712.033 1058.26 792.656 1065.77 867.557C1073.28 942.458 1040.94 1002.99 1003.69 1033.31C985.637 1047.94 973.395 1063.25 965.285 1081.75C957.176 1100.26 954.902 1128.69 970.889 1158.15" stroke="#698EF5" stroke-width="1.63804" stroke-miterlimit="10"/>
<path d="M398.831 84.2253C441.596 77.953 491.231 95.6123 535.373 132.963C579.516 170.313 618.401 226.721 640.472 288.808C656.608 334.025 661.485 380.416 670.425 424.976C680.337 474.595 696.194 517.873 717.054 556.785C737.914 595.696 767.684 630.73 804.938 651.4C857.1 680.383 910.795 663.847 963.01 691.499C1018.41 720.868 1064.4 801.132 1072.9 876.648C1081.39 952.163 1049.28 1013.75 1009.48 1041.23C990.913 1054.01 976.755 1066.23 966.561 1082.75C956.451 1099.27 951.69 1126.89 966.093 1156.66" stroke="#638BF5" stroke-width="1.63804" stroke-miterlimit="10"/>
<path d="M411.703 81.8849C454.225 76.6879 503.319 95.0472 546.769 132.633C590.219 170.218 628.027 226.473 649.504 287.812C665.607 333.927 670.583 381.014 678.687 426.572C687.6 476.049 701.384 520.804 721.158 561.79C740.932 602.775 770.401 640.783 807.327 662.522C859.863 693.465 913.642 675.149 966.524 701.68C1022.48 729.686 1070.4 809.705 1079.78 885.708C1089.17 961.826 1057.3 1024.58 1014.93 1049C995.859 1060.03 979.668 1068.93 967.489 1083.58C955.309 1098.23 948.027 1124.8 960.946 1155.02" stroke="#5E88F4" stroke-width="1.63804" stroke-miterlimit="10"/>
<path d="M424.637 79.4357C466.983 75.2132 515.469 94.3742 558.143 132.183C600.818 169.991 637.716 226.118 658.531 286.811C674.585 333.71 679.594 381.595 687.028 428.177C694.956 477.627 706.568 523.733 725.255 566.794C743.959 609.969 773.042 650.94 809.724 673.762C862.719 706.678 916.432 686.67 970.048 711.977C1026.55 738.62 1076.49 818.407 1086.77 895.013C1097.05 971.62 1065.46 1035.89 1020.59 1057.14C1001.02 1066.42 982.891 1072.12 968.608 1084.67C954.342 1097.33 944.654 1123.09 955.988 1153.63" stroke="#5985F4" stroke-width="1.63804" stroke-miterlimit="10"/>
<path d="M437.49 76.9737C479.593 73.8275 527.537 93.6892 569.535 131.847C611.517 169.892 647.405 225.763 667.573 285.923C683.595 333.721 688.702 382.303 695.366 429.782C702.294 479.089 711.816 526.561 729.448 571.926C747.064 617.177 775.762 661.113 812.198 685.017C865.585 720.008 919.383 698.219 973.733 722.302C1030.79 747.581 1082.64 827.008 1093.91 904.23C1105.18 981.452 1073.86 1047.12 1026.36 1064.96C1006.28 1072.49 986.209 1074.88 969.855 1085.55C953.501 1096.22 941.39 1121.05 951.171 1152.15" stroke="#5482F3" stroke-width="1.63804" stroke-miterlimit="10"/>
<path d="M450.44 74.6377C492.384 72.5811 539.786 93.1439 581.008 131.525C622.23 169.907 657.106 225.522 676.695 285.049C692.668 333.633 697.908 383.139 703.802 431.517C709.827 480.809 717.091 529.621 733.719 577.076C750.346 624.531 778.576 671.42 814.751 696.293C868.513 733.247 922.412 709.789 977.413 732.635C1035.04 756.664 1088.81 835.731 1101.05 913.455C1113.28 991.179 1082.16 1058.79 1032.09 1073.12C1011.45 1079 989.421 1078.08 971.062 1086.77C952.703 1095.46 938.1 1119.47 946.294 1150.89" stroke="#4E7FF3" stroke-width="1.63804" stroke-miterlimit="10"/>
<path d="M463.298 72.1668C504.982 71.0732 551.874 92.5659 592.387 131.069C632.915 169.686 666.713 225.148 685.706 283.926C701.646 333.409 706.985 383.613 712.025 432.877C717.064 482.141 722.236 532.319 737.775 581.852C753.314 631.385 781.09 681.343 817.087 707.198C871.241 746.229 925.208 720.874 980.961 742.608C1039.12 765.158 1094.84 844.094 1107.97 922.307C1121.09 1000.52 1090.23 1070.09 1037.66 1080.69C1016.38 1085.02 992.534 1080.58 972.086 1087.28C951.638 1093.97 934.625 1117.17 941.231 1148.91" stroke="#497CF2" stroke-width="1.63804" stroke-miterlimit="10"/>
</g>
</g>
</svg>
