<svg width="25" height="26" viewBox="0 0 25 26" fill="none" xmlns="http://www.w3.org/2000/svg">
<rect y="0.5" width="25" height="25" rx="3" fill="#0057FC"/>
<path d="M10.5857 17.3555C10.4816 17.3555 10.3839 17.3391 10.2928 17.3062C10.2016 17.274 10.117 17.2188 10.0389 17.1406L6.67949 13.7812C6.53626 13.638 6.46777 13.4523 6.47402 13.2242C6.4808 12.9966 6.5558 12.8112 6.69902 12.668C6.84225 12.5247 7.02455 12.4531 7.2459 12.4531C7.46725 12.4531 7.64955 12.5247 7.79277 12.668L10.5857 15.4609L17.2068 8.83984C17.3501 8.69661 17.5357 8.625 17.7639 8.625C17.9915 8.625 18.1769 8.69661 18.3201 8.83984C18.4633 8.98307 18.535 9.16849 18.535 9.39609C18.535 9.62422 18.4633 9.8099 18.3201 9.95313L11.1326 17.1406C11.0545 17.2188 10.9699 17.274 10.8787 17.3062C10.7876 17.3391 10.6899 17.3555 10.5857 17.3555Z" fill="white"/>
</svg>
