<svg width="116" height="78" viewBox="0 0 116 78" fill="none" xmlns="http://www.w3.org/2000/svg">
<path d="M39.7534 55.2705L32.1325 62.8914C31.7205 63.3034 31.2455 63.407 30.7076 63.202C30.1696 62.9971 29.9006 62.6022 29.9006 62.0173V15.6195C29.9006 14.1444 30.3948 12.9138 31.3832 11.9275C32.3716 10.9413 33.6011 10.446 35.072 10.4418H82.3663C83.8392 10.4418 85.0688 10.936 86.0551 11.9243C87.0413 12.9127 87.5355 14.1433 87.5376 15.6163V50.0992C87.5376 51.5722 87.0434 52.8028 86.0551 53.7912C85.0667 54.7796 83.8371 55.2727 82.3663 55.2705H39.7534ZM58.7191 39.795L64.0666 43.0483C64.5277 43.3386 64.9909 43.3151 65.4562 42.9779C65.9195 42.6384 66.0924 42.1837 65.975 41.6138L64.5565 35.5715L69.2635 31.5273C69.7118 31.1281 69.8505 30.667 69.6798 30.144C69.509 29.621 69.1311 29.3328 68.5462 29.2795L62.3471 28.7191L59.9135 23.0162C59.6872 22.4975 59.2891 22.2381 58.7191 22.2381C58.1492 22.2381 57.751 22.4975 57.5248 23.0162L55.0912 28.7159L48.892 29.2795C48.3092 29.3328 47.9314 29.621 47.7585 30.144C47.5856 30.667 47.7243 31.1281 48.1748 31.5273L52.8818 35.5715L51.4665 41.6106C51.3469 42.1827 51.5188 42.6384 51.982 42.9779C52.4452 43.3173 52.9095 43.3407 53.3749 43.0483L58.7191 39.795Z" fill="#0057FC"/>
</svg>
