<svg width="116" height="73" viewBox="0 0 116 73" fill="none" xmlns="http://www.w3.org/2000/svg">
<path d="M19.9958 47.7047C19.6597 47.7047 19.3873 47.9771 19.3873 48.3131C19.3873 48.5379 19.2615 48.7408 19.0796 48.8727C17.5949 49.9496 15.2062 53.5946 15.3811 61.3257C15.3879 61.6264 15.5693 61.899 15.853 61.9989C17.7164 62.6554 21.6667 63.3453 25.927 61.98C26.2151 61.8877 26.4165 61.6315 26.4375 61.3297C26.6774 57.8728 26.2416 51.3407 22.7924 48.8715C22.6164 48.7455 22.5027 48.5465 22.5027 48.3301C22.5027 47.9847 22.2227 47.7047 21.8773 47.7047H19.9958Z" fill="#0057FC"/>
<path d="M20.2635 31.1465C20.2635 30.8039 20.0397 30.5016 19.7121 30.4016L11.5661 27.9149C11.2385 27.8149 11.0146 27.5126 11.0146 27.17V27.0507C11.0146 26.7114 11.2343 26.4112 11.5577 26.3084L58.5824 11.3678C58.7349 11.3193 58.8986 11.319 59.0512 11.3669L105.781 26.0177C106.106 26.1196 106.327 26.4205 106.327 26.7609V27.3648C106.327 27.7073 106.103 28.0096 105.775 28.1097L59.0464 42.3773C58.8967 42.423 58.7368 42.4225 58.5874 42.376L25.9235 32.2035C25.5598 32.0903 25.5583 31.576 25.9214 31.4606L55.99 21.9017C56.1797 21.8414 56.3845 21.8572 56.5661 21.9388C57.5856 22.3969 59.3737 22.9942 60.8612 22.0025C62.9057 20.6396 60.8612 18.7898 59.5955 18.7898C58.4054 18.7898 57.0431 18.962 56.1562 20.1158C56.0448 20.2608 55.8976 20.3773 55.723 20.4317L22.1736 30.8862C21.8482 30.9876 21.6265 31.2889 21.6265 31.6298V39.332C21.6265 39.7084 21.3214 40.0135 20.945 40.0135C20.5686 40.0135 20.2635 39.7084 20.2635 39.332V31.1465Z" fill="#0057FC"/>
<path d="M32.889 36.3874C32.5605 36.286 32.2043 36.4094 32.0252 36.7028C30.6985 38.8775 28.5763 43.5353 28.4461 48.5352C28.4354 48.9444 28.7558 49.279 29.1639 49.3103C35.8312 49.8224 49.7533 52.7052 58.2963 60.735C58.5935 61.0144 59.0525 61.031 59.3658 60.7699C64.5789 56.4246 76.5908 48.8351 87.9144 49.2159C88.3851 49.2317 88.7771 48.8466 88.7356 48.3774C88.4446 45.0869 87.5082 39.3748 85.5149 36.6164C85.3333 36.3652 85.0088 36.276 84.7126 36.3677L59.0468 44.3232C58.8969 44.3697 58.7364 44.3698 58.5864 44.3234L32.889 36.3874Z" fill="#0057FC"/>
<circle cx="21.1396" cy="44.3946" r="4.77047" fill="#0057FC"/>
</svg>
