<svg width="115" height="78" viewBox="0 0 115 78" fill="none" xmlns="http://www.w3.org/2000/svg">
<path fill-rule="evenodd" clip-rule="evenodd" d="M58.2192 7.23975C62.4242 7.23973 66.5881 8.06795 70.473 9.67712C74.3579 11.2863 77.8878 13.6449 80.8612 16.6183C83.8346 19.5917 86.1933 23.1216 87.8025 27.0065C89.4116 30.8914 90.2399 35.0552 90.2399 39.2602C90.2399 56.9447 75.9037 71.2809 58.2192 71.2809C40.5349 71.2809 26.1987 56.9447 26.1987 39.2602C26.1987 21.5759 40.5349 7.23975 58.2192 7.23975ZM61.4214 42.4624H55.0172C47.0899 42.4624 40.2841 47.2635 37.3486 54.1171C41.9932 60.6299 49.6103 64.8767 58.2192 64.8767C66.8282 64.8767 74.4452 60.6299 79.09 54.1166C76.1545 47.2635 69.3487 42.4624 61.4214 42.4624ZM58.2192 16.8459C52.9139 16.8459 48.6131 21.1468 48.6131 26.4521C48.6131 31.7574 52.9139 36.0582 58.2192 36.0582C63.5245 36.0582 67.8254 31.7574 67.8254 26.4521C67.8254 21.1468 63.5247 16.8459 58.2192 16.8459Z" fill="#0057FC"/>
</svg>
