<svg width="116" height="78" viewBox="0 0 116 78" fill="none" xmlns="http://www.w3.org/2000/svg">
<path fill-rule="evenodd" clip-rule="evenodd" d="M58.7191 7.23975C57.8699 7.23975 57.0554 7.5771 56.4549 8.17761C55.8544 8.77811 55.5171 9.59256 55.5171 10.4418V16.8459H36.3047C34.6063 16.8459 32.9774 17.5206 31.7764 18.7216C30.5754 19.9226 29.9006 21.5515 29.9006 23.25V64.8767C29.9006 66.5752 30.5754 68.2041 31.7764 69.4051C32.9774 70.6061 34.6063 71.2808 36.3047 71.2808H81.1335C82.832 71.2808 84.4609 70.6061 85.6619 69.4051C86.8629 68.2041 87.5376 66.5752 87.5376 64.8767V23.25C87.5376 21.5515 86.8629 19.9226 85.6619 18.7216C84.4609 17.5206 82.832 16.8459 81.1335 16.8459H61.9212V10.4418C61.9212 9.59256 61.5838 8.77811 60.9833 8.17761C60.3828 7.5771 59.5684 7.23975 58.7191 7.23975ZM61.9212 16.8459V45.1137L67.7745 39.2603C68.375 38.6595 69.1894 38.3217 70.0389 38.3214C70.8883 38.3211 71.703 38.6583 72.3038 39.2587C72.9047 39.8591 73.2424 40.6736 73.2427 41.523C73.243 42.3724 72.9059 43.1872 72.3054 43.788L61.5465 54.5437C60.796 55.2936 59.7785 55.7148 58.7175 55.7148C57.6566 55.7148 56.639 55.2936 55.8885 54.5437L45.1328 43.788C44.8355 43.4905 44.5997 43.1374 44.4389 42.7487C44.2781 42.3601 44.1954 41.9436 44.1956 41.523C44.1957 41.1024 44.2787 40.686 44.4398 40.2975C44.6009 39.909 44.8369 39.556 45.1344 39.2587C45.4319 38.9614 45.7851 38.7256 46.1737 38.5648C46.5623 38.404 46.9788 38.3213 47.3994 38.3214C47.82 38.3216 48.2364 38.4046 48.6249 38.5657C49.0134 38.7268 49.3664 38.9628 49.6637 39.2603L55.5171 45.1137V16.8459H61.9212Z" fill="#0057FC"/>
</svg>
