<svg width="170" height="73" viewBox="0 0 170 73" fill="none" xmlns="http://www.w3.org/2000/svg">
<path d="M66.1414 44.7806C66.0626 45.9054 65.636 46.9812 64.9188 47.8507C64.2196 48.6946 63.2699 49.294 62.2073 49.5623L53.6301 50.9778L53.3855 51.2223C53.275 51.3385 53.1915 51.4776 53.141 51.6299L51.7826 59.5143C51.5194 60.614 50.9059 61.5984 50.0347 62.3192C49.1634 63.0401 48.0815 63.4583 46.9519 63.5108H46.7074C45.6913 63.5108 44.6969 63.2093 43.8547 62.6414C42.9371 62.0425 42.2339 61.1671 41.8469 60.1419L34.2749 38.6621C33.9372 37.7339 33.8729 36.7284 34.0897 35.7647C34.3064 34.8011 34.795 33.9199 35.4975 33.2256C36.1849 32.5111 37.0733 32.0302 38.0487 31.84C39.0146 31.6188 40.0242 31.6849 40.953 32.0302L62.6665 39.5859C63.7641 39.9526 64.715 40.6563 65.3833 41.5964C65.9675 42.55 66.231 43.6639 66.1414 44.7806Z" fill="#0057FC"/>
<path d="M32.2672 65.0895C32.0689 65.1171 31.8678 65.1171 31.6695 65.0895C27.0005 63.6211 22.7894 60.9728 19.4434 57.4007C16.093 53.8257 13.7207 49.4474 12.5557 44.6883C11.3907 39.9292 11.4722 34.9501 12.7925 30.2318C14.1105 25.5145 16.6209 21.2161 20.0819 17.7503C23.5414 14.2901 27.835 11.7808 32.5477 10.4648C37.2604 9.14889 42.2329 9.0708 46.9846 10.2381C51.7362 11.409 56.1054 13.7859 59.6698 17.139C63.235 20.4975 65.8755 24.7174 67.3369 29.3922C67.4632 29.7761 67.4715 30.189 67.3606 30.5776C67.2497 30.9661 67.0247 31.3125 66.7148 31.5718C66.4049 31.8311 66.0242 31.9914 65.6222 32.032C65.2201 32.0726 64.8152 31.9915 64.4597 31.7994C63.9832 31.5505 63.6225 31.1255 63.4544 30.6148C62.2206 26.5827 59.965 22.9382 56.9067 20.0353C53.851 17.1358 50.0973 15.076 46.0103 14.0558C41.9234 13.0356 37.642 13.0898 33.5822 14.213C29.5222 15.3411 25.8226 17.4992 22.8423 20.4781C19.859 23.4598 17.6969 27.1618 16.5654 31.2251C15.4339 35.2884 15.3715 39.575 16.3842 43.6695C17.3906 47.7637 19.4397 51.5277 22.332 54.5952C25.2243 57.6627 28.8614 59.9293 32.8894 61.1745C33.1589 61.2599 33.4084 61.3991 33.6227 61.5837C33.8369 61.7682 34.0116 61.9943 34.136 62.2482C34.2604 62.5022 34.3321 62.7787 34.3466 63.0611C34.3612 63.3436 34.3183 63.626 34.2206 63.8914C34.0521 64.2639 33.7755 64.5771 33.4266 64.7903C33.0778 65.0035 32.6728 65.1068 32.2645 65.0868" fill="#0057FC"/>
<path d="M129.247 11.1781C133.186 11.1804 137.073 12.0747 140.616 13.7939C144.16 15.5132 147.268 18.0127 149.708 21.1049C152.148 24.1972 153.855 27.8018 154.703 31.6483C155.55 35.4948 155.516 39.4833 154.601 43.3145C153.687 47.1457 151.917 50.7201 149.424 53.7694C146.931 56.8187 143.78 59.2638 140.206 60.9211C136.633 62.5785 132.731 63.405 128.793 63.3388C124.855 63.2725 120.983 62.3152 117.467 60.5386L117.073 60.3267L105.189 63.2936C104.96 63.3511 104.722 63.3583 104.49 63.3147C104.258 63.2711 104.039 63.1777 103.847 63.041C103.655 62.9043 103.494 62.7276 103.377 62.523C103.26 62.3183 103.189 62.0907 103.168 61.8558V61.5885L103.213 61.3178L106.18 49.4374L105.975 49.0462C104.487 46.1077 103.568 42.914 103.269 39.6338L103.187 38.3883L103.165 37.2603C103.165 30.3429 105.912 23.7088 110.804 18.8174C115.695 13.926 122.329 11.1781 129.247 11.1781ZM130.877 40.5206H121.096L120.803 40.5466C120.427 40.6147 120.087 40.8126 119.842 41.1057C119.597 41.3989 119.463 41.7687 119.463 42.1507C119.463 42.5327 119.597 42.9025 119.842 43.1957C120.087 43.4888 120.427 43.6867 120.803 43.7548L121.096 43.7808H130.877L131.17 43.7548C131.546 43.6867 131.886 43.4888 132.131 43.1957C132.376 42.9025 132.51 42.5327 132.51 42.1507C132.51 41.7687 132.376 41.3989 132.131 41.1057C131.886 40.8126 131.546 40.6147 131.17 40.5466L130.877 40.5206ZM137.397 30.7397H121.096L120.803 30.7658C120.427 30.8339 120.087 31.0318 119.842 31.3249C119.597 31.6181 119.463 31.9879 119.463 32.3699C119.463 32.7518 119.597 33.1217 119.842 33.4148C120.087 33.708 120.427 33.9059 120.803 33.9739L121.096 34H137.397L137.691 33.9739C138.067 33.9059 138.407 33.708 138.652 33.4148C138.896 33.1217 139.031 32.7518 139.031 32.3699C139.031 31.9879 138.896 31.6181 138.652 31.3249C138.407 31.0318 138.067 30.8339 137.691 30.7658L137.397 30.7397Z" fill="#0057FC"/>
</svg>
